<svg width="30" height="30" viewBox="0 0 30 30" fill="none" xmlns="http://www.w3.org/2000/svg">
<path d="M8.46699 10.9949H10.1155V15.3629C10.1155 16.0559 10.1353 16.5062 10.1773 16.7115C10.2473 17.0405 10.4153 17.3065 10.6813 17.506C10.9462 17.7067 11.309 17.8059 11.7698 17.8059C12.2377 17.8059 12.59 17.7125 12.828 17.5235C13.0648 17.3334 13.2083 17.1012 13.2573 16.827C13.304 16.5517 13.3297 16.0955 13.3297 15.4562V10.9949H14.977V15.231C14.977 16.1994 14.9338 16.883 14.844 17.2844C14.7553 17.6834 14.5908 18.0194 14.3517 18.2959C14.1113 18.5712 13.7917 18.7894 13.3903 18.9527C12.989 19.116 12.4652 19.1977 11.82 19.1977C11.0395 19.1977 10.4492 19.109 10.0467 18.9305C9.64299 18.7532 9.32332 18.5222 9.08999 18.2387C8.85665 17.954 8.70265 17.6554 8.62915 17.3439C8.52065 16.8819 8.46582 16.2005 8.46582 15.2975L8.46699 10.9949ZM18.3032 19.0612L15.3865 10.9949H17.1738L19.2388 16.9647L21.2397 10.9949H22.9873L20.0637 19.06H18.3032V19.0612Z" fill="black"/>
</svg>
