<svg width="30" height="30" viewBox="0 0 30 30" fill="none" xmlns="http://www.w3.org/2000/svg">
<g clip-path="url(#clip0_547_5718)">
<path d="M10.5952 18.0562H19.2614V12.3087H21.8439L14.9289 7.10498L8.01391 12.3075H10.5952V18.0575V18.0562ZM16.1502 14.8987H13.6664V12.415H16.1502V14.8987ZM23.0839 20.06C21.8264 20.06 21.1689 20.7587 20.6427 21.32C20.1714 21.8212 19.7989 22.22 19.0339 22.22C18.2689 22.22 17.8989 21.8212 17.4264 21.32C16.9002 20.7575 16.2452 20.06 14.9852 20.06C13.7264 20.06 13.0702 20.7575 12.5439 21.3175C12.0727 21.82 11.7014 22.2175 10.9364 22.2175C10.1714 22.2175 9.79891 21.82 9.32891 21.3175C8.80391 20.7562 8.14766 20.06 6.88766 20.06C6.57141 20.06 6.31641 20.315 6.31641 20.6312C6.31641 20.9475 6.57141 21.2025 6.88766 21.2025H6.90016C7.65641 21.2062 8.02641 21.6025 8.49516 22.1025C9.02266 22.6637 9.67766 23.3625 10.9364 23.3625C12.1964 23.3625 12.8514 22.6625 13.3777 22.1025C13.8489 21.5987 14.2214 21.2025 14.9864 21.2025C15.7514 21.2025 16.1239 21.5987 16.5939 22.1025C17.1214 22.6637 17.7752 23.3625 19.0352 23.3625C20.2939 23.3625 20.9502 22.6625 21.4764 22.1025C21.9439 21.6025 22.3152 21.2087 23.0714 21.2025H23.0839C23.3989 21.2025 23.6552 20.9475 23.6552 20.6312C23.6552 20.315 23.3989 20.06 23.0839 20.06Z" fill="black"/>
</g>
<defs>
<clipPath id="clip0_547_5718">
<rect width="30" height="30" fill="white"/>
</clipPath>
</defs>
</svg>
