<?xml version="1.0" encoding="UTF-8" standalone="no"?>
<svg width="80px" height="80px" viewBox="0 0 80 80" version="1.1" xmlns="http://www.w3.org/2000/svg" xmlns:xlink="http://www.w3.org/1999/xlink">
    <!-- Generator: Sketch 3.8.2 (29753) - http://www.bohemiancoding.com/sketch -->
    <title>juhannus</title>
    <desc>Created with Sketch.</desc>
    <defs></defs>
    <g id="Page-1" stroke="none" stroke-width="1" fill="none" fill-rule="evenodd">
        <g id="juhannus" fill="currentColor">
            <path d="M80,75.999 L80,75.999 C76.126,75.999 72.616,74.472 70.012,72 L69.991,72 C67.387,74.472 63.877,75.999 60.003,75.999 C56.129,75.999 52.619,74.472 50.016,72 L49.994,72 C47.391,74.472 43.88,75.999 40.007,75.999 C36.133,75.999 32.623,74.472 30.019,72 L29.998,72 C27.394,74.472 23.884,75.999 20.01,75.999 C16.136,75.999 12.626,74.472 10.022,72 L10.001,72 C7.398,74.472 3.874,75.999 0,75.999 L0,80.367 L80,80.367 L80,75.999 Z" id="fill-4"></path>
            <path d="M65.9452582,70.7233665 C62.5180605,59.2981162 52.2070251,51 39.9966283,51 C27.7944583,51 17.4833355,59.2975593 14.0557365,70.7179379 C15.8715321,71.5400088 17.8860598,71.999 20.01,71.999 C23.884,71.999 27.394,70.472 29.998,68 L30.019,68 C32.623,70.472 36.133,71.999 40.007,71.999 C43.88,71.999 47.391,70.472 49.994,68 L50.016,68 C52.619,70.472 56.129,71.999 60.003,71.999 C62.1222604,71.999 64.13259,71.5420292 65.9452582,70.7233665 L65.9452582,70.7233665 Z" id="fill-3"></path>
            <path d="M26.115272,34.8066478 C27.0005639,41.6932305 32.877273,47 39.9974216,47 C47.1176779,47 52.9988304,41.6930699 53.8846765,34.80365 C52.9858967,36.9032748 51.3713936,38.8966469 48.4806528,38.8966469 C44.8388131,38.8966469 42.2678042,36.8669065 41.4854006,33.4833205 C41.3863205,33.0560608 41.2376558,31.4196499 39.9993769,31.4064703 C38.7610089,31.4196499 38.6123442,33.0560608 38.5132641,33.4833205 C37.7308605,36.8669065 35.1598516,38.8966469 31.5180119,38.8966469 C28.628647,38.8966469 27.0143052,36.9051718 26.115272,34.8066478 L26.115272,34.8066478 Z" id="fill-2"></path>
            <path d="M26.3216489,30 C27.6937906,23.7064527 33.2946373,18.9940442 39.9974216,19.0000056 C46.700889,19.0000056 52.3060705,23.7089993 53.6785211,30 L26.3216489,30 L26.3216489,30 Z" id="fill-1"></path>
        </g>
    </g>
</svg>