<svg width="30" height="30" viewBox="0 0 30 30" fill="none" xmlns="http://www.w3.org/2000/svg">
<g clip-path="url(#clip0_547_5716)">
<path d="M15.3945 19.535V13.5975C15.3945 13.2775 15.1358 13.0188 14.817 13.0188C14.4983 13.0188 14.2395 13.2775 14.2395 13.5975V19.535C13.742 19.7563 13.3945 20.255 13.3945 20.835C13.3945 21.6225 14.032 22.2588 14.817 22.2588C15.6033 22.2588 16.2395 21.6213 16.2395 20.8363C16.2395 20.255 15.892 19.7563 15.3945 19.535Z" fill="black"/>
<path d="M14.8177 22.9875C13.6315 22.9875 12.6677 22.0212 12.6677 20.8362C12.6677 20.2312 12.9127 19.6725 13.3602 19.2587C13.4902 19.1362 13.5727 18.9637 13.5727 18.7687V7.91249C13.5727 7.22499 14.1315 6.66749 14.8177 6.66749C15.5052 6.66749 16.0615 7.22624 16.0615 7.91249V18.77C16.0615 18.9637 16.1452 19.1375 16.2765 19.2587C16.7227 19.6725 16.969 20.2337 16.969 20.8362C16.969 22.0225 16.004 22.9862 14.819 22.9862L14.8177 22.9875ZM18.7565 10.6C19.0627 10.6 19.3115 10.3512 19.3115 10.045C19.3115 9.73874 19.0627 9.48999 18.7565 9.48999H17.3952V8.78624H18.7577C19.0627 8.78624 19.3115 8.53874 19.3115 8.23124C19.3115 7.92499 19.0627 7.67624 18.7565 7.67624H17.384C17.2652 6.36374 16.159 5.33374 14.8177 5.33374C13.3965 5.33374 12.2402 6.48999 12.2402 7.91124V18.4987C11.6615 19.1362 11.334 19.9725 11.334 20.835C11.334 22.7562 12.8965 24.32 14.8177 24.32C16.739 24.32 18.3015 22.7575 18.3015 20.8362C18.3015 19.9725 17.974 19.1362 17.3952 18.4975V12.4125H18.7577C19.0627 12.4125 19.3115 12.1637 19.3115 11.8575C19.3115 11.55 19.0627 11.3012 18.7565 11.3012H17.3952V10.6H18.7565Z" fill="black"/>
</g>
<defs>
<clipPath id="clip0_547_5716">
<rect width="30" height="30" fill="white"/>
</clipPath>
</defs>
</svg>
