<svg width="20" height="20" viewBox="0 0 20 20" fill="none" xmlns="http://www.w3.org/2000/svg">
<g id="Group 2608017">
<path id="Vector" d="M8.28761 1.02777L0.22545 16.2512C0.0689542 16.546 -0.00846855 16.8763 0.000734416 17.2099C0.00993738 17.5435 0.105452 17.869 0.27796 18.1547C0.450468 18.4404 0.69408 18.6765 0.985029 18.8399C1.27598 19.0034 1.60433 19.0887 1.93806 19.0874H18.0624C18.3961 19.0886 18.7245 19.0032 19.0155 18.8396C19.3064 18.6761 19.55 18.4399 19.7224 18.1541C19.8948 17.8683 19.9902 17.5427 19.9993 17.209C20.0083 16.8754 19.9307 16.545 19.7741 16.2503L11.7137 1.02777C11.5482 0.717318 11.3014 0.457693 10.9998 0.276662C10.6981 0.0956297 10.3529 0 10.0011 0C9.64931 0 9.30412 0.0956297 9.00246 0.276662C8.7008 0.457693 8.45311 0.717318 8.28761 1.02777Z" fill="white"/>
<path id="Vector_2" d="M10.0564 1.8307C10.0776 1.84105 10.0948 1.85795 10.1055 1.87888L18.1686 17.1014C18.1823 17.1286 18.1847 17.1601 18.1754 17.189C18.166 17.2179 18.1456 17.242 18.1186 17.256C18.1012 17.2651 18.0819 17.2697 18.0622 17.2696H1.93702C1.90615 17.2696 1.87649 17.2575 1.85441 17.236C1.83232 17.2144 1.81956 17.185 1.81885 17.1542C1.81885 17.136 1.82339 17.1178 1.83157 17.1014L9.89464 1.87888C9.9066 1.85692 9.92512 1.83925 9.94761 1.82833C9.9701 1.81741 9.99544 1.81379 10.0201 1.81797L10.0564 1.8307Z" fill="#D0021B"/>
<path id="Vector_3" d="M10.0003 8.17944C10.2414 8.17944 10.4726 8.27522 10.6431 8.44569C10.8136 8.61617 10.9094 8.84738 10.9094 9.08847V11.8155C10.9094 12.0566 10.8136 12.2879 10.6431 12.4583C10.4726 12.6288 10.2414 12.7246 10.0003 12.7246C9.75925 12.7246 9.52803 12.6288 9.35756 12.4583C9.18708 12.2879 9.09131 12.0566 9.09131 11.8155V9.08847C9.09131 8.84738 9.18708 8.61617 9.35756 8.44569C9.52803 8.27522 9.75925 8.17944 10.0003 8.17944ZM10.0003 13.6336C10.2414 13.6336 10.4726 13.7294 10.6431 13.8999C10.8136 14.0703 10.9094 14.3015 10.9094 14.5426C10.9094 14.7837 10.8136 15.0149 10.6431 15.1854C10.4726 15.3559 10.2414 15.4517 10.0003 15.4517C9.75925 15.4517 9.52803 15.3559 9.35756 15.1854C9.18708 15.0149 9.09131 14.7837 9.09131 14.5426C9.09131 14.3015 9.18708 14.0703 9.35756 13.8999C9.52803 13.7294 9.75925 13.6336 10.0003 13.6336Z" fill="white"/>
</g>
</svg>
