<svg width="20" height="20" viewBox="0 0 20 20" fill="none" xmlns="http://www.w3.org/2000/svg">
<g id="clock">
<path id="Vector" d="M10.0524 1.61499C14.6541 1.61499 18.3858 5.34582 18.3858 9.94832C18.3858 14.55 14.6541 18.2817 10.0524 18.2817C5.44995 18.2817 1.71912 14.55 1.71912 9.94832C1.71912 5.34582 5.44995 1.61499 10.0524 1.61499ZM10.0524 3.28166C8.28434 3.28166 6.58865 3.98404 5.3384 5.23428C4.08816 6.48452 3.38578 8.18021 3.38578 9.94832C3.38578 11.7164 4.08816 13.4121 5.3384 14.6624C6.58865 15.9126 8.28434 16.615 10.0524 16.615C11.8206 16.615 13.5163 15.9126 14.7665 14.6624C16.0167 13.4121 16.7191 11.7164 16.7191 9.94832C16.7191 8.18021 16.0167 6.48452 14.7665 5.23428C13.5163 3.98404 11.8206 3.28166 10.0524 3.28166ZM10.0524 6.14166C10.2567 6.14171 10.4538 6.21676 10.6063 6.35256C10.7589 6.48837 10.8563 6.67546 10.8799 6.87832L10.8858 6.97499L10.8849 9.43332L13.0916 10.5358C13.2742 10.6272 13.4168 10.7823 13.4925 10.9719C13.5683 11.1614 13.5718 11.3722 13.5024 11.5642L13.4641 11.6542C13.3728 11.8367 13.2176 11.9794 13.0281 12.0551C12.8385 12.1308 12.6278 12.1343 12.4358 12.065L12.3458 12.0267L9.67912 10.6933C9.55646 10.632 9.45084 10.5413 9.37161 10.4294C9.29239 10.3175 9.24201 10.1877 9.22495 10.0517L9.21828 9.94832V6.97499C9.21828 6.75398 9.30608 6.54202 9.46236 6.38573C9.61864 6.22945 9.83144 6.14166 10.0524 6.14166Z" fill="#2C2D91"/>
</g>
</svg>
