<?xml version="1.0" encoding="UTF-8" standalone="no"?>
<svg
   xmlns:dc="http://purl.org/dc/elements/1.1/"
   xmlns:cc="http://creativecommons.org/ns#"
   xmlns:rdf="http://www.w3.org/1999/02/22-rdf-syntax-ns#"
   xmlns:svg="http://www.w3.org/2000/svg"
   xmlns="http://www.w3.org/2000/svg"
   xmlns:sodipodi="http://sodipodi.sourceforge.net/DTD/sodipodi-0.dtd"
   xmlns:inkscape="http://www.inkscape.org/namespaces/inkscape"
   id="Layer_1"
   viewBox="0 0 120 120"
   version="1.1"
   sodipodi:docname="Heat Warning.svg"
   inkscape:version="1.0.1 (c497b03c, 2020-09-10)">
  <metadata
     id="metadata13401">
    <rdf:RDF>
      <cc:Work
         rdf:about="">
        <dc:format>image/svg+xml</dc:format>
        <dc:type
           rdf:resource="http://purl.org/dc/dcmitype/StillImage" />
        <dc:title></dc:title>
      </cc:Work>
    </rdf:RDF>
  </metadata>
  <sodipodi:namedview
     pagecolor="#ffffff"
     bordercolor="#666666"
     borderopacity="1"
     objecttolerance="10"
     gridtolerance="10"
     guidetolerance="10"
     inkscape:pageopacity="0"
     inkscape:pageshadow="2"
     inkscape:window-width="689"
     inkscape:window-height="480"
     id="namedview13399"
     showgrid="false"
     inkscape:zoom="6.95"
     inkscape:cx="60"
     inkscape:cy="60"
     inkscape:window-x="0"
     inkscape:window-y="25"
     inkscape:window-maximized="0"
     inkscape:current-layer="Layer_1" />
  <defs
     id="defs13352">
    <style
       id="style13350">.cls-1{fill:none;}.cls-2{fill:#7d7d7d;}.cls-3{fill:#a0d8ef;}.cls-4{fill:#fff;stroke-width:1.976px;}.cls-4,.cls-5,.cls-6{stroke:#000;stroke-miterlimit:10;}.cls-5{fill:#e9466a;}.cls-6{stroke-width:.5px;}.cls-7{fill:#000;}</style>
  </defs>
  <path
     class="cls-5"
     d="M107.686,12.124H11.314c-4.315,0-7.814,3.498-7.814,7.814V99.31c0,4.315,3.498,7.814,7.814,7.814H107.686c4.315,0,7.814-3.498,7.814-7.814V19.937c0-4.315-3.498-7.814-7.814-7.814Z"
     id="path13354" />
  <path
      class="cls-7"
     d="M69.253,46.705c-.36-.64-1.151-.896-1.818-.589-2.005,.948-4.265,1.216-6.437,.762-2.125-.638-3.984-1.952-5.294-3.743-.473-.626-1.364-.75-1.989-.276s-.75,1.364-.276,1.989l.006,.008c1.727,2.274,4.128,3.944,6.861,4.771,.86,.207,1.741,.31,2.625,.307,1.952-.025,3.88-.443,5.668-1.228,.715-.316,1.038-1.153,.722-1.868-.02-.046-.043-.09-.068-.134h0Z"
     id="path13356" />
  <g
     id="g13366">
    <path
       class="cls-1"
       d="M60.263,87.272l.121,.013c11.355-3.545,19.618-14.157,19.618-26.665,0-15.4-12.526-27.927-27.927-27.927s-27.927,12.526-27.927,27.927,12.526,27.926,27.927,27.926c2.847,0,5.594-.431,8.184-1.226,.002-.016,.001-.032,.003-.049Zm-16.816-25.276c-2.49,0-4.515-2.029-4.515-4.523s2.025-4.523,4.515-4.523,4.515,2.029,4.515,4.523-2.025,4.523-4.515,4.523Zm12.26-4.523c0-2.494,2.025-4.523,4.515-4.523s4.515,2.029,4.515,4.523-2.025,4.523-4.515,4.523-4.515-2.029-4.515-4.523Z"
       id="path13358" />
    <path
        class="cls-7"
       d="M95.376,99.237c-.311-.541-1.661-3.218-4.764-4.773-2.816-1.411-6.151-2.063-9.798-1.927-3.223,.143-5.286,.819-6.943,1.366-1.827,.598-3.031,.992-5.134,.528-1.007-.222-3.104-.683-4.382-2.47-.568-.794-.841-1.663-.962-2.452,11.53-4.533,19.718-15.769,19.718-28.888,0-17.112-13.922-31.034-31.034-31.034s-31.034,13.922-31.034,31.034c0,12.545,7.487,23.368,18.224,28.255-.057,.935-.304,2.069-1.033,3.085-1.275,1.784-3.368,2.249-4.379,2.47-2.1,.464-3.308,.07-5.131-.528-1.657-.546-3.72-1.223-6.946-1.366-3.605-.127-6.973,.516-9.795,1.927-.979,.49-3.199,1.933-4.764,4.77-1.36,2.465-1.514,4.796-1.512,5.958l2.46,1.671c-.022-1.098,.07-3.96,2.007-6.673,.346-.485,1.302-1.996,3.198-2.947,2.349-1.177,5.222-1.733,8.269-1.602,2.798,.124,4.558,.704,6.115,1.214,1.972,.646,3.839,1.253,6.77,.61,1.278-.282,4.267-.941,6.236-3.696,.77-1.075,1.272-2.346,1.496-3.717,3.089,1.033,6.388,1.602,9.82,1.602,2.892,0,5.689-.406,8.347-1.15,.254,1.198,.721,2.311,1.403,3.265,1.972,2.755,4.964,3.414,6.239,3.696,2.943,.646,4.804,.036,6.773-.61,1.557-.51,3.317-1.089,6.111-1.211,3.053-.164,5.92,.422,8.272,1.599,1.906,.954,2.864,2.48,3.198,2.95,2.136,3.002,2.044,6.236,1.962,7.338l2.621,.069c.158-1.232,.445-4.763-1.627-8.362ZM24.15,60.62c0-15.4,12.526-27.927,27.927-27.927s27.927,12.526,27.927,27.927c0,12.508-8.264,23.12-19.618,26.665l-.121-.013c-.002,.016-.002,.032-.003,.049-2.589,.795-5.337,1.226-8.184,1.226-15.4,0-27.927-12.526-27.927-27.926Z"
       id="path13360" />
    <ellipse
        class="cls-7"
       cx="60.222"
       cy="57.473"
       rx="4.515"
       ry="4.523"
       id="ellipse13362" />
    <path
        class="cls-7"
       d="M43.447,52.95c-2.49,0-4.515,2.029-4.515,4.523s2.025,4.523,4.515,4.523,4.515-2.029,4.515-4.523-2.025-4.523-4.515-4.523Z"
       id="path13364" />
  </g>
  <path
      class="cls-7"
     d="M33.453,46.705c.36-.64,1.151-.896,1.818-.589,2.005,.948,4.265,1.216,6.437,.762,2.125-.638,3.984-1.952,5.294-3.743,.473-.626,1.364-.75,1.989-.276s.75,1.364,.276,1.989l-.006,.008c-1.727,2.274-4.128,3.944-6.861,4.771-.86,.207-1.741,.31-2.625,.307-1.952-.025-3.88-.443-5.668-1.228-.715-.316-1.038-1.153-.722-1.868,.02-.046,.043-.09,.068-.134h0Z"
     id="path13368" />
  <path
     class="cls-3"
     d="M31.759,56.157l-.015,.176-.015-.176c-3.951,4.603-5.838,9.156-4.675,11.733,.692,1.534,1.888,2.18,1.888,2.18,.429,.234,1.417,.701,2.77,.708,1.389,.007,2.404-.474,2.833-.708h.001c.043-.025,1.208-.675,1.887-2.18,1.163-2.577-.724-7.13-4.675-11.733Z"
     id="path13370" />
  <path
     class="cls-3"
     d="M72.308,56.157l-.015,.176-.015-.176c-3.951,4.603-5.838,9.156-4.675,11.733,.692,1.534,1.888,2.18,1.888,2.18,.429,.234,1.417,.701,2.77,.708,1.389,.007,2.404-.474,2.833-.708h.001c.043-.025,1.208-.675,1.887-2.18,1.163-2.577-.724-7.13-4.675-11.733Z"
     id="path13372" />
  <path
      class="cls-7"
     d="M35.863,80.481c-.158,0-.319-.024-.476-.076-.816-.261-1.265-1.138-1.001-1.954,1.997-6.203,6.84-10.824,12.633-12.062,8.208-1.76,16.875,3.393,20.146,11.986,.303,.801-.1,1.699-.901,2.006-.801,.294-1.699-.1-2.006-.901-2.722-7.168-9.835-11.501-16.59-10.05-4.71,1.004-8.667,4.828-10.326,9.974-.212,.658-.822,1.077-1.478,1.077Z"
     id="path13374" />
  <path
     class="cls-4"
     d="M107.254,73.215V24.107c0-3.328-2.723-6.051-6.051-6.051s-6.051,2.723-6.051,6.051v49.108c-3.678,2.105-6.163,6.059-6.163,10.6,0,6.746,5.468,12.214,12.214,12.214s12.214-5.468,12.214-12.214c0-4.542-2.484-8.496-6.163-10.6Z"
     id="path13376" />
  <g
     id="g13384">
    <circle
       class="cls-2"
       cx="101.203"
       cy="83.794"
       r="8.742"
       id="circle13378" />
    <rect
       class="cls-2"
       x="98.744"
       y="24.45"
       width="4.918"
       height="53.491"
       id="rect13380" />
    <circle
       class="cls-2"
       cx="101.203"
       cy="24.45"
       r="2.459"
       id="circle13382" />
  </g>
  <path
      class="cls-7"
     d="M37.826,96.322c2.446,1.148,6.623,2.713,11.987,2.836,7.854,.18,13.67-2.836,16.151-4.322l5.47,1.068,13.31-1.593c2.437,1.187,4.874,2.375,7.311,3.562,1,1.343,2,2.687,2.999,4.03,.156,1.625,.312,3.249,.469,4.874-28.069,.116-56.139,.232-84.208,.347l-3.997-1.475c.036-1.145,.242-2.979,1.182-4.965,.17-.36,2.252-4.598,6.857-6.384,2.704-1.049,4.548-.581,12.295,.591,4.465,.676,8.043,1.154,10.175,1.431Z"
     id="path13386" />
  <g
     id="g13394">
    <path
       class="cls-6, cls-7"
       d="M75.911,40.405v-5.544c0-11.362-11.062-20.606-24.659-20.606s-24.659,9.244-24.659,20.606v5.544c0,.018,.002,.035,.003,.052-.004,.055-.003,.109,.002,.164l1.34,11.983c.036,.324,.239,.619,.557,.808,.317,.189,.717,.253,1.096,.176l9.276-1.891h0c8.139-1.651,16.631-1.651,24.771,0l9.276,1.891h0c.379,.077,.778,.013,1.096-.176,.317-.189,.52-.484,.557-.808l1.34-11.983c.006-.055,.007-.109,.002-.164,.001-.018,.003-.035,.003-.052h0Z"
       id="path13388" />
    <path
       class="cls-5"
       d="M72.041,51.105l-7.769-1.583h0c-8.556-1.736-17.484-1.736-26.04,0l-7.769,1.583-1.087-9.716,10.165-1.953c7.707-1.471,15.712-1.471,23.419,0l10.166,1.953-1.086,9.715Z"
       id="path13390" />
    <path
       class="cls-5"
       d="M63.563,37.254c-8.103-1.547-16.518-1.547-24.621,0l-9.668,1.857v-4.249c0-10.127,9.86-18.367,21.98-18.367s21.98,8.239,21.98,18.367v4.249l-9.669-1.857Z"
       id="path13392" />
  </g>
  <path
     class="cls-6, cls-7"
     d="M57.388,23.755c0-.25-.099-.491-.276-.668s-.417-.276-.668-.276h-10.383c-.521,0-.944,.423-.944,.944v5.569c0,.25,.099,.491,.276,.668s.417,.276,.668,.276h10.383c.25,0,.491-.099,.668-.276s.276-.417,.276-.668v-5.569Zm-1.888,4.625h-8.496v-3.681h8.496v3.681Z"
     id="path13396" />
</svg>
