<?xml version="1.0" encoding="UTF-8" standalone="no"?>
<svg
   xmlns:dc="http://purl.org/dc/elements/1.1/"
   xmlns:cc="http://creativecommons.org/ns#"
   xmlns:rdf="http://www.w3.org/1999/02/22-rdf-syntax-ns#"
   xmlns:svg="http://www.w3.org/2000/svg"
   xmlns="http://www.w3.org/2000/svg"
   xmlns:sodipodi="http://sodipodi.sourceforge.net/DTD/sodipodi-0.dtd"
   xmlns:inkscape="http://www.inkscape.org/namespaces/inkscape"
   viewBox="0 0 120 120"
   version="1.1"
   id="svg6598"
   sodipodi:docname="High Surf Warning.svg"
   inkscape:version="1.0.1 (c497b03c, 2020-09-10)">
  <metadata
     id="metadata6602">
    <rdf:RDF>
      <cc:Work
         rdf:about="">
        <dc:format>image/svg+xml</dc:format>
        <dc:type
           rdf:resource="http://purl.org/dc/dcmitype/StillImage" />
        <dc:title></dc:title>
      </cc:Work>
    </rdf:RDF>
  </metadata>
  <sodipodi:namedview
     pagecolor="#ffffff"
     bordercolor="#666666"
     borderopacity="1"
     objecttolerance="10"
     gridtolerance="10"
     guidetolerance="10"
     inkscape:pageopacity="0"
     inkscape:pageshadow="2"
     inkscape:window-width="1736"
     inkscape:window-height="792"
     id="namedview6600"
     showgrid="false"
     inkscape:zoom="6.95"
     inkscape:cx="63.741007"
     inkscape:cy="45.467626"
     inkscape:window-x="0"
     inkscape:window-y="25"
     inkscape:window-maximized="0"
     inkscape:current-layer="svg6598" />
  <defs
     id="defs6587">
    <style
       id="style6585">.cls-1{fill:red;}.cls-2{fill:#20bce5;}.cls-3{mix-blend-mode:overlay;}.cls-4{fill:#000}</style>
  </defs>
  <g
     class="cls-4"
     id="g6596">
    <g
       id="Layer_1">
      <path
         class="cls-2"
         d="M54.546,68.462c-.655-7.306,2.148-19.823,12.356-24.675,8.764-4.165,17.858-.243,19.645,.568-.283-2.088-2.118-14.228-12.428-20.612-11.838-7.33-25.591-1.22-28.344,0-9.014,3.995-9.978,8.996-20.314,16.191-8.665,6.032-14.812,8.545-20.537,10.005,.1,12.51,.199,37.747,.299,50.257,32.132-.114,61.947,.108,94.079-.006-25.493-2.524-43.408-16.684-44.757-31.729Zm-14.346,23.115h-9.117v-8.811h9.117v8.811Zm.213-33.4l-2.47,20.96h-4.543l-2.531-20.96v-11.392h9.544v11.392Z"
         id="path6589" />
      <polygon
         class="cls-1"
         points="105.255 13.251 97.465 26.744 102.606 26.744 102.606 45.34 107.903 45.34 107.903 26.744 113.045 26.744 105.255 13.251"
         id="polygon6591" />
      <path
         class="cls-3"
         d="M105.412,48.39c-2.389,0-4.334,1.945-4.334,4.334s1.945,4.316,4.334,4.316,4.334-1.927,4.334-4.316-1.945-4.334-4.334-4.334Zm-5.204,9.36c-2.849,.338-4.458,3.1-4.458,5.684v13.357c0,2.499,3.458,2.458,3.464-.036,0-4.265-.018-7.615-.018-12.06,0-.288,.227-.515,.515-.515s.515,.227,.515,.515c.045,10.939-.018,21.283-.018,32.522,0,1.286,1.035,2.327,2.327,2.327s2.339-1.035,2.345-2.327v-19.04c0-.288,.227-.515,.515-.515s.515,.227,.515,.515v19.04c0,1.286,1.053,2.327,2.345,2.327s2.327-1.035,2.327-2.327c.011-12.163,0-20.9,0-32.522,0-.288,.227-.515,.515-.515s.533,.227,.533,.515c.006,4.186-.018,8.156-.018,12.06,0,2.499,3.464,2.54,3.464,.036v-13.357c0-2.764-1.829-5.684-5.062-5.684h-9.804Z"
         id="path6593" />
    </g>
  </g>
</svg>
