<?xml version="1.0" encoding="UTF-8" standalone="no"?>
<svg
   xmlns:dc="http://purl.org/dc/elements/1.1/"
   xmlns:cc="http://creativecommons.org/ns#"
   xmlns:rdf="http://www.w3.org/1999/02/22-rdf-syntax-ns#"
   xmlns:svg="http://www.w3.org/2000/svg"
   xmlns="http://www.w3.org/2000/svg"
   xmlns:sodipodi="http://sodipodi.sourceforge.net/DTD/sodipodi-0.dtd"
   xmlns:inkscape="http://www.inkscape.org/namespaces/inkscape"
   id="Layer_1"
   viewBox="0 0 120 120"
   version="1.1"
   sodipodi:docname="High Humidity Advisory.svg"
   inkscape:version="1.0.1 (c497b03c, 2020-09-10)">
  <metadata
     id="metadata14036">
    <rdf:RDF>
      <cc:Work
         rdf:about="">
        <dc:format>image/svg+xml</dc:format>
        <dc:type
           rdf:resource="http://purl.org/dc/dcmitype/StillImage" />
        <dc:title></dc:title>
      </cc:Work>
    </rdf:RDF>
  </metadata>
  <sodipodi:namedview
     pagecolor="#ffffff"
     bordercolor="#666666"
     borderopacity="1"
     objecttolerance="10"
     gridtolerance="10"
     guidetolerance="10"
     inkscape:pageopacity="0"
     inkscape:pageshadow="2"
     inkscape:window-width="689"
     inkscape:window-height="480"
     id="namedview14034"
     showgrid="false"
     inkscape:zoom="6.95"
     inkscape:cx="60"
     inkscape:cy="60"
     inkscape:window-x="0"
     inkscape:window-y="25"
     inkscape:window-maximized="0"
     inkscape:current-layer="Layer_1" />
  <defs
     id="defs14025">
    <style
       id="style14023">.cls-1{fill:#20bce5;}.cls-2{fill:#2c2cb7;}.cls-3{fill:#000;}</style>
  </defs>
  <path
     class="cls-2"
     d="M71.066,26.788c-4.605,7.947-13.378,23.28-21.92,39.254-1.28,2.394-3.664,6.851-3.599,12.737,.044,3.973,1.112,7.835,3.174,11.48,4.642,8.201,13.306,13.097,23.176,13.097s18.538-4.895,23.179-13.094c2.058-3.636,3.126-7.489,3.173-11.453,.071-5.899-2.318-10.367-3.602-12.768-7.431-13.899-19.034-32.183-23.581-39.252h0Z"
     id="path14027" />
  <path
      class="cls-3"
     d="M25.9,28.441c-1.315,1.321-2.911,1.981-4.79,1.981-1.865,0-3.459-.66-4.78-1.981-1.32-1.321-1.98-2.914-1.98-4.78s.66-3.459,1.98-4.78c1.321-1.321,2.915-1.981,4.78-1.981s3.46,.66,4.78,1.981c1.321,1.321,1.981,2.915,1.981,4.78s-.657,3.459-1.972,4.78Zm-2.745-2.735c.563-.563,.846-1.245,.846-2.045s-.282-1.481-.846-2.045-1.245-.845-2.045-.845-1.48,.282-2.044,.845-.846,1.245-.846,2.045,.282,1.481,.846,2.045,1.245,.845,2.044,.845,1.481-.282,2.045-.845Zm12.732-8.934h2.752l-14.68,27.046h-2.812l14.74-27.046Zm7.67,24.901c-1.32,1.321-2.914,1.981-4.78,1.981s-3.459-.66-4.78-1.981c-1.32-1.32-1.98-2.914-1.98-4.78,0-1.878,.66-3.474,1.98-4.789,1.321-1.315,2.914-1.972,4.78-1.972s3.46,.661,4.78,1.981c1.321,1.321,1.981,2.915,1.981,4.78s-.66,3.46-1.981,4.78Zm-2.735-6.825c-.563-.563-1.245-.845-2.045-.845s-1.481,.281-2.044,.845c-.563,.563-.846,1.245-.846,2.045s.282,1.481,.846,2.045c.562,.563,1.244,.845,2.044,.845s1.481-.282,2.045-.845,.846-1.245,.846-2.045-.282-1.481-.846-2.045Z"
     id="path14029" />
  <path
     class="cls-1"
     d="M71.897,4.916L38.81,59.993c-14.807,24.663,3.492,55.406,33.087,55.406s47.895-30.743,33.087-55.406L71.897,4.916h0Zm0,100.439c-10.601,0-19.916-5.275-24.917-14.111-2.244-3.965-3.387-8.2-3.434-12.443-.068-6.236,2.371-10.963,3.835-13.702,10.508-19.65,21.354-38.294,23.593-42.135,1.441,2.213,16.45,25.324,25.436,42.132,1.474,2.756,3.913,7.488,3.838,13.735-.051,4.234-1.194,8.459-3.433,12.414-5,8.834-14.316,14.109-24.919,14.109h0Z"
     id="path14031" />
</svg>
