<?xml version="1.0" encoding="UTF-8" standalone="no"?>
<svg
   xmlns:dc="http://purl.org/dc/elements/1.1/"
   xmlns:cc="http://creativecommons.org/ns#"
   xmlns:rdf="http://www.w3.org/1999/02/22-rdf-syntax-ns#"
   xmlns:svg="http://www.w3.org/2000/svg"
   xmlns="http://www.w3.org/2000/svg"
   xmlns:sodipodi="http://sodipodi.sourceforge.net/DTD/sodipodi-0.dtd"
   xmlns:inkscape="http://www.inkscape.org/namespaces/inkscape"
   version="1.1"
   id="Layer_1"
   x="0px"
   y="0px"
   viewBox="0 0 120 120"
   style="enable-background:new 0 0 120 120;"
   xml:space="preserve"
   sodipodi:docname="Hurricane Warning Discontinuation.svg"
   inkscape:version="1.0.1 (c497b03c, 2020-09-10)"><metadata
   id="metadata846"><rdf:RDF><cc:Work
       rdf:about=""><dc:format>image/svg+xml</dc:format><dc:type
         rdf:resource="http://purl.org/dc/dcmitype/StillImage" /><dc:title></dc:title></cc:Work></rdf:RDF></metadata><defs
   id="defs844" /><sodipodi:namedview
   pagecolor="#ffffff"
   bordercolor="#666666"
   borderopacity="1"
   objecttolerance="10"
   gridtolerance="10"
   guidetolerance="10"
   inkscape:pageopacity="0"
   inkscape:pageshadow="2"
   inkscape:window-width="1299"
   inkscape:window-height="671"
   id="namedview842"
   showgrid="false"
   inkscape:zoom="5.5666667"
   inkscape:cx="60"
   inkscape:cy="60"
   inkscape:window-x="0"
   inkscape:window-y="25"
   inkscape:window-maximized="0"
   inkscape:current-layer="Layer_1" />
<style
   type="text/css"
   id="style833">
	.st0{fill:#FFFFFF;}
	.st1{fill:#E62439;stroke:#000000;stroke-miterlimit:10;}
</style>
<g
   id="BG">
	<rect
   y="0"
   class="st0"
   width="120"
   height="120"
   id="rect835" />
</g>
<g
   id="Layer_3">
	<path
   class="st1"
   d="M105.7,37.3C95.1,27.7,82.8,24.5,74,23.4c-2.1-1.1-5.6-3.2-5.9-6.3c-0.5-4.4,5.7-10.4,16.2-11.4   c-5.2-0.3-12.1,0-19.8,2.5C51,12.7,42,21.7,36.7,28.8c-2,1.3-5.6,3.2-8.4,1.9c-4-1.8-6.1-10.1-1.8-19.7c-2.8,4.3-6,10.5-7.7,18.4   c-3,14,0.4,26.3,3.8,34.4c0.1,2.3,0,6.4-2.5,8.2c-3.6,2.6-11.8,0.2-18-8.3c2.3,4.6,6.1,10.5,12.1,15.9C24.9,89.1,37.2,92.4,46,93.4   c2.1,1.1,5.6,3.2,5.9,6.3c0.5,4.4-5.7,10.3-16.2,11.4c5.2,0.3,12.1,0,19.8-2.5C69,104.1,78,95.1,83.3,88.1c2-1.3,5.6-3.2,8.4-1.9   c4,1.8,6.1,10.1,1.8,19.7c2.8-4.3,6-10.5,7.7-18.4c3-14-0.4-26.3-3.8-34.4c-0.1-2.3,0-6.4,2.5-8.2c3.6-2.6,11.8-0.2,18,8.3   C115.5,48.6,111.7,42.7,105.7,37.3L105.7,37.3z"
   id="path838" />
</g>
</svg>
