<?xml version="1.0" encoding="UTF-8" standalone="no"?>
<svg
   xmlns:dc="http://purl.org/dc/elements/1.1/"
   xmlns:cc="http://creativecommons.org/ns#"
   xmlns:rdf="http://www.w3.org/1999/02/22-rdf-syntax-ns#"
   xmlns:svg="http://www.w3.org/2000/svg"
   xmlns="http://www.w3.org/2000/svg"
   xmlns:sodipodi="http://sodipodi.sourceforge.net/DTD/sodipodi-0.dtd"
   xmlns:inkscape="http://www.inkscape.org/namespaces/inkscape"
   id="Layer_3"
   viewBox="0 0 120 120"
   version="1.1"
   sodipodi:docname="Severe Weather Alert.svg"
   inkscape:version="1.0.1 (c497b03c, 2020-09-10)">
  <metadata
     id="metadata2255">
    <rdf:RDF>
      <cc:Work
         rdf:about="">
        <dc:format>image/svg+xml</dc:format>
        <dc:type
           rdf:resource="http://purl.org/dc/dcmitype/StillImage" />
        <dc:title></dc:title>
      </cc:Work>
    </rdf:RDF>
  </metadata>
  <sodipodi:namedview
     pagecolor="#ffffff"
     bordercolor="#666666"
     borderopacity="1"
     objecttolerance="10"
     gridtolerance="10"
     guidetolerance="10"
     inkscape:pageopacity="0"
     inkscape:pageshadow="2"
     inkscape:window-width="1331"
     inkscape:window-height="675"
     id="namedview2253"
     showgrid="false"
     inkscape:zoom="6.95"
     inkscape:cx="60"
     inkscape:cy="60"
     inkscape:window-x="0"
     inkscape:window-y="25"
     inkscape:window-maximized="0"
     inkscape:current-layer="Layer_3" />
  <defs
     id="defs2242">
    <style
       id="style2240">.cls-1{fill:#ffde14;}.cls-2{fill:#000;}</style>
  </defs>
  <g
     id="g2248">
    <path
       class="cls-1"
       d="M55.386,16.36L12.37,93.715c-2.054,3.694,.617,8.235,4.843,8.235H103.245c4.227,0,6.897-4.541,4.843-8.235L65.072,16.36c-2.112-3.798-7.575-3.798-9.687,0Z"
       id="path2244" />
    <path
        class="cls-2"
       d="M103.245,102.95H17.213c-2.344,0-4.451-1.206-5.639-3.226s-1.217-4.447-.078-6.495L54.512,15.874c1.171-2.106,3.309-3.363,5.718-3.363s4.546,1.257,5.717,3.363l43.016,77.355c1.139,2.048,1.109,4.476-.078,6.495s-3.295,3.226-5.639,3.226ZM56.26,16.846L13.244,94.202c-.791,1.421-.771,3.106,.054,4.509s2.288,2.239,3.915,2.239H103.245c1.627,0,3.091-.837,3.915-2.239s.845-3.088,.054-4.509L64.198,16.846c-.812-1.462-2.297-2.334-3.969-2.334s-3.157,.873-3.97,2.334h0Z"
       id="path2246" />
  </g>
  <path
      class="cls-2"
     d="M54.682,39.156h11.094v13.242l-2.871,24.363h-5.281l-2.942-24.363v-13.242Zm.249,41.822h10.597v10.242h-10.597v-10.242Z"
     id="path2250" />
</svg>
