<?xml version="1.0" encoding="UTF-8" standalone="no"?>
<svg
   xmlns:dc="http://purl.org/dc/elements/1.1/"
   xmlns:cc="http://creativecommons.org/ns#"
   xmlns:rdf="http://www.w3.org/1999/02/22-rdf-syntax-ns#"
   xmlns:svg="http://www.w3.org/2000/svg"
   xmlns="http://www.w3.org/2000/svg"
   xmlns:sodipodi="http://sodipodi.sourceforge.net/DTD/sodipodi-0.dtd"
   xmlns:inkscape="http://www.inkscape.org/namespaces/inkscape"
   id="Layer_1"
   viewBox="0 0 120 120"
   version="1.1"
   sodipodi:docname="Strong Wind and Large Wave Warning.svg"
   inkscape:version="1.0.1 (c497b03c, 2020-09-10)">
  <metadata
     id="metadata5986">
    <rdf:RDF>
      <cc:Work
         rdf:about="">
        <dc:format>image/svg+xml</dc:format>
        <dc:type
           rdf:resource="http://purl.org/dc/dcmitype/StillImage" />
        <dc:title></dc:title>
      </cc:Work>
    </rdf:RDF>
  </metadata>
  <sodipodi:namedview
     pagecolor="#ffffff"
     bordercolor="#666666"
     borderopacity="1"
     objecttolerance="10"
     gridtolerance="10"
     guidetolerance="10"
     inkscape:pageopacity="0"
     inkscape:pageshadow="2"
     inkscape:window-width="1675"
     inkscape:window-height="815"
     id="namedview5984"
     showgrid="false"
     inkscape:zoom="6.95"
     inkscape:cx="47.05036"
     inkscape:cy="51.366906"
     inkscape:window-x="0"
     inkscape:window-y="25"
     inkscape:window-maximized="0"
     inkscape:current-layer="Layer_1" />
  <defs
     id="defs5961">
    <style
       id="style5959">.cls-1{fill:#c1272d;}.cls-2{fill:#42210b;}.cls-3{fill:#754c24;}.cls-4{fill:#006837;isolation:isolate;}</style>
  </defs>
  <path
     class="cls-2"
     d="M106.36,107.565H14.123c-.691,0-1.25-.559-1.25-1.25s.559-1.25,1.25-1.25H106.36c.691,0,1.25,.559,1.25,1.25s-.559,1.25-1.25,1.25Z"
     id="path5963" />
  <path
     class="cls-4"
     d="M101.824,53.981c-1.866,.825-2.392,3.099-2.442,3.332-.503,2.328,.904,3.585,1.961,6.46,.228,.62,2.978,8.388-.185,13.837-.9,1.551-1.008,3.351-1.91,4.926-.451,.788,.309,1.685,1.161,1.395,2.675-.903,5.268-2.547,7.559-5.461,3.858-4.894,5.264-11.505,2.989-17.315-.614-1.568-1.318-2.659-1.318-2.659-.419-.671-.839-1.343-1.258-2.014-1.076-1.722-4.192-3.547-6.556-2.502Z"
     id="path5965" />
  <path
     class="cls-4"
     d="M103.245,41.2l1-1.981s.563-1.076,1.002-2.588c1.627-5.604-.237-11.651-4.236-15.893-2.376-2.527-4.925-3.845-7.489-4.465-.816-.2-1.448,.699-.962,1.396,.92,1.352,1.665,2.834,2.191,4.434,1.348,4.098,.869,8.498,.036,11.465-.536,1.909-1.259,3.453-1.893,4.597-1.023,3.985,1.698,7.517,4.63,7.754,2.343,.19,4.939-1.716,5.72-4.719Z"
     id="path5967" />
  <path
     class="cls-1"
     d="M25.489,25.677c-1.208,0-2.191-.983-2.191-2.191s.983-2.191,2.191-2.191H59.199c.591-.003,1.153-.24,1.576-.667,.422-.427,.653-.994,.649-1.595-.003-.601-.24-1.165-.67-1.59-.422-.417-.983-.648-1.578-.648l-.188-.012c-.013,.002-.189,.021-.491,.116-.529,.178-1.124,.132-1.646-.134-.521-.266-.922-.738-1.099-1.297-.36-1.16,.284-2.39,1.435-2.751,.686-.213,1.381-.273,1.91-.302h.009c1.834,0,3.485,.681,4.732,1.915,1.26,1.245,1.96,2.907,1.97,4.678,.011,1.771-.671,3.44-1.918,4.701s-2.908,1.96-4.678,1.971H25.489ZM57.605,14.034l-.03,.009,.03-.009Z"
     id="path5969" />
  <path
     class="cls-1"
     d="M21.66,35.873h0c-1.208,0-2.191-.983-2.191-2.191s.983-2.191,2.191-2.191H55.309c.531-.055,1.015-.497,1.135-1.043,.256-1.174,1.391-1.911,2.578-1.678,.601,.13,1.09,.47,1.406,.963s.422,1.081,.296,1.653c-.542,2.471-2.684,4.314-5.208,4.482l-33.855,.005Zm37.714-4.786v0Z"
     id="path5971" />
  <path
     class="cls-1"
     d="M17.362,45.635h0c-1.209,0-2.192-.983-2.192-2.191s.983-2.191,2.192-2.191H51.01c.541-.057,1.015-.494,1.136-1.053,.119-.566,.458-1.057,.952-1.375,.486-.315,1.088-.427,1.654-.302,1.172,.25,1.929,1.416,1.679,2.597-.537,2.487-2.679,4.34-5.21,4.512l-.102,.003H17.362Zm37.717-4.807l-.002,.009,.002-.009Z"
     id="path5973" />
  <path
     class="cls-1"
     d="M12.937,55.732h0c-1.208,0-2.191-.983-2.191-2.191s.983-2.191,2.191-2.191H46.584c.541-.057,1.015-.493,1.135-1.052,.122-.57,.462-1.06,.956-1.378,.487-.314,1.089-.424,1.652-.301,.565,.121,1.057,.459,1.375,.951,.317,.491,.424,1.077,.302,1.649-.536,2.484-2.678,4.337-5.208,4.509l-.102,.003H12.937Zm37.716-4.804v0Z"
     id="path5975" />
  <path
     class="cls-1"
     d="M8.937,65.83h0c-1.208,0-2.191-.983-2.191-2.191,0-2.191,2.624-2.191,4.191-2.191H43.252c.023-.044,.047-.087,.068-.129,.157-.294,.335-.627,.398-.923,.122-.57,.462-1.06,.956-1.378,.487-.314,1.088-.424,1.652-.301,.566,.121,1.057,.459,1.375,.952,.316,.491,.424,1.076,.302,1.648-.536,2.484-2.678,4.337-5.208,4.509l-.102,.004H8.937Zm37.716-4.804v0Z"
     id="path5977" />
  <path
     class="cls-3"
     d="M75.183,52.878c1.225,3.692,2.45,7.385,3.675,11.077-3.815,.651-10.621,2.345-17.377,7.368-3.772,2.804-9.024,6.678-11.328,13.8-3.134,9.687,1.174,18.138,2.145,19.942h-1.509c-4.241,0-8.481,0-12.722,0-.637-1.852-1.381-4.506-1.716-7.754h0c0-10,3.076-19.157,6.024-24.316,5.511-9.646,17.691-17.778,32.807-20.117Z"
     id="path5979" />
  <path
     class="cls-4"
     d="M96.784,68.457c-.834-7.5-4.862-12.856-7.778-15.859l.638-2.141s.415-1.321,.598-3.086c.679-6.542-2.694-12.66-8.113-16.253-3.22-2.141-6.386-2.918-9.423-2.93-.967-.006-1.496,1.14-.8,1.775,1.324,1.238,2.478,2.662,3.408,4.273,1.687,2.921,2.389,6.235,2.508,9.293-1.695-1.052-3.237-1.872-4.527-2.493-4.367-2.101-8.131-3.404-11.541-2.284-1.593,.523-2.841,1.308-3.825,2.221-.678,.626-.217,1.798,.713,1.758,3.792-.163,6.38,1.836,9.461,3.74,1.524,.942,3.335,2.91,4.184,7.515,.153,1.005,.437,2.511,.999,4.285,.545,1.719,.914,2.31,1.282,3.336,1.367,3.81,.604,7.51,.352,8.137-1.513,3.767-2.629,6.341-5.975,8.276-.797,.461-.564,1.691,.34,1.853,1.335,.248,2.814,.22,4.453-.2,4.059-1.04,7.493-4.08,8.473-8.14,.637-2.658,.278-5.323-.862-7.605,1.74,2.128,3.149,4.752,4.065,7.924,1.979,6.746,.834,12.554-2.123,17.053-.549,.85,.198,1.937,1.177,1.678,2.7-.722,5.365-2.17,7.847-4.846,2.908-3.135,5.269-10.106,4.471-17.28Z"
     id="path5981" />
</svg>
