<?xml version="1.0" encoding="UTF-8" standalone="no"?>
<svg
   xmlns:dc="http://purl.org/dc/elements/1.1/"
   xmlns:cc="http://creativecommons.org/ns#"
   xmlns:rdf="http://www.w3.org/1999/02/22-rdf-syntax-ns#"
   xmlns:svg="http://www.w3.org/2000/svg"
   xmlns="http://www.w3.org/2000/svg"
   xmlns:sodipodi="http://sodipodi.sourceforge.net/DTD/sodipodi-0.dtd"
   xmlns:inkscape="http://www.inkscape.org/namespaces/inkscape"
   id="Layer_1"
   viewBox="0 0 120 120"
   version="1.1"
   sodipodi:docname="Strong Wind and Large Waves Advisory.svg"
   inkscape:version="1.0.1 (c497b03c, 2020-09-10)">
  <metadata
     id="metadata5360">
    <rdf:RDF>
      <cc:Work
         rdf:about="">
        <dc:format>image/svg+xml</dc:format>
        <dc:type
           rdf:resource="http://purl.org/dc/dcmitype/StillImage" />
        <dc:title></dc:title>
      </cc:Work>
    </rdf:RDF>
  </metadata>
  <sodipodi:namedview
     pagecolor="#ffffff"
     bordercolor="#666666"
     borderopacity="1"
     objecttolerance="10"
     gridtolerance="10"
     guidetolerance="10"
     inkscape:pageopacity="0"
     inkscape:pageshadow="2"
     inkscape:window-width="1390"
     inkscape:window-height="745"
     id="namedview5358"
     showgrid="false"
     inkscape:zoom="6.95"
     inkscape:cx="60"
     inkscape:cy="60"
     inkscape:window-x="0"
     inkscape:window-y="25"
     inkscape:window-maximized="0"
     inkscape:current-layer="Layer_1" />
  <defs
     id="defs5339">
    <style
       id="style5337">.cls-1{fill:#c1272d;}.cls-2{fill:#42210b;}.cls-3{fill:#754c24;}.cls-4{fill:#006837;isolation:isolate;}</style>
  </defs>
  <path
     class="cls-3"
     d="M78.044,43.92c2.112,3.551,4.223,7.102,6.335,10.654-2.164,.358-17.835,3.223-26.629,18.225-9.357,15.961-3.183,30.479-2.438,32.266h-14.231c-.962-5.114-2.61-17.22,4.308-32.07,9.624-20.657,28.902-27.772,32.655-29.075Z"
     id="path5341" />
  <path
     class="cls-2"
     d="M106.36,107.565H14.123c-.691,0-1.25-.559-1.25-1.25s.559-1.25,1.25-1.25H106.36c.691,0,1.25,.559,1.25,1.25s-.559,1.25-1.25,1.25Z"
     id="path5343" />
  <path
     class="cls-4"
     d="M83.789,32.706c.468,.031,1.151,.018,1.902-.236,2.036-.687,3.025-2.612,3.556-3.684,2.669-5.383,.852-12.335-.198-15.749,0,0-1.287-4.432-3.977-6.379-.18-.13-.645-.466-1.313-.539-.831-.09-1.62,.254-1.943,.552-1.407,1.298,1.036,4.07,.783,8.332-.205,3.453-2.132,7.051-2.565,7.862-.628,1.173-1.69,2.877-1.266,4.862,.166,.776,.52,1.297,.704,1.684,.932,1.965,3.013,2.875,4.317,3.295Z"
     id="path5345" />
  <path
     class="cls-4"
     d="M77.764,32.122c-.636-1.24-1.744-3.041-3.6-4.718-5.368-4.851-12.923-4.994-17.482-3.63-3.608,1.08-6.129,2.917-7.98,5.11-.591,.697-.027,1.75,.886,1.617,5.431-.726,11.248,.766,16.509,5.587,2.442,2.243,4.174,4.663,5.318,7.149-1.538-2.013-3.782-3.522-6.434-4.129-4.094-.896-8.345,.83-11.058,4.017-1.092,1.272-1.754,2.589-2.124,3.88-.256,.887,.744,1.651,1.519,1.136,3.16-2.102,6.41-1.73,10.031-1.695,1.792,.017,4.36,.764,7.468,4.266,.651,.781,1.673,1.923,3.072,3.15,1.356,1.189,1.978,1.504,2.824,2.191,3.141,2.553,4.402,6.114,4.511,6.781,.654,4.007,1.031,6.786-.831,10.173-.444,.807,.392,1.739,1.25,1.41,1.27-.478,2.522-1.268,3.707-2.475,2.935-2.99,4.301-7.369,3.039-11.349-.83-2.604-2.516-4.699-4.673-6.062,2.59,.921,5.154,2.437,7.579,4.678,5.184,4.749,7.209,10.312,7.007,15.692-.03,1.012,1.172,1.555,1.875,.827,1.937-2.015,3.468-4.633,4.208-8.207,1.288-6.208-.412-12.862-5.115-17.1-1.527-1.374-3.232-2.426-5.016-3.176,.18,.024,.358,.049,.549,.093,6.64,1.261,11.206,4.7,13.922,9.13,.621,1.033,2.254,.728,2.452-.465,.403-2.334,.303-4.871-.594-7.688h0c-1.53-2.764-6.875-11.79-14.061-12.712-4.125-.529-7.232-.139-7.232-.139-3.438,.432-4.942,1.364-7.069,.736-2.242-.662-3.642-2.603-4.457-4.077Z"
     id="path5347" />
  <path
     class="cls-1"
     d="M22.159,45.822c-1.172,0-2.125-.953-2.125-2.125s.953-2.125,2.125-2.125h21.432c.495-.003,.968-.202,1.324-.562,.353-.358,.547-.834,.544-1.339-.003-.504-.202-.978-.562-1.334-.354-.351-.826-.545-1.326-.545l-.189-.012c.012,.004-.136,.023-.383,.1-.514,.17-1.09,.126-1.597-.132-.505-.258-.894-.716-1.064-1.258-.349-1.122,.275-2.315,1.39-2.666,.64-.199,1.278-.253,1.765-.28h.009c1.702,0,3.23,.63,4.386,1.772,1.167,1.154,1.814,2.692,1.823,4.331,.02,3.385-2.72,6.155-6.105,6.175H22.159Zm19.952-10.807c-.012,.003-.022,.006-.034,.01l.034-.01Z"
     id="path5349" />
  <path
     class="cls-1"
     d="M18.876,55.703h0c-1.172,0-2.125-.953-2.125-2.125s.953-2.125,2.125-2.125h21.369c.417-.046,.796-.397,.892-.831,.248-1.138,1.35-1.853,2.499-1.626,.584,.126,1.059,.456,1.365,.934,.307,.479,.408,1.048,.286,1.604-.503,2.295-2.492,4.008-4.838,4.165l-21.573,.004Zm25.191-4.439v0Z"
     id="path5351" />
  <path
     class="cls-1"
     d="M14.99,65.599h0c-1.172,0-2.125-.953-2.125-2.125s.953-2.125,2.125-2.125h21.368c.419-.048,.799-.401,.894-.838,.115-.547,.443-1.024,.923-1.333,.473-.306,1.058-.413,1.606-.293,.547,.117,1.022,.445,1.331,.922,.309,.476,.413,1.044,.294,1.599-.498,2.31-2.488,4.031-4.84,4.189l-.102,.004H14.99Zm25.195-4.461l-.003,.012,.003-.012Z"
     id="path5353" />
  <path
     class="cls-1"
     d="M11.133,75.595h0c-1.172,0-2.125-.953-2.125-2.125s.953-2.125,2.125-2.125h21.367c.42-.049,.8-.401,.895-.838,.118-.553,.447-1.028,.927-1.337,.473-.304,1.058-.411,1.603-.29,1.138,.244,1.87,1.375,1.625,2.521-.498,2.308-2.487,4.029-4.838,4.189l-.103,.004H11.133Zm25.194-4.457v0Z"
     id="path5355" />
</svg>
