<?xml version="1.0" encoding="UTF-8" standalone="no"?>
<svg
   xmlns:dc="http://purl.org/dc/elements/1.1/"
   xmlns:cc="http://creativecommons.org/ns#"
   xmlns:rdf="http://www.w3.org/1999/02/22-rdf-syntax-ns#"
   xmlns:svg="http://www.w3.org/2000/svg"
   xmlns="http://www.w3.org/2000/svg"
   xmlns:sodipodi="http://sodipodi.sourceforge.net/DTD/sodipodi-0.dtd"
   xmlns:inkscape="http://www.inkscape.org/namespaces/inkscape"
   version="1.1"
   id="Layer_1"
   x="0px"
   y="0px"
   viewBox="0 0 120 120"
   style="enable-background:new 0 0 120 120;"
   xml:space="preserve"
   sodipodi:docname="Strong Wind Warning.svg"
   inkscape:version="1.0.1 (c497b03c, 2020-09-10)"><metadata
   id="metadata10249"><rdf:RDF><cc:Work
       rdf:about=""><dc:format>image/svg+xml</dc:format><dc:type
         rdf:resource="http://purl.org/dc/dcmitype/StillImage" /><dc:title></dc:title></cc:Work></rdf:RDF></metadata><defs
   id="defs10247" /><sodipodi:namedview
   pagecolor="#ffffff"
   bordercolor="#666666"
   borderopacity="1"
   objecttolerance="10"
   gridtolerance="10"
   guidetolerance="10"
   inkscape:pageopacity="0"
   inkscape:pageshadow="2"
   inkscape:window-width="689"
   inkscape:window-height="480"
   id="namedview10245"
   showgrid="false"
   inkscape:zoom="6.95"
   inkscape:cx="60"
   inkscape:cy="60"
   inkscape:window-x="0"
   inkscape:window-y="25"
   inkscape:window-maximized="0"
   inkscape:current-layer="Layer_1" />
<style
   type="text/css"
   id="style10221">
	.st0{fill:#42210B;}
	.st1{fill:#006837;}
	.st2{fill:#C1272D;}
	.st3{fill:#754C24;}
</style>
<g
   id="Layer_1_00000166672483755385325960000003827063924352796289_">
	<path
   class="st0"
   d="M106.4,107.6H14.1c-0.7,0-1.2-0.6-1.2-1.2s0.6-1.2,1.2-1.2h92.2c0.7,0,1.2,0.6,1.2,1.2   S107.1,107.6,106.4,107.6z"
   id="path10223" />
	<path
   class="st1"
   d="M99.5,52.7C98,52.8,94.5,53,93.4,55c-1.1,2.1,1.6,3.9,3.3,9.7c0.5,1.7,1.7,5.9,1.2,10.9   c-0.5,4.5-2.3,7.6-1.4,8.2c0.5,0.3,1.3-0.3,2.7-1.2c1.2-0.8,3.1-2.1,4.8-4.2c2.1-2.6,5.9-9.1,4.7-16.9c-0.4-2.4-1-6.1-3.9-7.9   C102.9,52.4,100.8,52.6,99.5,52.7L99.5,52.7z"
   id="path10225" />
	<path
   class="st1"
   d="M112.6,38.9c0.5-1.1,1.4-2.9,1.8-5.3c1-5.8-0.7-12.1-4.2-15.9c-2.4-2.5-4.9-3.8-7.5-4.5   c-0.8-0.2-1.4,0.7-1,1.4c0.9,1.4,1.7,2.8,2.2,4.4c1.3,4.1,0.9,8.5,0,11.5c-0.5,1.9-1.3,3.5-1.9,4.6c-2.7,1.8-4.5,4.1-4,5.8   c0.7,2.3,5.5,2.7,8.6,2C107.4,42.7,110.9,42.1,112.6,38.9L112.6,38.9z"
   id="path10227" />
	<path
   class="st2"
   d="M26.5,22.7c-1.2,0-2.2-1-2.2-2.2s1-2.2,2.2-2.2h33.7c0.6,0,1.2-0.2,1.6-0.7c0.4-0.4,0.7-1,0.6-1.6   c0-0.6-0.2-1.2-0.7-1.6c-0.4-0.4-1-0.6-1.6-0.6l-0.2,0c0,0-0.2,0-0.5,0.1c-0.5,0.2-1.1,0.1-1.6-0.1c-0.5-0.3-0.9-0.7-1.1-1.3   c-0.4-1.2,0.3-2.4,1.4-2.8c0.7-0.2,1.4-0.3,1.9-0.3h0c1.8,0,3.5,0.7,4.7,1.9c1.3,1.2,2,2.9,2,4.7c0,1.8-0.7,3.4-1.9,4.7   s-2.9,2-4.7,2L26.5,22.7L26.5,22.7z M58.6,11L58.6,11L58.6,11z"
   id="path10229" />
	<path
   class="st2"
   d="M22.7,32.9L22.7,32.9c-1.2,0-2.2-1-2.2-2.2s1-2.2,2.2-2.2h33.6c0.5-0.1,1-0.5,1.1-1c0.3-1.2,1.4-1.9,2.6-1.7   c0.6,0.1,1.1,0.5,1.4,1s0.4,1.1,0.3,1.7c-0.5,2.5-2.7,4.3-5.2,4.5L22.7,32.9L22.7,32.9z M60.4,28.1L60.4,28.1z"
   id="path10231" />
	<path
   class="st2"
   d="M18.4,42.6L18.4,42.6c-1.2,0-2.2-1-2.2-2.2s1-2.2,2.2-2.2H52c0.5-0.1,1-0.5,1.1-1.1c0.1-0.6,0.5-1.1,1-1.4   c0.5-0.3,1.1-0.4,1.7-0.3c1.2,0.2,1.9,1.4,1.7,2.6c-0.5,2.5-2.7,4.3-5.2,4.5l-0.1,0H18.4z M56.1,37.8L56.1,37.8L56.1,37.8z"
   id="path10233" />
	<path
   class="st2"
   d="M13.9,52.7L13.9,52.7c-1.2,0-2.2-1-2.2-2.2s1-2.2,2.2-2.2h33.6c0.5-0.1,1-0.5,1.1-1.1c0.1-0.6,0.5-1.1,1-1.4   c0.5-0.3,1.1-0.4,1.7-0.3c0.6,0.1,1.1,0.5,1.4,1c0.3,0.5,0.4,1.1,0.3,1.6c-0.5,2.5-2.7,4.3-5.2,4.5l-0.1,0L13.9,52.7L13.9,52.7z    M51.7,47.9L51.7,47.9z"
   id="path10235" />
	<path
   class="st2"
   d="M9.9,62.8L9.9,62.8c-1.2,0-2.2-1-2.2-2.2c0-2.2,2.6-2.2,4.2-2.2h32.3c0,0,0-0.1,0.1-0.1   c0.2-0.3,0.3-0.6,0.4-0.9c0.1-0.6,0.5-1.1,1-1.4c0.5-0.3,1.1-0.4,1.7-0.3c0.6,0.1,1.1,0.5,1.4,1c0.3,0.5,0.4,1.1,0.3,1.6   c-0.5,2.5-2.7,4.3-5.2,4.5l-0.1,0C43.7,62.8,9.9,62.8,9.9,62.8z M47.7,58L47.7,58z"
   id="path10237" />
	<path
   class="st3"
   d="M88.3,46.1l-0.1,14.7C83.9,60.7,78,61.2,71.9,64c-19,8.6-23,31.1-23.5,33.7c0.2-2.2,0.4-4.5,0.5-6.7   c-1.7,5.8-2.3,7.2-2.6,7.1c-0.3-0.1-0.3-1.6,0.5-7.7c-1.1,2.5-2.2,5-3.4,7.5l1.3-7.5l-3.3,7.2c0.4-2.5,0.8-5,1.3-7.4l-3.8,6.5   c0.4-2.1,0.7-4.3,1.1-6.4l-3.1,5.1c0.3-4.1,1.2-10.5,4.3-17.5c4.8-10.6,12-16.6,15.2-19.1C68.8,48.6,82.3,46.6,88.3,46.1z"
   id="path10239" />
	<path
   class="st1"
   d="M92,26c0,0-3.3-7-13.5-9.4c-0.3-0.1-2.4-0.6-5.1-0.2c-1.2,0.2-3.3,0.5-3.5,1.6c-0.1,0.4,0,0.9,1.1,2.1   c1.9,2,3.9,2.6,5,3.2c5.4,2.8,6.7,11.5,6.8,12.3c0.4,3.3-0.3,4.7,0.8,5.6c1.8,1.4,6.3-0.2,8.5-3.2C95.4,33.6,92.5,27.2,92,26L92,26   z"
   id="path10241" />
</g>
</svg>
