<?xml version="1.0" encoding="UTF-8" standalone="no"?>
<svg
   xmlns:dc="http://purl.org/dc/elements/1.1/"
   xmlns:cc="http://creativecommons.org/ns#"
   xmlns:rdf="http://www.w3.org/1999/02/22-rdf-syntax-ns#"
   xmlns:svg="http://www.w3.org/2000/svg"
   xmlns="http://www.w3.org/2000/svg"
   xmlns:sodipodi="http://sodipodi.sourceforge.net/DTD/sodipodi-0.dtd"
   xmlns:inkscape="http://www.inkscape.org/namespaces/inkscape"
   id="Layer_1"
   viewBox="0 0 120 120"
   version="1.1"
   sodipodi:docname="Thunderstorm Advisory.svg"
   inkscape:version="1.0.1 (c497b03c, 2020-09-10)">
  <metadata
     id="metadata2932">
    <rdf:RDF>
      <cc:Work
         rdf:about="">
        <dc:format>image/svg+xml</dc:format>
        <dc:type
           rdf:resource="http://purl.org/dc/dcmitype/StillImage" />
        <dc:title></dc:title>
      </cc:Work>
    </rdf:RDF>
  </metadata>
  <sodipodi:namedview
     pagecolor="#ffffff"
     bordercolor="#666666"
     borderopacity="1"
     objecttolerance="10"
     gridtolerance="10"
     guidetolerance="10"
     inkscape:pageopacity="0"
     inkscape:pageshadow="2"
     inkscape:window-width="1677"
     inkscape:window-height="835"
     id="namedview2930"
     showgrid="false"
     inkscape:zoom="6.95"
     inkscape:cx="60"
     inkscape:cy="60"
     inkscape:window-x="0"
     inkscape:window-y="25"
     inkscape:window-maximized="0"
     inkscape:current-layer="Layer_1" />
  <defs
     id="defs2909">
    <style
       id="style2907">.cls-1{fill:#fff;}.cls-2{fill:#f18913;}.cls-3{fill:#808081;}.cls-4{fill:#25bbe4;stroke:#25bbe4;stroke-miterlimit:10;stroke-width:1.327px;}.cls-5{fill:#000;}</style>
  </defs>
  <path
     class="cls-1"
     d="M110.196,24.842c-3.444-3.444-8.016-5.341-12.874-5.341h-.013c-1.379,.002-2.758,.162-4.11,.478-2.294-8.783-10.279-15.041-19.41-15.041h-.014c-9.103,.006-16.92,6.024-19.345,14.758-.815-.112-1.592-.188-2.398-.164-10.081,.006-18.289,8.262-18.295,18.403-.003,4.873,1.902,9.478,5.365,12.967,3.467,3.488,8.05,5.411,12.907,5.413h.001l45.277-.03c10.08-.011,18.288-8.266,18.294-18.403,.003-4.932-1.91-9.565-5.386-13.04Zm-12.91,29.285l-45.276,.03c-4.277-.002-8.317-1.697-11.374-4.776-3.059-3.079-4.742-7.143-4.739-11.445,.006-8.951,7.245-16.238,16.14-16.244h.028c.96,0,1.923,.094,2.943,.285,.737,.186,1.462,.428,2.154,.754,.909,.428,2.654,1.416,4.118,3.212,2.218,2.719,2.584,5.815,2.605,7.421l2.158-.03c-.024-1.884-.458-5.531-3.091-8.758-1.735-2.125-3.797-3.292-4.87-3.798-.496-.234-1.006-.439-1.525-.613,2.203-7.735,9.136-13.062,17.22-13.068h.012c8.205,0,15.36,5.676,17.349,13.606-1.71,.755-3.904,2.123-5.671,4.565-2.332,3.221-2.65,6.57-2.633,8.279l2.158-.021c-.016-1.446,.253-4.274,2.223-6.993,2.029-2.803,4.727-3.935,6.155-4.359v-.004c1.294-.331,2.617-.509,3.941-.511h.011c4.282,0,8.312,1.671,11.348,4.709,3.069,3.069,4.757,7.158,4.754,11.514-.006,8.947-7.245,16.234-16.138,16.244Z"
     id="path2911" />
  <path
     class="cls-3"
     d="M97.286,54.126l-45.276,.03c-4.277-.002-8.317-1.697-11.374-4.776-3.059-3.079-4.742-7.143-4.739-11.445,.006-8.951,7.245-16.238,16.14-16.244h.028c.96,0,1.923,.094,2.943,.285,.737,.186,1.462,.428,2.154,.754,.909,.428,2.654,1.416,4.118,3.212,2.218,2.719,2.584,5.815,2.605,7.421l2.158-.03c-.024-1.884-.458-5.531-3.091-8.758-1.735-2.125-3.797-3.292-4.87-3.798-.496-.234-1.006-.439-1.525-.613,2.203-7.735,9.136-13.062,17.22-13.068h.012c8.205,0,15.36,5.676,17.349,13.606-1.71,.755-3.904,2.123-5.671,4.565-2.332,3.221-2.65,6.57-2.633,8.279l2.158-.021c-.016-1.446,.253-4.274,2.223-6.993,2.029-2.803,4.727-3.935,6.155-4.359v-.004c1.294-.331,2.617-.509,3.941-.511h.011c4.282,0,8.312,1.671,11.348,4.709,3.069,3.069,4.757,7.158,4.754,11.514-.006,8.947-7.245,16.234-16.138,16.244Z"
     id="path2913" />
  <path
     class="cls-4"
     d="M21.47,93.034c-.001-.379-.003-.759-.005-1.139-.02-3.862-.072-7.7-.156-11.515-3.385,1.864-6.77,3.727-10.155,5.591-.086,.047-.376,.178-.736,.405-1.025,.645-1.642,1.394-1.918,1.762,0,0-.25,.335-.449,.678-1.982,3.41-.794,7.799,2.654,9.804s7.851,.865,9.833-2.545c.559-.961,.857-2,.932-3.041Z"
     id="path2915" />
  <path
     class="cls-4"
     d="M42.206,93.034c-.001-.379-.003-.759-.005-1.139-.02-3.862-.072-7.7-.156-11.515-3.385,1.864-6.77,3.727-10.155,5.591-.086,.047-.376,.178-.736,.405-1.025,.645-1.642,1.394-1.918,1.762,0,0-.25,.335-.449,.678-1.982,3.41-.794,7.799,2.654,9.804s7.851,.865,9.833-2.545c.559-.961,.857-2,.932-3.041Z"
     id="path2917" />
  <path
     class="cls-4"
     d="M64.031,93.034c-.001-.379-.003-.759-.005-1.139-.02-3.862-.072-7.7-.156-11.515-3.385,1.864-6.77,3.727-10.155,5.591-.086,.047-.376,.178-.736,.405-1.025,.645-1.642,1.394-1.918,1.762,0,0-.25,.335-.449,.678-1.982,3.41-.794,7.799,2.654,9.804s7.851,.865,9.833-2.545c.559-.961,.857-2,.932-3.041Z"
     id="path2919" />
  <path
     class="cls-2"
     d="M80.207,94.061l-11.109-.151c3.763-6.947,7.527-13.895,11.291-20.842l12.043,.051-12.012,15.201c4.004,.071,8.008,.142,12.012,.213-6.839,7.229-13.678,14.457-20.517,21.686,2.764-5.386,5.528-10.772,8.292-16.158Z"
     id="path2921" />
  <path
     class="cls-2"
     d="M103.541,77.555l-11.109-.151c3.763-6.947,7.527-13.895,11.291-20.842l12.043,.051-12.012,15.201c4.004,.071,8.008,.142,12.012,.213-6.839,7.229-13.678,14.457-20.517,21.686,2.764-5.386,5.528-10.772,8.292-16.158Z"
     id="path2923" />
  <path
     class="cls-1"
     d="M79.093,43.665c-3.444-3.444-8.016-5.341-12.874-5.341h-.013c-1.379,.002-2.758,.162-4.11,.478-2.294-8.783-10.279-15.041-19.41-15.041h-.014c-9.103,.006-16.92,6.024-19.345,14.758-.815-.112-1.592-.188-2.398-.164-10.081,.006-18.289,8.262-18.295,18.403-.003,4.873,1.902,9.478,5.365,12.967,3.467,3.488,8.05,5.411,12.907,5.413h.001l45.277-.03c10.08-.011,18.288-8.266,18.294-18.403,.003-4.932-1.91-9.565-5.386-13.04Zm-12.91,29.285l-45.276,.03c-4.277-.002-8.317-1.697-11.374-4.776-3.059-3.079-4.742-7.143-4.739-11.445,.006-8.951,7.245-16.238,16.14-16.244h.028c.96,0,1.923,.094,2.943,.285,.737,.186,1.462,.428,2.154,.754,.909,.428,2.654,1.416,4.118,3.212,2.218,2.719,2.584,5.815,2.605,7.421l2.158-.03c-.024-1.884-.458-5.531-3.091-8.758-1.735-2.125-3.797-3.292-4.87-3.798-.496-.234-1.006-.439-1.525-.613,2.203-7.735,9.136-13.062,17.22-13.068h.012c8.205,0,15.36,5.676,17.349,13.606-1.71,.755-3.904,2.123-5.671,4.565-2.332,3.221-2.65,6.57-2.633,8.279l2.158-.021c-.016-1.446,.253-4.274,2.223-6.993,2.029-2.803,4.727-3.935,6.155-4.359v-.004c1.294-.331,2.617-.509,3.941-.511h.011c4.282,0,8.312,1.671,11.348,4.709,3.069,3.069,4.757,7.158,4.754,11.514-.006,8.947-7.245,16.234-16.138,16.244Z"
     id="path2925" />
  <path
      class="cls-5"
     d="M66.183,72.949l-45.276,.03c-4.277-.002-8.317-1.697-11.374-4.776-3.059-3.079-4.742-7.143-4.739-11.445,.006-8.951,7.245-16.238,16.14-16.244h.028c.96,0,1.923,.094,2.943,.285,.737,.186,1.462,.428,2.154,.754,.909,.428,2.654,1.416,4.118,3.212,2.218,2.719,2.584,5.815,2.605,7.421l2.158-.03c-.024-1.884-.458-5.531-3.091-8.758-1.735-2.125-3.797-3.292-4.87-3.798-.496-.234-1.006-.439-1.525-.613,2.203-7.735,9.136-13.062,17.22-13.068h.012c8.205,0,15.36,5.676,17.349,13.606-1.71,.755-3.904,2.123-5.671,4.565-2.332,3.221-2.65,6.57-2.633,8.279l2.158-.021c-.016-1.446,.253-4.274,2.223-6.993,2.029-2.803,4.727-3.935,6.155-4.359v-.004c1.294-.331,2.617-.509,3.941-.511h.011c4.282,0,8.312,1.671,11.348,4.709,3.069,3.069,4.757,7.158,4.754,11.514-.006,8.947-7.245,16.234-16.138,16.244Z"
     id="path2927" />
</svg>
