<?xml version="1.0" encoding="UTF-8" standalone="no"?>
<svg
   xmlns:dc="http://purl.org/dc/elements/1.1/"
   xmlns:cc="http://creativecommons.org/ns#"
   xmlns:rdf="http://www.w3.org/1999/02/22-rdf-syntax-ns#"
   xmlns:svg="http://www.w3.org/2000/svg"
   xmlns="http://www.w3.org/2000/svg"
   xmlns:sodipodi="http://sodipodi.sourceforge.net/DTD/sodipodi-0.dtd"
   xmlns:inkscape="http://www.inkscape.org/namespaces/inkscape"
   id="Layer_3"
   viewBox="0 0 120 120"
   version="1.1"
   sodipodi:docname="Tropical Storm Watch Discontinuation.svg"
   inkscape:version="1.0.1 (c497b03c, 2020-09-10)">
  <metadata
     id="metadata842">
    <rdf:RDF>
      <cc:Work
         rdf:about="">
        <dc:format>image/svg+xml</dc:format>
        <dc:type
           rdf:resource="http://purl.org/dc/dcmitype/StillImage" />
        <dc:title></dc:title>
      </cc:Work>
    </rdf:RDF>
  </metadata>
  <sodipodi:namedview
     pagecolor="#ffffff"
     bordercolor="#666666"
     borderopacity="1"
     objecttolerance="10"
     gridtolerance="10"
     guidetolerance="10"
     inkscape:pageopacity="0"
     inkscape:pageshadow="2"
     inkscape:window-width="820"
     inkscape:window-height="480"
     id="namedview840"
     showgrid="false"
     inkscape:zoom="5.5666667"
     inkscape:cx="60"
     inkscape:cy="60"
     inkscape:window-x="0"
     inkscape:window-y="25"
     inkscape:window-maximized="0"
     inkscape:current-layer="Layer_3" />
  <defs
     id="defs835">
    <style
       id="style833">.cls-1{fill:#eb6022;stroke:#000;stroke-miterlimit:10;}</style>
  </defs>
  <path
     class="cls-1"
     d="M107.344,55.799c-7.284-17.468-20.833-26.503-26.057-29.579-2.579-1.518-4.831-2.587-6.412-3.281-.39-.249-3.988-2.62-4.109-6.443-.125-3.986,3.576-8.066,8.954-8.58-6.207-.02-14.685,.851-23.81,4.649-17.715,7.373-26.775,21.158-29.722,26.185-1.543,2.632-2.626,4.936-3.33,6.56-.671,.952-2.904,3.726-6.251,3.832-3.986,.127-8.067-3.575-8.58-8.954-.012,6.097,.834,14.599,4.649,23.81,1.19,2.875,8.244,19.25,25.851,29.667,2.887,1.708,5.435,2.887,7.255,3.655,1.151,.891,3.375,2.987,3.47,5.981,.127,3.986-3.575,8.067-8.954,8.58,6.092,.015,14.598-.828,23.81-4.649,2.851-1.182,19.206-8.237,29.589-25.82,1.664-2.817,2.816-5.298,3.565-7.063,.77-1.053,2.947-3.591,6.15-3.694,3.986-.127,8.067,3.575,8.58,8.954,.024-6.215-.847-14.693-4.649-23.81Zm-47.344,28.656c-13.506,0-24.455-10.949-24.455-24.455s10.949-24.455,24.455-24.455,24.455,10.949,24.455,24.455-10.949,24.455-24.455,24.455Z"
     id="path837" />
</svg>
