<?xml version="1.0" encoding="UTF-8" standalone="no"?>
<svg
   xmlns:dc="http://purl.org/dc/elements/1.1/"
   xmlns:cc="http://creativecommons.org/ns#"
   xmlns:rdf="http://www.w3.org/1999/02/22-rdf-syntax-ns#"
   xmlns:svg="http://www.w3.org/2000/svg"
   xmlns="http://www.w3.org/2000/svg"
   xmlns:sodipodi="http://sodipodi.sourceforge.net/DTD/sodipodi-0.dtd"
   xmlns:inkscape="http://www.inkscape.org/namespaces/inkscape"
   id="Layer_1"
   viewBox="0 0 120 120"
   version="1.1"
   sodipodi:docname="Tsunami Warning.svg"
   inkscape:version="1.0.1 (c497b03c, 2020-09-10)">
  <metadata
     id="metadata14650">
    <rdf:RDF>
      <cc:Work
         rdf:about="">
        <dc:format>image/svg+xml</dc:format>
        <dc:type
           rdf:resource="http://purl.org/dc/dcmitype/StillImage" />
        <dc:title></dc:title>
      </cc:Work>
    </rdf:RDF>
  </metadata>
  <sodipodi:namedview
     pagecolor="#ffffff"
     bordercolor="#666666"
     borderopacity="1"
     objecttolerance="10"
     gridtolerance="10"
     guidetolerance="10"
     inkscape:pageopacity="0"
     inkscape:pageshadow="2"
     inkscape:window-width="1361"
     inkscape:window-height="752"
     id="namedview14648"
     showgrid="false"
     inkscape:zoom="6.95"
     inkscape:cx="60"
     inkscape:cy="60"
     inkscape:window-x="130"
     inkscape:window-y="70"
     inkscape:window-maximized="0"
     inkscape:current-layer="Layer_1" />
  <defs
     id="defs14637">
    <style
       id="style14635">.cls-1{fill:none;}.cls-2{fill:#20bce5;}.cls-3{fill:#000;}</style>
  </defs>
  <path
     class="cls-1"
     d="M24.618,90.984c.972,.113,1.899,.026,2.761-.174h-3.749c.323,.07,.648,.135,.988,.174Z"
     id="path14639" />
  <path
      class="cls-3"
     d="M103.358,58.503H56.156c-2.499,4.014-4.997,8.027-7.496,12.041h62.193c-2.499-4.014-4.997-8.027-7.496-12.041Z"
     id="path14641" />
  <path
     class="cls-2"
     d="M107.479,96.595c-.623-.536-1.535-1.094-2.641-1.082-1.017,.004-1.827,.504-2.948,1.196-.69,.427-.979,.696-1.257,.957-.27,.252-.547,.513-1.112,.849-1.637,.976-3.375,1.382-4.892,1.146-.689-.108-1.002-.302-1.839-.816-.407-.252-.96-.592-1.771-1.059-2.385-1.372-3.579-2.06-4.529-2.211-2.141-.344-4.03,.497-4.559,.764-.588,.295-1.571,.942-3.528,2.232l-.248,.163c-1.11,.733-1.617,1.068-2.444,1.174-.121,.016-.245,.022-.374,.022-.788,0-1.734-.286-2.878-.869-1.28-.652-1.966-1.261-2.571-1.798-.509-.452-.949-.843-1.684-1.229-.508-.266-1.058-.47-1.642-.616-.046-.012-.092-.022-.138-.033-.267-.062-.54-.113-.822-.15-.068-.009-.136-.013-.204-.02-.204-.022-.412-.037-.623-.046-.811-.027-1.561,.075-2.257,.241l-.008-.01c-1.324,.171-3.025,.225-4.916-.182-10.175-2.19-18.508-16.152-17.097-29.253,.901-8.367,6.03-18.674,16.485-22.691,9.167-3.522,17.519-.321,19.645,.568-.283-2.088-2.118-14.228-12.428-20.612-11.838-7.33-25.591-1.22-28.344,0-6.231,2.762-6.909,5.898-20.314,16.191-4.37,3.356-8.056,5.935-10.432,7.555,.088,17.671,.176,35.341,.265,53.011,21.546,0,43.091,0,64.637,0l-.009-.002c12.488,0,24.976-.002,37.465-.003,.004-1.129,.008-2.258,.012-3.388Z"
     id="path14643" />
  <path
      class="cls-3"
     d="M53.291,72.106v20.32c1.817,1.06,3.807,1.783,5.636,2.027,1.303,.175,2.166,.292,3.238,.064l.232-.052c.369-.085,.873-.2,1.561-.245,.034-.002,.069,0,.103-.001v-10.018h8.249v13.63c.188,.112,.378,.223,.605,.339,1.13,.576,2.026,.824,2.671,.745,.596-.076,.955-.313,2.02-1.017l.248-.164c1.99-1.311,2.989-1.969,3.63-2.291,.596-.299,2.73-1.247,5.166-.857,1.131,.181,2.379,.899,4.866,2.33,.826,.476,1.387,.821,1.801,1.076,.81,.499,.978,.603,1.468,.68,1.29,.201,2.788-.159,4.226-1.017,.473-.281,.689-.484,.939-.719,.3-.281,.64-.6,1.411-1.076,1.218-.751,2.176-1.342,3.475-1.348h.019c.495,0,.95,.094,1.37,.232v-22.639H53.291Zm41.91,13.325h-8.249v-8.249h8.249v8.249Z"
     id="path14645" />
</svg>
