<svg width="30" height="30" viewBox="0 0 30 30" fill="none" xmlns="http://www.w3.org/2000/svg">
<g clip-path="url(#clip0_547_5439)">
<path d="M14.6927 6.00003C14.4802 6.00003 14.2465 6.12753 14.1452 6.31003L12.5752 9.12503C12.4602 9.33253 12.3877 9.69503 12.4165 9.93003C12.4165 9.93003 12.689 12.1313 16.2415 12.8C16.7452 12.895 17.204 12.9363 17.619 12.9363C20.1315 12.9363 21.079 11.4488 21.079 11.4488C21.2052 11.2475 21.279 10.8913 21.2415 10.6563L20.729 7.47253C20.689 7.23753 20.4665 7.01128 20.234 6.97003L14.779 6.00628C14.7502 6.00128 14.7227 5.99878 14.6915 5.99878M15.0115 7.31878L19.5677 8.12378L19.999 10.8025C19.8277 11.0025 19.134 11.6838 17.619 11.6838C17.2602 11.6838 16.874 11.6463 16.4715 11.5713C14.189 11.14 13.7365 10.0313 13.664 9.78378C13.6677 9.75878 13.6727 9.73003 13.679 9.71128L15.0115 7.31878Z" fill="black"/>
<path d="M11.7755 8.86121L22.1155 10.6887C22.348 10.73 22.4905 10.9512 22.433 11.1812L21.653 14.2387C21.5942 14.4687 21.3555 14.6237 21.1217 14.5825L20.628 14.495L20.488 15.2925C20.4505 15.5025 20.2655 15.6512 20.0592 15.6487L19.9892 15.6425L19.173 15.4987C18.963 15.4612 18.8142 15.275 18.8167 15.0675L18.823 14.9987L18.963 14.2012L13.538 13.2412L13.3992 14.0387C13.3617 14.25 13.1767 14.3987 12.9705 14.3962L12.8992 14.39L12.083 14.245C11.873 14.2075 11.7255 14.0212 11.728 13.815L11.7342 13.745L11.8742 12.9475L11.3805 12.86C11.148 12.82 10.9755 12.5925 10.9992 12.355L11.3092 9.21496C11.3342 8.97746 11.543 8.81996 11.7755 8.85996V8.86121ZM12.128 15.1625L12.5967 15.01L12.6867 15.1812L12.7705 15.3712L12.8155 15.485C12.878 15.6462 12.9442 15.8475 12.9942 16.0912C13.0442 16.3337 13.0755 16.6187 13.0717 16.9312C13.0692 17.2437 13.0242 17.5812 12.9467 17.9262C12.8692 18.27 12.7555 18.6212 12.618 18.9637C12.4805 19.3087 12.323 19.6462 12.158 19.9762L11.9917 20.3025L11.6592 20.9387C11.4967 21.2487 11.3417 21.5512 11.208 21.8362C11.0755 22.1212 10.9617 22.3937 10.883 22.64C10.8455 22.7537 10.8167 22.8612 10.7942 22.965L10.7655 23.1112H6.66797L6.67422 23.0862C6.79422 22.68 6.97422 22.2787 7.18547 21.905C7.40047 21.5337 7.64797 21.1912 7.91172 20.8837C8.17547 20.575 8.45297 20.2962 8.72922 20.0387C8.91547 19.8675 9.10047 19.7037 9.28297 19.5462L10.083 18.8687C10.168 18.7962 10.2517 18.725 10.333 18.6525C10.5792 18.44 10.8105 18.2275 11.0142 18.0162C11.2217 17.8062 11.4017 17.5937 11.5542 17.3812C11.7042 17.1687 11.8292 16.9562 11.9167 16.745C12.008 16.535 12.0667 16.33 12.1042 16.1387C12.1292 15.9962 12.1442 15.8625 12.1505 15.7437L12.1542 15.5262L12.148 15.3587L12.128 15.1625ZM19.2492 16.35L19.6467 16.22L19.7242 16.3675L19.7955 16.5287L19.833 16.625C19.8867 16.7625 19.943 16.9337 19.983 17.1412C20.0267 17.3475 20.0542 17.59 20.0505 17.8537C20.048 18.1212 20.0117 18.4075 19.9455 18.7012C19.878 18.9937 19.7817 19.2925 19.6642 19.585C19.5492 19.8762 19.4142 20.1637 19.2742 20.445L19.0617 20.86L18.8492 21.2625C18.7117 21.5275 18.5792 21.7837 18.4655 22.0275C18.353 22.27 18.2567 22.5012 18.1905 22.7112C18.158 22.8075 18.133 22.8987 18.1142 22.9862L18.0892 23.1112H14.603L14.6092 23.09C14.7117 22.745 14.8642 22.4025 15.0442 22.085C15.2267 21.77 15.4392 21.4787 15.663 21.2175C15.8867 20.9537 16.1217 20.7175 16.358 20.4987C16.5155 20.3512 16.673 20.2125 16.8292 20.0787L17.5092 19.5037L17.7217 19.3187C17.9305 19.1375 18.1267 18.9575 18.3017 18.7787C18.4767 18.5987 18.6305 18.4187 18.7605 18.2387C18.888 18.0575 18.9942 17.8762 19.0692 17.6962C19.1455 17.5187 19.1967 17.3437 19.2267 17.18C19.2505 17.06 19.2617 16.9462 19.2667 16.8437L19.2705 16.66L19.2655 16.5175L19.2492 16.3512V16.35Z" fill="black"/>
</g>
<defs>
<clipPath id="clip0_547_5439">
<rect width="30" height="30" fill="white"/>
</clipPath>
</defs>
</svg>
