<?xml version="1.0" encoding="UTF-8" standalone="no"?>
<svg width="80px" height="80px" viewBox="0 0 80 80" version="1.1" xmlns="http://www.w3.org/2000/svg" xmlns:xlink="http://www.w3.org/1999/xlink">
    <!-- Generator: Sketch 3.8.2 (29753) - http://www.bohemiancoding.com/sketch -->
    <title>itsenaisyyspaiva</title>
    <desc>Created with Sketch.</desc>
    <defs></defs>
    <g id="Page-1" stroke="none" stroke-width="1" fill="none" fill-rule="evenodd">
        <g id="itsenaisyyspaiva" fill="currentColor">
            <path d="M52.9974216,23.0000056 C45.265578,22.993129 39,29.2646326 39,36.9991432 C39,44.7422497 45.265578,51 52.9974216,51 C60.7292651,51 67,44.7422497 67,36.9957049 C67,29.2646326 60.7292651,23.0000056 52.9974216,23.0000056 L52.9974216,23.0000056 Z" id="head"></path>
            <path d="M52.9966283,55 C67.019184,55 78.5367705,65.9439552 80,80 L26,80 C27.4601012,65.9473207 38.9808955,55 52.9966283,55 Z" id="body"></path>
            <path d="M5,22.3366326 C5,22.3366326 9.43447756,21.8020138 13.0588833,22.0802435 C16.8202026,22.3689186 19.1154061,23.2093052 19.1154061,24.5415789 C19.1154061,25.8748022 17.0617029,26.0656697 17.0617029,27.398893 C17.0617029,28.9106391 21.4248713,28.8470167 24.7098456,28.8470167 C27.9948198,28.8470167 34,27.8974274 34,27.8974274 L34,51.0170774 C34,51.0170774 28.3028753,51.9666667 24.7098456,51.9666667 C21.1168158,51.9666667 18.3966099,51.9666667 17.1130455,50.6847211 L17.1130455,46.2254499 C17.1130455,46.2254499 15.0555392,45.3442311 12.0320317,45.1998935 C9.67312547,45.087842 5,45.353727 5,45.353727 L5,22.3366326 Z" id="Fill-1"></path>
            <polygon id="Fill-4" points="0 80 3 80 3 22 0 22"></polygon>
        </g>
    </g>
</svg>