<svg width="30" height="30" viewBox="0 0 30 30" fill="none" xmlns="http://www.w3.org/2000/svg">
<g clip-path="url(#clip0_547_5721)">
<path d="M17.4968 12.2144C18.0122 12.2144 18.5305 12.4151 18.904 12.7124C18.4422 10.5793 16.5762 9 14.3042 9C13.4667 9 12.6797 9.21882 11.9968 9.59988C7.25364 11.8213 8.0429 20.4052 8.058 21.7204H22C19.8503 20.1124 15.3071 16.9312 15.3071 14.4042C15.3071 13.1946 16.288 12.2144 17.4968 12.2144Z" fill="black"/>
<path d="M18.7136 15.1135C19.5172 14.651 18.995 13.1479 18.9852 13.0951C18.6102 12.874 18.1574 12.7344 17.7062 12.7344C16.9305 12.7344 16.2394 13.0988 15.7949 13.6663C16.8543 14.4676 18.2397 15.3867 18.7136 15.1135Z" fill="black"/>
</g>
<defs>
<clipPath id="clip0_547_5721">
<rect width="14" height="12.7204" fill="white" transform="translate(8 9)"/>
</clipPath>
</defs>
</svg>
