<?xml version="1.0" encoding="UTF-8" standalone="no"?>
<svg width="80px" height="80px" viewBox="0 0 80 80" version="1.1" xmlns="http://www.w3.org/2000/svg" xmlns:xlink="http://www.w3.org/1999/xlink">
    <!-- Generator: Sketch 3.8.2 (29753) - http://www.bohemiancoding.com/sketch -->
    <title>vappu</title>
    <desc>Created with Sketch.</desc>
    <defs></defs>
    <g id="Page-1" stroke="none" stroke-width="1" fill="none" fill-rule="evenodd">
        <g id="vappu" fill="currentColor">
            <polygon id="Triangle-39" points="27 60 27 49 38 54.5"></polygon>
            <polygon id="Triangle-39" transform="translate(47.500000, 54.500000) scale(-1, 1) translate(-47.500000, -54.500000) " points="42 60 42 49 53 54.5"></polygon>
            <polygon id="Triangle-37" transform="translate(52.622077, 15.686493) rotate(-330.000000) translate(-52.622077, -15.686493) " points="52.6220773 4.1864933 63.6220773 27.1864933 41.6220773 27.1864933"></polygon>
            <path d="M36.7690724,23.3626084 C30.5977092,24.8096021 26,30.4177458 26,37.1134104 C26,44.9197195 32.235637,51.2285483 39.9305329,51.2285483 C47.6254287,51.2285483 53.8661979,44.9197195 53.8661979,37.109944 C53.8661979,35.6298682 53.6411549,34.2031041 53.223846,32.8627764 L36.7690724,23.3626084 L36.7690724,23.3626084 L36.7690724,23.3626084 Z M36,40.3623636 C36,42.5746798 37.7901651,44.3626084 39.9992633,44.3626084 C42.2083615,44.3626084 44,42.5746798 44,40.3613813 C44,38.1525035 42.2083615,36.36261 39.9992633,36.36261 C37.7901651,36.3606453 36,38.1525035 36,40.3623636 Z" id="Combined-Shape"></path>
            <path d="M55.5,60.0073611 C61.791525,64.527053 66.1384825,71.7241085 67,80 L13,80 C13.8597793,71.7250922 18.2080364,64.5269465 24.4999995,60.0067309 L24.5,64.5 L38.4148965,57.3181179 L40,69.9946815 L41.5850977,57.3181149 L55.5,64.5 L55.5,60.0073611 L55.5,60.0073611 Z M47.0154303,65.0000008 C45.9021544,64.9989978 45,65.9137474 45,67.0418885 C45,68.1712833 45.9021544,69.0840269 47.0154303,69.0840269 C48.1287062,69.0840269 49.0316031,68.1712833 49.0316031,67.041387 C49.0316031,65.9137474 48.1287062,65.0000008 47.0154303,65.0000008 Z M32.0154303,65.0000008 C30.9021544,64.9989978 30,65.9137474 30,67.0418885 C30,68.1712833 30.9021544,69.0840269 32.0154303,69.0840269 C33.1287062,69.0840269 34.0316031,68.1712833 34.0316031,67.041387 C34.0316031,65.9137474 33.1287062,65.0000008 32.0154303,65.0000008 Z M47.0154303,73.0000008 C45.9021544,72.9989978 45,73.9137474 45,75.0418885 C45,76.1712833 45.9021544,77.0840269 47.0154303,77.0840269 C48.1287062,77.0840269 49.0316031,76.1712833 49.0316031,75.041387 C49.0316031,73.9137474 48.1287062,73.0000008 47.0154303,73.0000008 Z M32.0154303,73.0000008 C30.9021544,72.9989978 30,73.9137474 30,75.0418885 C30,76.1712833 30.9021544,77.0840269 32.0154303,77.0840269 C33.1287062,77.0840269 34.0316031,76.1712833 34.0316031,75.041387 C34.0316031,73.9137474 33.1287062,73.0000008 32.0154303,73.0000008 Z" id="Combined-Shape"></path>
        </g>
    </g>
</svg>