<?xml version="1.0" encoding="UTF-8" standalone="no"?>
<svg width="80px" height="80px" viewBox="0 0 80 80" version="1.1" xmlns="http://www.w3.org/2000/svg" xmlns:xlink="http://www.w3.org/1999/xlink">
    <!-- Generator: Sketch 3.8.2 (29753) - http://www.bohemiancoding.com/sketch -->
    <title>easter</title>
    <desc>Created with Sketch.</desc>
    <defs></defs>
    <g id="Page-1" stroke="none" stroke-width="1" fill="none" fill-rule="evenodd">
        <g id="easter" fill="currentColor">
            <path d="M26.9974216,23.0000056 C19.265578,22.993129 13,29.2646326 13,36.9991432 C13,44.7422497 19.265578,51 26.9974216,51 C34.7292651,51 41,44.7422497 41,36.9957049 C41,29.2646326 34.7292651,23.0000056 26.9974216,23.0000056 L26.9974216,23.0000056 Z" id="head"></path>
            <path d="M38.2208061,57.4948532 C34.8008706,55.892407 31.0008813,55 26.9966283,55 C12.9808955,55 1.46010117,65.9473207 0,80 L20.121527,80 C21.5868167,69.4776984 28.713886,60.8420711 38.2208061,57.4948532 L38.2208061,57.4948532 Z" id="Combined-Shape"></path>
            <path d="M75.9295283,68 C74.807826,66.1798945 73.4882537,64.502476 72.0019036,63 L33.9974946,63 C32.5111411,64.5025239 31.1915279,66.179957 30.0698164,68 L75.9295283,68 L75.9295283,68 Z" id="Combined-Shape"></path>
            <path d="M77.0525689,70 C78.6035396,73.0455489 79.6275256,76.4219444 80,80 L26,80 C26.3717361,76.4222419 27.3955984,73.0457707 28.9467312,70 L77.0525689,70 L77.0525689,70 L77.0525689,70 Z M33,77 C34.1045695,77 35,76.1045695 35,75 C35,73.8954305 34.1045695,73 33,73 C31.8954305,73 31,73.8954305 31,75 C31,76.1045695 31.8954305,77 33,77 L33,77 Z M41,77 C42.1045695,77 43,76.1045695 43,75 C43,73.8954305 42.1045695,73 41,73 C39.8954305,73 39,73.8954305 39,75 C39,76.1045695 39.8954305,77 41,77 L41,77 Z M49,77 C50.1045695,77 51,76.1045695 51,75 C51,73.8954305 50.1045695,73 49,73 C47.8954305,73 47,73.8954305 47,75 C47,76.1045695 47.8954305,77 49,77 L49,77 Z M57,77 C58.1045695,77 59,76.1045695 59,75 C59,73.8954305 58.1045695,73 57,73 C55.8954305,73 55,73.8954305 55,75 C55,76.1045695 55.8954305,77 57,77 L57,77 Z M65,77 C66.1045695,77 67,76.1045695 67,75 C67,73.8954305 66.1045695,73 65,73 C63.8954305,73 63,73.8954305 63,75 C63,76.1045695 63.8954305,77 65,77 L65,77 Z M73,77 C74.1045695,77 75,76.1045695 75,75 C75,73.8954305 74.1045695,73 73,73 C71.8954305,73 71,73.8954305 71,75 C71,76.1045695 71.8954305,77 73,77 L73,77 Z" id="Combined-Shape"></path>
            <path d="M69.7978805,61 C65.1773521,57.2420802 59.3435858,55 52.9966283,55 C46.6533961,55 40.8211975,57.2423192 36.2013854,61 L69.7978805,61 L69.7978805,61 Z" id="Path"></path>
        </g>
    </g>
</svg>