<?xml version="1.0" encoding="UTF-8" standalone="no"?>
<svg width="80px" height="80px" viewBox="0 0 80 80" version="1.1" xmlns="http://www.w3.org/2000/svg" xmlns:xlink="http://www.w3.org/1999/xlink">
    <!-- Generator: Sketch 3.8.2 (29753) - http://www.bohemiancoding.com/sketch -->
    <title>hot</title>
    <desc>Created with Sketch.</desc>
    <defs></defs>
    <g id="Page-1" stroke="none" stroke-width="1" fill="none" fill-rule="evenodd">
        <g id="hot" fill="currentColor">
            <path d="M56.967939,48.159367 C56.5493528,48.1630034 56.469551,48.3665045 56.7902866,48.6112541 C56.7902866,48.6112541 60.8183587,51.7535714 61.5806675,52.2603566 C62.3450303,52.7685197 62.6743127,52.9585056 63.3660662,53.1864015 C65.5352325,53.9010259 67.7213188,53.4166158 68.2489342,52.1045044 C68.7765807,50.7923156 67.445975,49.1492557 65.2768087,48.4346313 C64.5700866,48.2018041 64.2353604,48.1777673 63.2096334,48.1059194 C62.1841934,48.0340785 56.967939,48.159367 56.967939,48.159367" id="Fill-1" transform="translate(62.478954, 50.800054) rotate(-23.000000) translate(-62.478954, -50.800054) "></path>
            <path d="M53.0374765,59.1300239 C52.7668245,59.3566869 52.8377769,59.5428573 53.1947392,59.5436666 C53.1947392,59.5436666 57.7191957,59.6021461 58.5223321,59.5512564 C59.3276399,59.5002384 59.6570812,59.4578694 60.2457021,59.2481657 C62.0914699,58.5905873 63.2237237,57.0787584 62.7747699,55.8713884 C62.3257896,54.6639471 60.4655977,54.2181346 58.6198299,54.8757129 C58.0184721,55.0899544 57.7857608,55.2522142 57.0737395,55.7507155 C56.3619095,56.2490679 53.0374765,59.1300239 53.0374765,59.1300239" id="Fill-1" transform="translate(57.873014, 57.072061) rotate(59.000000) translate(-57.873014, -57.072061) "></path>
            <path d="M10,31 L10,34.8681145 C10,39.8906515 14.1538462,44 19.2307692,44 L60.7692308,44 C65.8461538,44 70,39.8906515 70,34.8681145 L70,31 L10,31 Z" id="Fill-1"></path>
            <path d="M40,5 C35.235154,5 31,28 31,28 L49,28 C49,28 44.764846,5 40,5" id="Fill-3"></path>
            <path d="M29,47 C29.6800347,52.0782489 34.3391487,56 39.9984074,56 C45.6568698,56 50.3183727,52.0789772 51,47 L29,47 Z" id="Fill-6"></path>
            <path d="M39.9970029,59 C52.4614969,59 62.6993515,68.1929223 64,80 L16,80 C17.2978677,68.1957494 27.5385738,59 39.9970029,59 Z" id="body" transform="translate(40.000000, 69.500000) scale(-1, 1) translate(-40.000000, -69.500000) "></path>
        </g>
    </g>
</svg>