<?xml version="1.0" encoding="UTF-8" standalone="no"?>
<svg width="80px" height="80px" viewBox="0 0 80 80" version="1.1" xmlns="http://www.w3.org/2000/svg" xmlns:xlink="http://www.w3.org/1999/xlink">
    <!-- Generator: Sketch 3.8.2 (29753) - http://www.bohemiancoding.com/sketch -->
    <title>valentine</title>
    <desc>Created with Sketch.</desc>
    <defs></defs>
    <g id="Page-1" stroke="none" stroke-width="1" fill="none" fill-rule="evenodd">
        <g id="valentine" fill="currentColor">
            <path d="M39.9974216,23.0000056 C32.265578,22.993129 26,29.2646326 26,36.9991432 C26,44.7422497 32.265578,51 39.9974216,51 C47.7292651,51 54,44.7422497 54,36.9957049 C54,29.2646326 47.7292651,23.0000056 39.9974216,23.0000056 L39.9974216,23.0000056 Z" id="head"></path>
            <path d="M42.8738977,55.1551314 C41.928519,55.0525798 40.9685911,55 39.9966283,55 C25.9808955,55 14.4601012,65.9473207 13,80 L67,80 C66.7961474,78.0417559 66.397148,76.1439149 65.8234154,74.3276546 C63.9603906,75.7874408 61.9143689,77.1206254 59.5149096,78.5337016 L58.5,79.1313965 L57.4850904,78.5337016 C53.7530857,76.3358702 50.8760894,74.3313061 48.2128037,71.7430617 C44.2787293,67.9198346 42,63.7520086 42,59.1881037 C42,57.7507605 42.3124678,56.3860041 42.8739009,55.1551316 L42.8738977,55.1551314 Z" id="Combined-Shape"></path>
            <path d="M70.5588235,60.0083796 C70.5588235,56.391961 67.5575163,53.4568966 63.8594771,53.4568966 C61.6687908,53.4568966 59.719281,54.4920309 58.5,56.0840413 C57.280719,54.4920309 55.3312092,53.4568966 53.1405229,53.4568966 C49.4424837,53.4568966 46.4411765,56.391961 46.4411765,60.0083796 C46.4411765,67.2765949 54.8555556,72.5175272 58.5,74.6637931 C62.1444444,72.5175272 70.5588235,67.2765949 70.5588235,60.0083796 Z" id="heart"></path>
        </g>
    </g>
</svg>