<?xml version="1.0" encoding="UTF-8" standalone="no"?>
<svg width="80px" height="80px" viewBox="0 0 80 80" version="1.1" xmlns="http://www.w3.org/2000/svg" xmlns:xlink="http://www.w3.org/1999/xlink">
    <!-- Generator: Sketch 3.8.2 (29753) - http://www.bohemiancoding.com/sketch -->
    <title>windy</title>
    <desc>Created with Sketch.</desc>
    <defs></defs>
    <g id="Page-1" stroke="none" stroke-width="1" fill="none" fill-rule="evenodd">
        <g id="windy" fill="currentColor">
            <path d="M30.9966283,55 C45.019184,55 56.5367705,65.9439552 58,80 L4,80 C5.46010117,65.9473207 16.9808955,55 30.9966283,55 Z" id="body"></path>
            <path d="M52.6631718,48 C53.4172714,47.4054744 54.1087387,46.7349962 54.7260416,46 L64,46 L66,43 L56.6535773,43 C56.9579564,42.3587756 57.2150709,41.6906193 57.4204138,41 L67,41 L69,38 L57.9646421,38 C57.9880812,37.6683282 58,37.3334314 58,36.9957049 C58,36.6609236 57.9882412,36.328892 57.9651143,36 L70,36 L72,33 L57.4210817,33 C57.2156549,32.3094932 56.9583525,31.6413235 56.6536946,31 L73,31 L75,28 L54.7249026,28 C54.107374,27.2651113 53.415656,26.5946072 52.6612879,26 L76,26 L78,23 L44,23 C43.9991405,23.0000057 43.9982811,23.0000056 43.9974216,23.0000056 C36.265578,22.993129 30,29.2646326 30,36.9991432 C30,44.7422497 36.265578,51 43.9974216,51 C43.9982811,51 43.9991405,50.9999999 44,50.9999998 L61,51 L63,48 L52.663175,48 L52.6631718,48 Z" id="Combined-Shape"></path>
        </g>
    </g>
</svg>