<?xml version="1.0" encoding="UTF-8" standalone="no"?>
<svg width="80px" height="80px" viewBox="0 0 80 80" version="1.1" xmlns="http://www.w3.org/2000/svg" xmlns:xlink="http://www.w3.org/1999/xlink">
    <!-- Generator: Sketch 3.8.2 (29753) - http://www.bohemiancoding.com/sketch -->
    <title>xmas</title>
    <desc>Created with Sketch.</desc>
    <defs></defs>
    <g id="Page-1" stroke="none" stroke-width="1" fill="none" fill-rule="evenodd">
        <g id="xmas" fill="currentColor">
            <path d="M27.0908165,34.7638585 C27.1725087,37.5210928 27.5364586,40.960139 28.8101031,41.6380108 C29.7454662,42.1357172 32.0172034,42.9133218 34.3116579,43.6396775 C34.9566338,42.1751395 35.582843,40.900814 35.8613778,40.7726915 C36.5478375,40.4563276 40.4927585,39.5082216 40.4927585,39.5082216 L40.4937462,39.5082216 C40.4937462,39.5082216 44.4386672,40.4563276 45.1251269,40.7726915 C45.4036616,40.900814 46.0298709,42.1751395 46.6748467,43.6396775 C48.9693013,42.9133218 51.2410384,42.1357172 52.1764015,41.6380108 C54.3651709,40.4730821 53.8673641,31.1536529 53.8673641,31.1536529 C53.8673641,31.1536529 58.7999969,41.18564 57.8873512,46.9826876 C56.2754055,57.2275551 40.4927585,66 40.4927585,66 C40.4927585,66 24.7110991,57.2275551 23.0991534,46.9826876 C22.5538932,43.5192413 24.095085,38.5441478 25.4242559,35.0999398 L23.8136578,35.4247356 C23.2305508,35.5414947 22.7201969,35.1510943 22.6785129,34.5562846 L22.0027004,24.9127978 C21.9610163,24.3179881 22.4069068,23.7576242 22.9952174,23.6687578 L25.515365,23.2842584 C26.3823639,20.0482507 28.2351081,14.1580607 30.2729976,14.0158685 C33.0878931,13.8194612 48.4358031,15.4937283 49.0222417,16.413506 C49.3106197,16.8661254 49.8814128,18.2271327 50.388192,19.4937113 L52.3866177,19.1901718 C52.9737749,19.1002991 53.5938079,19.4950011 53.7626747,20.0657221 L56.0658747,27.8198929 C56.2358949,28.3916201 55.8974524,28.9553545 55.315423,29.0720384 L27.0908165,34.7638585 L27.0908165,34.7638585 Z" id="fill"></path>
            <path d="M15.7494397,70.4394777 C14.3086946,73.367574 13.3557408,76.5920452 13,80 L67,80 C66.0644337,71.0544048 61.0185198,63.3751787 53.8355809,59 L53.8355832,59.0000014 C48.1813301,66.361513 40.0938901,72.3570614 40.0938901,72.3570614 C40.0938901,72.3570614 34.4380054,68.1638615 29.2792522,62.4852639 C28.9671399,67.4273044 24.8418297,71.338984 19.7980468,71.338984 C18.3500141,71.338984 16.977618,71.0164038 15.7494397,70.4394777 L15.7494397,70.4394777 L15.7494397,70.4394777 Z M47.0154303,73.0000008 C45.9021544,72.9989978 45,73.9137474 45,75.0418885 C45,76.1712833 45.9021544,77.0840269 47.0154303,77.0840269 C48.1287062,77.0840269 49.0316031,76.1712833 49.0316031,75.041387 C49.0316031,73.9137474 48.1287062,73.0000008 47.0154303,73.0000008 L47.0154303,73.0000008 Z M32.0154303,73.0000008 C30.9021544,72.9989978 30,73.9137474 30,75.0418885 C30,76.1712833 30.9021544,77.0840269 32.0154303,77.0840269 C33.1287062,77.0840269 34.0316031,76.1712833 34.0316031,75.041387 C34.0316031,73.9137474 33.1287062,73.0000008 32.0154303,73.0000008 L32.0154303,73.0000008 Z" id="Combined-Shape"></path>
            <path d="M26.2984652,61.7985143 C26.2984652,65.3886738 23.3884261,68.2987129 19.7982666,68.2987129 C16.2090596,68.2987129 13.2990205,65.3886738 13.2990205,61.7985143 C13.2990205,58.2083548 16.2090596,55.2983157 19.7982666,55.2983157 C23.3884261,55.2983157 26.2984652,58.2083548 26.2984652,61.7985143" id="fill"></path>
        </g>
    </g>
</svg>