<?xml version="1.0" encoding="UTF-8" standalone="no"?>
<svg width="80px" height="80px" viewBox="0 0 80 80" version="1.1" xmlns="http://www.w3.org/2000/svg" xmlns:xlink="http://www.w3.org/1999/xlink">
    <!-- Generator: Sketch 3.8.2 (29753) - http://www.bohemiancoding.com/sketch -->
    <title>newyear</title>
    <desc>Created with Sketch.</desc>
    <defs></defs>
    <g id="Page-1" stroke="none" stroke-width="1" fill="none" fill-rule="evenodd">
        <g id="newyear" fill="currentColor">
            <path d="M50.9974216,23.0000056 C43.265578,22.993129 37,29.2646326 37,36.9991432 C37,44.7422497 43.265578,51 50.9974216,51 C58.7292651,51 65,44.7422497 65,36.9957049 C65,29.2646326 58.7292651,23.0000056 50.9974216,23.0000056 L50.9974216,23.0000056 Z" id="head"></path>
            <path d="M50.9966283,55 C65.019184,55 76.5367705,65.9439552 78,80 L24,80 C25.4601012,65.9473207 36.9808955,55 50.9966283,55 Z" id="body"></path>
            <polygon id="Fill-1" points="14.9998573 15 3.99971429 38 7 38 23 51.2538422 23 45.6562092 13 38 17 38 23 42.5380073 23 38 26 38"></polygon>
            <polygon id="Fill-2" points="7 63 12 63 7 59.301556"></polygon>
            <polygon id="Fill-3" points="23 54.372556 7 41.2723174 7 47.7647211 23 59.8649596"></polygon>
            <polygon id="Fill-4" points="7 56.1843211 16 63 16 79.9999991 19 79.9999991 19 63 23 63 7 50.8830367"></polygon>
        </g>
    </g>
</svg>