<svg width="20" height="20" viewBox="0 0 20 20" fill="none" xmlns="http://www.w3.org/2000/svg">
<g id="temperature">
<g id="Group 84">
<path id="Vector" d="M6.81663 2.49084C8.06329 2.49084 8.93579 3.30751 8.99996 4.51751L9.00413 4.66418L9.14746 12.7442L9.20996 12.8C9.6565 13.2191 9.99023 13.744 10.1803 14.3261C10.3704 14.9083 10.4107 15.529 10.2975 16.1308L10.2558 16.3242L10.2083 16.4992C9.75829 18.0183 8.38163 19.0625 6.81663 19.0625C5.25079 19.0625 3.87496 18.0183 3.42496 16.4992C3.24081 15.8807 3.22393 15.2244 3.37603 14.5973C3.52813 13.9702 3.84377 13.3946 4.29079 12.9292L4.42246 12.8L4.48413 12.7442L4.62829 4.67918C4.62829 3.47418 5.38746 2.62918 6.52413 2.50584L6.66829 2.49418L6.81663 2.49084ZM7.44663 10.8325H6.18579L6.14413 13.1683C6.14175 13.3014 6.10752 13.432 6.0443 13.5492C5.98109 13.6663 5.89073 13.7666 5.78079 13.8417C5.08913 14.3142 4.77829 15.2025 5.02246 16.025C5.26413 16.8417 5.99413 17.3958 6.81663 17.3958C7.63829 17.3958 8.36829 16.8425 8.61079 16.025C8.85413 15.2025 8.54413 14.3142 7.85163 13.8417C7.75577 13.7761 7.67468 13.6913 7.61354 13.5925C7.55241 13.4938 7.51259 13.3834 7.49663 13.2683L7.48829 13.1683L7.44663 10.8325ZM13.665 0.729176C14.0633 0.722539 14.459 0.795263 14.8289 0.94311C15.1989 1.09096 15.5357 1.31097 15.8197 1.59032C16.1038 1.86967 16.3294 2.20277 16.4833 2.5702C16.6373 2.93763 16.7166 3.33203 16.7166 3.73043C16.7166 4.12882 16.6373 4.52323 16.4833 4.89066C16.3294 5.25809 16.1038 5.59118 15.8197 5.87053C15.5357 6.14988 15.1989 6.3699 14.8289 6.51774C14.459 6.66559 14.0633 6.73831 13.665 6.73168C12.8776 6.71856 12.127 6.39658 11.5749 5.83517C11.0227 5.27375 10.7133 4.51786 10.7133 3.73043C10.7133 2.943 11.0227 2.1871 11.5749 1.62568C12.127 1.06427 12.8776 0.742296 13.665 0.729176ZM13.665 2.39584C13.4869 2.39139 13.3097 2.42262 13.1439 2.48769C12.9781 2.55276 12.827 2.65035 12.6995 2.77472C12.572 2.89909 12.4706 3.04772 12.4014 3.21185C12.3323 3.37598 12.2966 3.5523 12.2966 3.73043C12.2966 3.90855 12.3323 4.08487 12.4014 4.249C12.4706 4.41314 12.572 4.56177 12.6995 4.68613C12.827 4.8105 12.9781 4.90809 13.1439 4.97316C13.3097 5.03823 13.4869 5.06946 13.665 5.06501C14.0131 5.05631 14.3441 4.91188 14.5873 4.66255C14.8305 4.41321 14.9666 4.07871 14.9666 3.73043C14.9666 3.38214 14.8305 3.04764 14.5873 2.7983C14.3441 2.54897 14.0131 2.40454 13.665 2.39584Z" fill="#2C2D91"/>
</g>
</g>
</svg>
