<svg width="30" height="30" viewBox="0 0 30 30" fill="none" xmlns="http://www.w3.org/2000/svg">
<g clip-path="url(#clip0_547_5720)">
<path d="M18.9991 19.6385C17.7553 19.6385 17.108 18.9483 16.5878 18.394C16.1228 17.8978 15.7552 17.5055 14.9996 17.5055C14.2441 17.5055 13.8772 17.8978 13.4115 18.394C12.8913 18.9483 12.2447 19.6392 10.9995 19.6392C9.75566 19.6392 9.10834 18.9491 8.58816 18.394C8.12319 17.8978 7.75557 17.5055 7 17.5055V16.3772C8.24452 16.3772 8.89184 17.0674 9.41202 17.6217C9.87699 18.1179 10.2446 18.5102 11.0002 18.5102C11.7558 18.5102 12.1226 18.1179 12.5883 17.6217C13.1078 17.0674 13.7551 16.3772 15.0004 16.3772C16.2442 16.3772 16.8915 17.0674 17.4117 17.6217C17.8766 18.1179 18.2442 18.5102 18.9998 18.5102C19.7554 18.5102 20.1223 18.1179 20.588 17.6217C21.1082 17.0674 21.7555 16.3772 23 16.3772V17.5055C22.2444 17.5055 21.8768 17.8978 21.4111 18.394C20.8917 18.9483 20.2443 19.6385 18.9991 19.6385Z" fill="black"/>
<path d="M18.9991 22.2175C17.7553 22.2175 17.108 21.5274 16.5878 20.973C16.1228 20.4761 15.7552 20.0845 14.9996 20.0845C14.2441 20.0845 13.8772 20.4768 13.4115 20.973C12.8913 21.5274 12.2447 22.2175 10.9995 22.2175C9.75566 22.2175 9.10834 21.5274 8.58816 20.973C8.12319 20.4761 7.75557 20.0845 7 20.0845V18.9555C8.24452 18.9555 8.89184 19.6457 9.41202 20.2007C9.87699 20.697 10.2446 21.0885 11.0002 21.0885C11.7558 21.0885 12.1226 20.6962 12.5883 20.2007C13.1078 19.6457 13.7551 18.9555 15.0004 18.9555C16.2442 18.9555 16.8915 19.6457 17.4117 20.2007C17.8766 20.697 18.2442 21.0885 18.9998 21.0885C19.7554 21.0885 20.1223 20.6962 20.588 20.2007C21.1082 19.6457 21.7555 18.9555 23 18.9555V20.0845C22.2444 20.0845 21.8768 20.4768 21.4111 20.973C20.8917 21.5274 20.2443 22.2175 18.9991 22.2175ZM17.3615 9.75058V7H20.5052V9.75058H22.0766L18.9337 13.2865L15.7901 9.75058H17.3615Z" fill="black"/>
</g>
<defs>
<clipPath id="clip0_547_5720">
<rect width="16" height="15.2175" fill="white" transform="translate(7 7)"/>
</clipPath>
</defs>
</svg>
