<svg width="30" height="30" viewBox="0 0 30 30" fill="none" xmlns="http://www.w3.org/2000/svg">
<g clip-path="url(#clip0_547_5712)">
<path d="M7.10547 22.105C7.10547 22.5412 7.46547 22.895 7.88922 22.895H22.1117C22.5442 22.895 22.8955 22.545 22.8955 22.105C22.8955 21.67 22.5355 21.3162 22.1117 21.3162H7.88922C7.45672 21.3162 7.10547 21.6662 7.10547 22.105ZM14.0217 6.74998L13.5892 10.4225L14.948 10.925L13.3492 11.95L10.6292 11.2475L8.52922 15.4587L9.33422 15.8762L11.4905 13.175L12.978 14.0212L11.1055 16.0137L12.743 19.885L13.493 19.6112L12.693 16.6587L18.0705 12.4637L19.1967 13.225L18.3492 15.935L18.993 16.2125L20.6605 12.925L17.628 10.0162L14.8905 9.40123L14.8955 6.66748L14.0205 6.74998H14.0217Z" fill="black"/>
<path d="M17.6687 9.42364C18.4024 9.47614 19.0399 8.90489 19.0912 8.14739C19.1412 7.38989 18.5887 6.73239 17.8537 6.67864C17.1199 6.62614 16.4824 7.19739 16.4312 7.95364C16.3787 8.71239 16.9337 9.36989 17.6687 9.42364Z" fill="black"/>
</g>
<defs>
<clipPath id="clip0_547_5712">
<rect width="30" height="30" fill="white"/>
</clipPath>
</defs>
</svg>
