<?xml version="1.0" encoding="UTF-8" standalone="no"?>
<svg width="80px" height="80px" viewBox="0 0 80 80" version="1.1" xmlns="http://www.w3.org/2000/svg" xmlns:xlink="http://www.w3.org/1999/xlink">
    <!-- Generator: Sketch 3.8.2 (29753) - http://www.bohemiancoding.com/sketch -->
    <title>naistenpaiva</title>
    <desc>Created with Sketch.</desc>
    <defs></defs>
    <g id="Page-1" stroke="none" stroke-width="1" fill="none" fill-rule="evenodd">
        <g id="naistenpaiva" fill="currentColor">
            <path d="M37.9212425,56.9912607 C28.7763019,60.7630318 22.0891454,69.5175679 21,80 L75,80 C74.0207156,70.592819 68.5379638,62.5795805 60.8148293,58.3080477 L60.8148293,58.3080477 C59.6114826,58.4359061 58.3282653,58.5062277 56.9612357,58.5062278 C55.3464119,58.506228 53.848228,58.4081521 52.4602539,58.2330624 C63.99465,56.7771066 67.8955494,49.9957037 67.8955494,49.9957037 C67.8955494,49.9957037 62.8955494,51.4957035 60.3955494,49.9957035 C58.314677,48.7471801 60.044231,43.6882302 60.9709685,40.2970798 C61.5539387,38.7400599 61.8731038,37.0506728 61.8731038,35.2845244 C61.8731038,27.4903477 55.6323345,21.1745861 47.9374387,21.1745861 C40.2425429,21.1676533 34.0069058,27.4903477 34.0069058,35.2879908 C34.0069058,37.1087077 34.3461202,38.8479628 34.9639467,40.44471 C35.8989795,43.8333719 37.5517524,48.7689486 35.5,50 C33,51.5 28,50.0000001 28,50.0000001 C28,50.0000001 30.6306925,54.545943 37.9212425,56.9912607 L37.9212425,56.9912607 Z" id="Combined-Shape"></path>
            <path d="M25.7422222,51.3455556 C25.7422222,49.0338889 23.8683333,47.16 21.5572222,47.16 C21.0222222,47.16 20.5116667,47.2616667 20.0411111,47.4444444 C20.0466667,47.3583333 20.05,47.2722222 20.05,47.185 C20.05,44.8738889 18.1761111,43 15.865,43 C13.5533333,43 11.6794444,44.8738889 11.6794444,47.185 C11.6794444,47.2705556 11.6833333,47.355 11.6883333,47.4394444 C11.2216667,47.2594444 10.715,47.16 10.185,47.16 C7.87388889,47.16 6,49.0338889 6,51.3455556 C6,53.2777778 7.31,54.9033333 9.09,55.385 C8.51,56.1033333 8.16166667,57.0166667 8.16166667,58.0116667 C8.16166667,60.3233333 10.0355556,62.1972222 12.3472222,62.1972222 C13.8222222,62.1972222 15.1183333,61.4333333 15.8638889,60.28 C16.6088889,61.4333333 17.905,62.1972222 19.3805556,62.1972222 C21.6916667,62.1972222 23.5655556,60.3233333 23.5655556,58.0116667 C23.5655556,57.0183333 23.2188889,56.1061111 22.6405556,55.3883333 C24.4266667,54.9111111 25.7422222,53.2822222 25.7422222,51.3455556 M15.8711111,57.1494444 C13.5594444,57.1494444 11.6861111,55.2755556 11.6861111,52.9644444 C11.6861111,50.6527778 13.5594444,48.7788889 15.8711111,48.7788889 C18.1827778,48.7788889 20.0561111,50.6527778 20.0561111,52.9644444 C20.0561111,55.2755556 18.1827778,57.1494444 15.8711111,57.1494444" id="Fill-1"></path>
            <path d="M14.4359817,72.7431047 C12.0205739,73.0887167 9.47815754,72.3342687 7.61972222,70.4758333 C5.68361111,68.5397222 4.94583333,65.8602778 5.4025,63.3558333 C7.90694444,62.8991667 10.5863889,63.6369444 12.5225,65.5730556 C13.5984295,66.648985 14.3043291,67.9541684 14.6409609,69.3312349 L15.3217218,58 L15.3217218,58 L16.6776873,58 L18,80 L14,80 L14.4359817,72.7431047 L14.4359817,72.7431047 Z" id="Combined-Shape"></path>
        </g>
    </g>
</svg>