<?xml version="1.0" encoding="UTF-8"?><svg id="Layer_1" xmlns="http://www.w3.org/2000/svg" viewBox="0 0 120 120"><defs><style>.cls-1{fill:#cc1334;}</style></defs><polygon class="cls-1" points="107.378 42.027 100.479 35.127 85.846 49.76 71.212 35.127 64.313 42.027 78.946 56.66 64.313 71.293 71.212 78.193 85.846 63.559 100.479 78.193 107.378 71.293 92.745 56.66 107.378 42.027"/><path d="M59.141,54.981c-.152-9.562-4.696-16.341-7.495-19.623,.492-.679,.972-1.368,1.436-2.071l-3.05-2.015c-3.321,5.026-7.393,9.398-12.102,12.993-9.194,7.017-18.837,9.524-25.308,10.391l.243,1.812-.243,1.812c6.472,.868,16.115,3.375,25.309,10.393,4.707,3.593,8.778,7.964,12.103,12.992l3.049-2.016c-.715-1.082-1.472-2.128-2.251-3.152,2.609-2.835,8.486-10.468,8.311-21.515Zm-18.992,10.785c-6.319-4.822-12.826-7.645-18.506-9.298,5.681-1.652,12.188-4.475,18.505-9.298,3.391-2.588,6.464-5.56,9.198-8.86,1.393,1.726,3.123,4.301,4.392,7.634-.285-.069-.574-.117-.871-.117-3.288,0-5.954,4.402-5.954,9.833s2.666,9.833,5.954,9.833c.229,0,.455-.026,.677-.068-1.547,3.842-3.661,6.627-5.045,8.196-2.518-2.901-5.307-5.532-8.35-7.855Z"/></svg>