<svg xmlns="http://www.w3.org/2000/svg" width="24" height="24" viewBox="0 0 24 24">
    <g fill="none" fill-rule="evenodd">
        <g fill="currentColor" fill-rule="nonzero">
            <g>
                <path d="M14 6c.552 0 1 .448 1 1 0 .513-.386.936-.883.993L14 8H0c-.552 0-1-.448-1-1 0-.513.386-.936.883-.993L0 6h14z" transform="translate(5.000000, 5.000000)"/>
                <path d="M6.293-.707c.39-.39 1.024-.39 1.414 0 .36.36.388.928.083 1.32l-.083.094L1.415 7l6.292 6.293c.36.36.388.928.083 1.32l-.083.094c-.36.36-.928.388-1.32.083l-.094-.083-7-7c-.36-.36-.388-.928-.083-1.32l.083-.094 7-7z" transform="translate(5.000000, 5.000000)"/>
            </g>
        </g>
    </g>
</svg>
