<svg xmlns="http://www.w3.org/2000/svg" width="24" height="24" viewBox="0 0 24 24">
    <g fill="none" fill-rule="evenodd">
        <g fill="currentColor">
            <path d="M17.613 8.71c-.361-.28-.862-.277-1.218-.006l-.102.089L12 13.167 7.706 8.793l-.093-.083c-.399-.31-.964-.273-1.32.083-.358.358-.388.92-.09 1.311l.09.103 5 5 .094.084c.363.28.863.276 1.218.005l.102-.088 5-5.001.084-.093c.277-.36.276-.853.014-1.208l-.097-.113-.095-.083z" transform="translate(12.000000, 12.000000) rotate(-360.000000) translate(-12.000000, -12.000000)"/>
        </g>
    </g>
</svg>
