<?xml version="1.0" encoding="UTF-8"?><svg id="Layer_3" xmlns="http://www.w3.org/2000/svg" viewBox="0 0 120 120"><defs><style>.cls-1{fill:#ffde14;}.cls-2{fill:#562712;}</style></defs><g><path class="cls-1" d="M115.229,106.51l-23.053-30.556h12.054l-22.135-28.111h11.132L60.229,5.065,27.23,47.843h11.132l-22.135,28.111h12.054L5.229,106.51H41.059c12.779,0,25.558,0,38.337,0h35.833Z"/><path d="M116.233,107.01H4.226l23.053-30.556H15.197l22.135-28.111h-11.119L60.229,4.246l34.016,44.097h-11.119l22.135,28.111h-12.081l23.054,30.556Zm-110-1H114.226l-23.054-30.556h12.028l-22.135-28.111h11.145L60.229,5.884,28.248,47.343h11.145l-22.135,28.111h12.028L6.233,106.01Z"/></g><path d="M80.874,70.743c0,5.08-4.158,12.697-11.637,16.095-.619,.281-1.235-.44-.834-.978,1.646-2.217,2.441-5.072,2.441-7.597,0-4.795-2.56-6.845-2.56-6.845-.671,2.065-1.686,3.787-3.012,5.191-1.28,1.351-3.536-.098-2.864-1.791,2.958-7.444,3.09-10.084-2.389-13.302,2.287,8.484-8.453,9.5-8.453,19.083,0,1.46,.545,3.446,1.664,5.181,.37,.572-.29,1.243-.905,.926-7.803-4.021-13.2-13.135-13.2-20.57,0-9.272,9.288-17.033,9.608-17.292l.008-.008c.342,3.615,1.935,6.324,4.307,8.475,.504,.457,1.289-.086,.985-.688-1.166-2.306-2.389-5.941-1.779-10.389,.008-.031,.008-.069,.016-.099,.617-5.318,4.371-9.407,10.327-12.905-4.496,16.678,18.279,18.682,18.279,37.513Z"/><rect class="cls-2" x="42.207" y="106.962" width="34.457" height="8.102"/></svg>