<?xml version="1.0" encoding="UTF-8"?><svg id="Layer_3" xmlns="http://www.w3.org/2000/svg" viewBox="0 0 120 120"><defs><style>.cls-1{fill:#fff;}.cls-2{fill:#cb1334;}.cls-3{fill:#562712;}</style></defs><g><path class="cls-2" d="M115.229,106.51l-23.053-30.556h12.054l-22.135-28.111h11.132L60.229,5.065,27.23,47.843h11.132l-22.135,28.111h12.054L5.229,106.51H41.059c12.779,0,25.558,0,38.337,0h35.833Z"/><path d="M116.233,107.01H4.226l23.053-30.556H15.197l22.135-28.111h-11.119L60.229,4.246l34.016,44.097h-11.119l22.135,28.111h-12.081l23.054,30.556Zm-110-1H114.226l-23.054-30.556h12.028l-22.135-28.111h11.145L60.229,5.884,28.248,47.343h11.145l-22.135,28.111h12.028L6.233,106.01Z"/></g><path class="cls-1" d="M80.954,75.371c0,5.274-4.197,13.182-11.746,16.71-.625,.292-1.246-.456-.842-1.015,1.661-2.301,2.464-5.266,2.464-7.888,0-4.978-2.584-7.106-2.584-7.106-.677,2.143-1.701,3.932-3.041,5.389-1.292,1.403-3.569-.102-2.891-1.859,2.985-7.728,3.119-10.47-2.411-13.81,2.308,8.808-8.532,9.863-8.532,19.813,0,1.516,.55,3.577,1.68,5.379,.373,.594-.293,1.291-.913,.962-7.876-4.175-13.324-13.637-13.324-21.356,0-9.626,9.375-17.684,9.698-17.953l.008-.008c.345,3.753,1.953,6.566,4.347,8.799,.509,.474,1.301-.09,.994-.714-1.177-2.394-2.411-6.168-1.796-10.787,.008-.032,.008-.071,.016-.103,.623-5.521,4.412-9.767,10.423-13.399-4.538,17.315,18.45,19.396,18.45,38.947Z"/><rect class="cls-3" x="42.207" y="106.962" width="34.457" height="8.102"/></svg>