<svg width="24" height="24" viewBox="0 0 24 24" xmlns="http://www.w3.org/2000/svg">
    <g fill="currentColor" fill-rule="nonzero">
        <path d="M12 4.563a7.437 7.437 0 1 0 0 14.874 7.437 7.437 0 0 0 0-14.875zm0 1.5a5.938 5.938 0 1 1 0 11.875 5.938 5.938 0 0 1 0-11.875z"/>
        <path d="M12 8.602a.75.75 0 0 1 .743.649l.007.101v2.184l1.96.98a.75.75 0 0 1 .375.913l-.04.094a.75.75 0 0 1-.911.375l-.094-.04-2.375-1.187a.75.75 0 0 1-.408-.566L11.25 12V9.352a.75.75 0 0 1 .75-.75z"/>
    </g>
</svg>
