<svg xmlns="http://www.w3.org/2000/svg" width="24" height="24" viewBox="0 0 24 24">
    <g fill="none" fill-rule="evenodd">
        <g fill-rule="nonzero">
            <circle cx="14" cy="14" r="14" fill="#FFF"/>
            <g fill="currentColor">
                <path d="M1.709.295l4.24 4.24 4.244-4.24c.36-.361.926-.391 1.32-.085l.095.084c.39.39.393 1.022 0 1.415l-4.244 4.24 4.243 4.244c.36.36.39.926.085 1.32l-.084.095c-.39.39-1.022.393-1.415 0L5.95 7.364l-4.241 4.243c-.36.36-.926.39-1.32.085l-.095-.084c-.39-.39-.393-1.022 0-1.415L4.536 5.95.295 1.709C-.066 1.349-.096.783.21.389L.294.294c.39-.39 1.022-.393 1.415 0z" transform="translate(8.049374, 8.049374)"/>
            </g>
        </g>
    </g>
</svg>
