<?xml version="1.0" encoding="UTF-8"?><svg id="Layer_1" xmlns="http://www.w3.org/2000/svg" viewBox="0 0 120 120"><defs><style>.cls-1{fill:none;}.cls-2,.cls-3{fill:#fff;}.cls-4{fill:#7d7d7d;}.cls-5{fill:#2babe2;}.cls-3{stroke:#000;stroke-miterlimit:10;}.cls-6{opacity:.3;}</style></defs><g class="cls-6"><path class="cls-5" d="M107.686,12.124H11.314c-4.315,0-7.814,3.498-7.814,7.814V99.31c0,4.315,3.498,7.814,7.814,7.814H107.686c4.315,0,7.814-3.498,7.814-7.814V19.937c0-4.315-3.498-7.814-7.814-7.814Z"/></g><path d="M107.686,13.124c3.757,0,6.814,3.057,6.814,6.814V99.31c0,3.757-3.057,6.814-6.814,6.814H11.314c-3.757,0-6.814-3.057-6.814-6.814V19.937c0-3.757,3.057-6.814,6.814-6.814H107.686m0-1H11.314c-4.315,0-7.814,3.498-7.814,7.814V99.31c0,4.315,3.498,7.814,7.814,7.814H107.686c4.315,0,7.814-3.498,7.814-7.814V19.937c0-4.315-3.498-7.814-7.814-7.814h0Z"/><path class="cls-3" d="M67.05,80.2l-27.193-.304c-2.192-.011-3.971-1.71-4.102-3.731-.144-2.22,1.738-4.268,4.156-4.26l27.193,.304c2.197,.037,3.971,1.869,3.941,4.05-.03,2.161-1.819,3.934-3.996,3.941Z"/><path class="cls-1" d="M80.31,63.717c0-3.755-.749-7.336-2.099-10.609H26.569c-1.35,3.273-2.099,6.855-2.099,10.609,0,15.396,12.523,27.92,27.92,27.92s27.92-12.523,27.92-27.92Z"/><path class="cls-1" d="M65.174,95.319v-3.344c-3.902,1.772-8.228,2.768-12.784,2.768-4.096,0-8.006-.805-11.589-2.254v4.38c3.109,.817,6.64,1.44,10.979,1.305,5.946-.137,9.917-1.548,13.394-2.855Z"/><path class="cls-2" d="M30.474,38.056h43.828c-.574-10.757-10.167-19.352-21.912-19.352s-21.341,8.595-21.915,19.352Z"/><path class="cls-2" d="M24.664,38.282c-.512,.218-.949,.581-1.258,1.037,.309-.456,.746-.82,1.258-1.037Z"/><path class="cls-2" d="M82.371,39.319c-.206-.304-.469-.567-.773-.773,.304,.206,.567,.469,.773,.773Z"/><path class="cls-2" d="M25.773,38.056c-.393,0-.768,.08-1.109,.225,.342-.145,.717-.225,1.11-.225h0Z"/><path class="cls-2" d="M25.773,53.107c-.393,0-.768-.08-1.11-.225,.342,.145,.717,.225,1.109,.225h0Z"/><path class="cls-2" d="M23.755,52.268c.259,.259,.567,.469,.909,.614-.342-.145-.65-.355-.909-.614Z"/><rect class="cls-2" x="26.022" y="41.163" width="53.732" height="8.837"/><path d="M95.916,107.124c-5.838-8.096-12.458-12.812-16.65-13.712-2.766-.594-5.383-.432-5.383-.432-2.021,.132-3.812,.603-5.602,1.21v-3.838c9.057-5.424,15.135-15.332,15.135-26.635,0-3.869-.718-7.572-2.018-10.991,.867-.492,1.462-1.413,1.462-2.476v-9.336c0-.589-.181-1.139-.49-1.595-.206-.304-.469-.567-.773-.773-.456-.309-1.005-.49-1.595-.49h-2.594c-.571-12.471-11.559-22.459-25.019-22.459s-24.451,9.987-25.023,22.459h-1.594c-.393,0-.768,.08-1.11,.225-.512,.218-.949,.581-1.258,1.037-.309,.456-.49,1.005-.49,1.595v9.336c0,.712,.273,1.358,.709,1.86-1.453,3.588-2.261,7.504-2.261,11.607,0,11.794,6.616,22.07,16.331,27.318v4.94c-.511-.159-1.014-.317-1.508-.473-5.03-1.584-9.374-2.955-14.881-.616-3.75,1.593-6.99,4.435-9.626,8.452l-1.596,3.683c28.611,.034,57.222,.068,85.832,.102Zm-21.614-69.067H30.474c.574-10.757,10.17-19.352,21.915-19.352s21.339,8.595,21.912,19.352Zm-48.28,3.107h53.732v8.837H26.022v-8.837Zm-1.359,11.719c.342,.145,.717,.225,1.11,.225h0c-.393,0-.768-.08-1.109-.225-.342-.145-.65-.355-.909-.614,.259,.259,.567,.469,.909,.614Zm-.194,10.835c0-3.755,.749-7.336,2.099-10.609h51.641c1.35,3.273,2.099,6.855,2.099,10.609,0,15.396-12.523,27.92-27.92,27.92s-27.92-12.523-27.92-27.92Zm16.331,28.772c3.583,1.449,7.493,2.254,11.589,2.254,4.557,0,8.883-.996,12.784-2.768v3.344c-3.477,1.307-7.448,2.718-13.394,2.855-4.339,.135-7.87-.489-10.979-1.305v-4.38Z"/><path class="cls-2" d="M20.505,99.445c-3.107,2.103-4.66,5.296-5.485,7.659,25.64-.023,51.281-.046,76.921-.069-2.065-3.303-5.479-7.526-10.817-9.523-9.525-3.564-14.373,4.002-28.505,4.642-15.862,.718-24.05-8.168-32.114-2.709Z"/><path d="M60.134,56.992c-2.405,0-4.361,1.96-4.361,4.369s1.956,4.369,4.361,4.369,4.361-1.96,4.361-4.369-1.956-4.369-4.361-4.369Z"/><ellipse cx="43.931" cy="61.361" rx="4.361" ry="4.369"/><path class="cls-2" d="M105.254,74.215V25.107c0-3.328-2.723-6.051-6.051-6.051s-6.051,2.723-6.051,6.051v49.108c-3.678,2.105-6.163,6.059-6.163,10.6,0,6.746,5.468,12.214,12.214,12.214s12.214-5.468,12.214-12.214c0-4.542-2.484-8.496-6.163-10.6Z"/><path d="M99.203,98.018c-7.279,0-13.202-5.923-13.202-13.202,0-4.523,2.347-8.747,6.162-11.159V25.107c0-3.881,3.158-7.04,7.04-7.04s7.039,3.158,7.039,7.04v48.549c3.815,2.412,6.163,6.635,6.163,11.159,0,7.279-5.923,13.202-13.202,13.202Zm0-77.974c-2.792,0-5.063,2.271-5.063,5.063v49.681l-.497,.284c-3.494,2-5.665,5.733-5.665,9.743,0,6.189,5.036,11.226,11.226,11.226s11.226-5.036,11.226-11.226c0-4.011-2.171-7.743-5.665-9.743l-.498-.284V25.107c0-2.792-2.271-5.063-5.062-5.063Z"/><path class="cls-4" d="M101.662,76.409v-13.786h-4.918v13.786c-3.629,1.063-6.282,4.411-6.282,8.385,0,4.828,3.914,8.742,8.742,8.742s8.742-3.914,8.742-8.742c0-3.973-2.653-7.321-6.282-8.385Z"/><path class="cls-3" d="M39.912,71.905c-.018,2.664-.036,5.327-.055,7.991"/><path class="cls-3" d="M43.958,71.905c-.018,2.664-.036,5.327-.055,7.991"/><path class="cls-3" d="M47.915,71.905c-.018,2.664-.036,5.327-.055,7.991"/><path class="cls-3" d="M52.037,71.905c-.018,2.664-.036,5.327-.055,7.991"/><path class="cls-3" d="M56.16,71.905c-.018,2.664-.036,5.327-.055,7.991"/><path class="cls-3" d="M60.605,71.905c-.018,2.664-.036,5.327-.055,7.991"/><path class="cls-3" d="M64.523,71.905c-.018,2.664-.036,5.327-.055,7.991"/><path class="cls-3" d="M67.918,71.905c-.018,2.664-.036,5.327-.055,7.991"/><path class="cls-3" d="M35.755,76.165l35.29,.094"/></svg>