<svg width="24" height="24" viewBox="0 0 24 24" xmlns="http://www.w3.org/2000/svg">
    <path d="M12 2a5 5 0 0 0-5 5l.006.25c.046.914.338 1.778.827 2.514l.117.167-.193.097C4.892 11.513 3 14.438 3 17.728V20a1 1 0 0 0 1 1h16a1 1 0 0 0 1-1v-2.273l-.004-.266c-.099-3.18-1.965-5.988-4.753-7.433l-.194-.096.119-.168A5 5 0 0 0 12 2zm0 2a3 3 0 0 1 1.844 5.367l-.16.116a1 1 0 0 0 .292 1.79l.251.075c2.824.908 4.773 3.465 4.773 6.38V19H5v-1.273c0-3 2.065-5.62 5.025-6.456a1 1 0 0 0 .29-1.79A3 3 0 0 1 12 4z" fill="currentColor" fill-rule="nonzero"/>
</svg>
