<svg width="24" height="24" viewBox="0 0 24 24" xmlns="http://www.w3.org/2000/svg">
    <path d="M11.682 4.375c1.186 0 2 .806 2 1.987l.132 7.461.127.118c.819.805 1.17 2 .902 3.143l-.05.19c-.413 1.394-1.676 2.351-3.111 2.351-1.436 0-2.698-.957-3.111-2.351a3.347 3.347 0 0 1 .851-3.333l.127-.118.133-7.448c0-1.14.742-1.926 1.84-1.995zM12.28 12h-1.2l-.038 2.206a.75.75 0 0 1-.246.542l-.08.064a1.836 1.836 0 0 0-.708 2.035 1.758 1.758 0 0 0 1.673 1.278c.766 0 1.447-.516 1.673-1.278a1.836 1.836 0 0 0-.708-2.035l-.08-.064a.75.75 0 0 1-.246-.542L12.28 12zm7.995-5.643a.7.7 0 0 1 .401.82l-.034.099-.072.162C20.087 8.475 19.545 8.7 18.286 8.7c-.268 0-.46.15-.643.576a.7.7 0 1 1-1.286-.552c.388-.907 1.053-1.424 1.929-1.424l.382-.004c.345-.013.448-.069.569-.306l.076-.165.044-.1.047-.093a.7.7 0 0 1 .872-.275zm0-3a.7.7 0 0 1 .401.82l-.034.099-.072.162C20.087 5.475 19.545 5.7 18.286 5.7c-.268 0-.46.15-.643.576a.7.7 0 1 1-1.286-.552c.388-.907 1.053-1.424 1.929-1.424l.382-.004c.345-.013.448-.069.569-.306l.076-.165.044-.1.047-.093a.7.7 0 0 1 .872-.275z" fill="currentColor" fill-rule="nonzero"/>
</svg>
