<?xml version="1.0" encoding="UTF-8"?><svg id="Layer_1" xmlns="http://www.w3.org/2000/svg" viewBox="0 0 120 120"><defs><style>.cls-1{fill:none;}.cls-2{fill:#20bce5;}</style></defs><path d="M98.946,30.595c-3.461-.67-6.809,1.593-7.479,5.054h0c-.67,3.461,1.593,6.809,5.054,7.479,3.461,.669,6.809-1.593,7.479-5.054,.67-3.461-1.593-6.809-5.054-7.479h0Z"/><path d="M117.232,33.906c-.007-.007-.015-.015-.022-.02l-.074-.066c-.172-.158-.419-.357-.8-.49-.621-.212-1.165-.098-1.396-.049-.209,.044-.384,.111-.428,.131-.096,.037-.18,.076-.261,.118-.01,.007-.16,.086-.293,.185-.384,.273-.707,.763-.8,.931-.091,.163-.155,.303-.283,.574-.328,.704-1.098,2.352-3.793,7.536l-.094,.118c-.113,.091-.217,.187-.387,.342-.581,.534-1.946,1.783-6.908,5.928-.741,1.012-.906,2.278-.414,3.236,.148,.291,.722,1.249,1.793,1.372,.788,.089,1.443-.335,1.618-.468l2.992-2.443,4.669-3.98c.076-.091,.111-.133,.153-.172,.414-.325,.628-.672,.653-.709l1.818-3.399,2.783-5.472c.591-1.069,.374-2.381-.525-3.199v-.002Z"/><g><path class="cls-1" d="M28.059,46.45c.053,0,.106,0,.159-.003,1.094-.042,2.103-.506,2.848-1.306,.744-.803,1.131-1.846,1.089-2.94-.042-1.091-.506-2.103-1.306-2.845-.805-.742-1.83-1.123-2.94-1.089-1.091,.04-2.103,.503-2.845,1.306-.744,.803-1.131,1.846-1.089,2.938,.04,1.094,.503,2.103,1.306,2.847,.763,.707,1.746,1.091,2.779,1.091Z"/><path d="M69.222,42.511c-7.07-6.552-14.14-13.105-21.209-19.657-.374-.352-.922-.466-1.396-.283l-24.96,9.207c-.204,.074-.384,.196-.53,.355l-13.959,15.199c-.506,.548-.471,1.404,.077,1.91l6.717,6.23c.543,.508,1.404,.482,1.91-.066l3.677-3.92,13.174,12.212c.356-.349,1.082-1.002,2.133-1.72,2.127-1.453,5.565-3.141,9.913-2.969,1.448,.07,2.889,.35,4.318,.829,1.477-.72,3.305-.514,4.577,.665,.732,.678,1.14,1.565,1.257,2.485,.305,.228,.61,.452,.912,.699,1.613,1.318,3.131,2.186,4.54,2.726,.925,.354,1.802,.565,2.628,.665l6.608-23.194c.143-.493-.008-1.025-.387-1.372Zm-38.157,2.63c-.744,.8-1.754,1.263-2.848,1.306-.053,.003-.106,.003-.159,.003-1.033,0-2.016-.384-2.779-1.091-.803-.744-1.266-1.754-1.306-2.847-.042-1.091,.344-2.135,1.089-2.938,.742-.803,1.753-1.266,2.845-1.306,1.11-.034,2.135,.347,2.94,1.089,.8,.742,1.264,1.754,1.306,2.845,.042,1.094-.344,2.138-1.089,2.94Zm28.78,14.868c-4.055-3.735-8.638-7.96-13.26-12.219-5.33-4.914-10.712-9.875-15.387-14.179l14.805-5.51c2.583,2.448,5.796,5.481,9.009,8.514,3.213,3.036,6.429,6.071,9.011,8.519l-4.177,14.876Z"/></g><path d="M89.027,62.889c2.354,2.559,4.767,3.834,7.051,3.694,1.411-.023,2.702-.46,3.796-1.021l2.112-10.913c-1.027-.355-1.591-1.234-1.8-1.643-.63-1.224-.431-2.822,.507-4.068l.062-.064c.17-.142,.325-.272,.486-.407-1.047-1.779-2.801-3.132-4.973-3.587l-.3-.054c-1.832-.155-4.467,.022-6.536,1.729-2.002,1.645-2.529,4.034-2.955,5.952-.51,2.304-.965,4.676-1.375,7.09,1.358,.836,2.67,1.928,3.927,3.292Z"/><path d="M98.782,80.208l.015-.078c-.063,.014-.124,.031-.187,.045l.172,.033Z"/><path class="cls-2" d="M60.83,90.025c-3.788,0-7.537-1.561-11.143-4.638-2.22-1.892-4.403-2.904-6.489-3.011-3.797-.207-6.383,2.636-6.408,2.665l-.175,.179c-1.784,1.6-6.594,5.245-12.697,4.502-2.737-.32-5.191-1.267-7.287-2.812-.993-.735-1.655-1.43-2.188-1.986-.548-.576-.897-.944-1.54-1.347-.903-.566-1.956-.914-3.13-1.036-.896-.092-1.705-.528-2.274-1.228s-.832-1.579-.739-2.478c.091-.887,.552-1.723,1.264-2.29,.707-.563,1.604-.828,2.479-.72,2.176,.224,4.203,.906,5.987,2.024,1.344,.841,2.121,1.655,2.808,2.373,.47,.493,.822,.862,1.352,1.255,1.129,.836,2.496,1.352,4.062,1.534,3.31,.386,6.111-1.687,7.227-2.662,1.186-1.298,5.527-5.006,11.597-4.721,3.613,.183,7.156,1.735,10.535,4.617,2.558,2.184,4.969,3.169,7.376,2.994,3.07-.261,5.105-2.574,5.125-2.598l.106-.115c2.999-3.03,12.85-8.973,22.279-.18,6.367,5.936,12.012,.692,12.635,.075,.398-.399,4.056-3.913,9.59-4.449,1.921-.123,3.509,1.237,3.688,3.032,.177,1.857-1.185,3.511-3.034,3.694-3.187,.31-5.448,2.484-5.471,2.507-.078,.083-10.819,10.527-22.016,.079-6.373-5.936-12.196-.665-12.839-.045l-.002-.002c-.909,.991-4.31,4.294-9.521,4.735-.39,.031-.774,.05-1.157,.05Zm-50.775-10.225l.022,.003-.022-.003Z"/><path class="cls-2" d="M10.055,65.723l.022,.003-.022-.003Zm.129-1.238h0Z"/><path class="cls-2" d="M114.866,92.819c.024-.225,.027-.455,.004-.689-.18-1.795-1.772-3.155-3.688-3.032-5.534,.536-9.191,4.05-9.59,4.449-.623,.617-6.268,5.86-12.635-.075-9.43-8.792-19.279-2.851-22.279,.18l-.104,.113c-.021,.023-2.059,2.339-5.128,2.6-2.409,.172-4.818-.811-7.376-2.994-3.379-2.882-6.922-4.435-10.535-4.617-6.069-.291-10.411,3.423-11.597,4.721-1.115,.976-3.925,3.041-7.226,2.662-1.568-.184-2.936-.699-4.063-1.534-.529-.393-.882-.762-1.355-1.259-.686-.718-1.463-1.53-2.804-2.369-1.784-1.118-3.812-1.801-5.987-2.024-.875-.108-1.772,.155-2.479,.72-.712,.567-1.173,1.403-1.264,2.29-.033,.32-.005,.634,.049,.942v14.494H114.878v-14.586l-.013,.009Z"/><path d="M86.651,48.186c-3.452-3.698-4.48-4.898-4.942-5.438-.148-.172-.239-.278-.337-.382l-.081-.128c-2.061-5.504-2.62-7.221-2.859-7.955-.086-.268-.133-.414-.199-.579l-.007-.015c-.089-.197-.33-.694-.68-1.015-.126-.113-.264-.212-.268-.217-.074-.052-.155-.101-.236-.148-.015-.007-.182-.101-.414-.182-.207-.071-.746-.259-1.399-.121-.394,.084-.662,.254-.852,.389l-.108,.074h.002c-.993,.704-1.367,1.98-.914,3.103l2.111,5.785,1.401,3.603c.052,.123,.234,.448,.529,.741,.059,.069,.091,.121,.121,.17l4.194,4.566,2.677,2.79c.116,.112,.374,.313,.722,.464,.123-.589,.237-1.188,.366-1.77,.257-1.159,.561-2.48,1.174-3.738Z"/><path class="cls-2" d="M60.83,75.947c-3.788,0-7.537-1.561-11.143-4.638-2.22-1.892-4.403-2.904-6.489-3.011-3.797-.206-6.383,2.636-6.408,2.665l-.175,.179c-1.784,1.6-6.594,5.249-12.697,4.502-2.739-.32-5.193-1.267-7.287-2.812-.989-.732-1.649-1.423-2.18-1.979-.557-.585-.908-.954-1.548-1.354-.901-.565-1.954-.913-3.131-1.036-.896-.092-1.704-.527-2.273-1.227s-.832-1.579-.739-2.478c.091-.888,.552-1.724,1.264-2.291,.707-.564,1.604-.828,2.479-.72,2.176,.224,4.203,.906,5.987,2.024,1.344,.841,2.121,1.655,2.808,2.373,.449,.472,.817,.858,1.352,1.255,1.129,.835,2.496,1.353,4.063,1.535,3.292,.382,6.109-1.687,7.226-2.662,1.185-1.299,5.51-5.014,11.597-4.721,3.613,.182,7.156,1.734,10.535,4.616,2.56,2.185,4.987,3.166,7.375,2.994,3.071-.261,5.106-2.574,5.126-2.598l.106-.115c3-3.031,12.852-8.971,22.279-.179,6.368,5.934,12.012,.691,12.635,.074,.398-.399,4.056-3.913,9.59-4.449,1.942-.114,3.509,1.237,3.688,3.031,.177,1.858-1.185,3.512-3.034,3.695-3.187,.31-5.448,2.484-5.471,2.507-.079,.082-10.822,10.528-22.016,.08-6.386-5.949-12.195-.669-12.837-.047l-.002-.002c-.905,.988-4.307,4.295-9.523,4.736-.386,.032-.772,.05-1.157,.05Z"/></svg>