<?xml version="1.0" encoding="UTF-8"?><svg id="Layer_1" xmlns="http://www.w3.org/2000/svg" viewBox="0 0 120 120"><defs><style>.cls-1{fill:none;}.cls-2{fill:#20bce5;}</style></defs><path d="M102.001,15.377H19.411c-4.372,7.023-8.744,14.046-13.116,21.068H115.117c-4.372-7.023-8.744-14.046-13.116-21.068Z"/><line x1="8.73" y1="36.039" x2="111.557" y2="36.039"/><rect class="cls-1" x="78.436" y="53.856" width="14.886" height="14.886"/><path d="M14.038,39.225v32.47c.729,.289,1.435,.622,2.097,1.037,1.29,.805,2.043,1.596,2.708,2.296,.45,.471,.837,.878,1.408,1.3,.974,.719,2.111,1.208,3.378,1.481,.323,.07,.648,.135,.988,.174,.972,.113,1.899,.026,2.761-.174,1.97-.459,3.581-1.529,4.537-2.299v-21.656h19.46v19.515c.763,.503,1.52,1.066,2.269,1.704,1.578,1.347,3.135,2.249,4.656,2.736,1.069,.342,2.12,.485,3.146,.406,.679-.057,1.307-.207,1.881-.406,2.278-.789,3.672-2.385,3.689-2.405l.188-.205c3.607-3.529,12.699-8.074,21.303-.046,1.552,1.447,3.068,2.26,4.493,2.655,1.632,.452,3.143,.352,4.445,0,2.5-.676,4.231-2.267,4.571-2.601,.088-.09,2.091-2.096,5.358-3.345V39.225H14.038Zm64.398,29.517v-14.886h14.886v14.886h-14.886Z"/><path class="cls-2" d="M114.866,92.819c.024-.225,.027-.455,.004-.689-.181-1.795-1.749-3.155-3.688-3.032-5.534,.536-9.191,4.05-9.59,4.449-.622,.617-6.267,5.86-12.635-.075-9.43-8.792-19.28-2.851-22.279,.18l-.104,.113c-.021,.023-2.059,2.339-5.128,2.6-2.411,.172-4.818-.811-7.376-2.994-3.379-2.882-6.922-4.435-10.535-4.617-6.043-.291-10.411,3.423-11.597,4.721-1.116,.976-3.923,3.041-7.226,2.662-1.568-.184-2.936-.699-4.063-1.534-.529-.393-.882-.762-1.355-1.259-.686-.718-1.463-1.53-2.804-2.369-1.784-1.118-3.812-1.801-5.987-2.024-.875-.108-1.772,.155-2.479,.72-.712,.567-1.173,1.403-1.264,2.29-.033,.32-.005,.634,.049,.942v14.494H114.878v-14.586l-.013,.009Z"/><path class="cls-2" d="M60.83,90.025c-3.788,0-7.537-1.561-11.143-4.638-2.22-1.892-4.403-2.904-6.489-3.011-3.787-.207-6.383,2.636-6.408,2.665l-.175,.179c-1.784,1.6-6.592,5.245-12.697,4.502-2.737-.32-5.191-1.267-7.287-2.812-.993-.735-1.655-1.43-2.188-1.986-.548-.576-.897-.944-1.54-1.347-.903-.566-1.956-.914-3.13-1.036-.896-.092-1.705-.528-2.274-1.228s-.832-1.579-.739-2.478c.091-.887,.552-1.723,1.264-2.29,.707-.563,1.604-.828,2.479-.72,2.176,.224,4.203,.906,5.987,2.024,1.344,.841,2.121,1.655,2.808,2.373,.47,.493,.822,.862,1.352,1.255,1.129,.836,2.496,1.352,4.062,1.534,3.307,.386,6.111-1.687,7.227-2.662,1.186-1.298,5.554-5.006,11.597-4.721,3.613,.183,7.156,1.735,10.535,4.617,2.558,2.184,4.965,3.169,7.376,2.994,3.07-.261,5.105-2.574,5.125-2.598l.106-.115c2.999-3.03,12.85-8.973,22.279-.18,6.368,5.936,12.013,.692,12.635,.075,.398-.399,4.056-3.913,9.59-4.449,1.939-.123,3.508,1.237,3.688,3.032,.177,1.857-1.185,3.511-3.034,3.694-3.187,.31-5.448,2.484-5.471,2.507-.078,.083-10.82,10.527-22.016,.079-6.373-5.936-12.197-.665-12.839-.045l-.002-.002c-.909,.991-4.31,4.294-9.521,4.735-.39,.031-.774,.05-1.157,.05Z"/></svg>