<svg width="24" height="24" viewBox="0 0 24 24" xmlns="http://www.w3.org/2000/svg">
    <path d="M19.523 14.25a2.86 2.86 0 0 1 2.771 2.13 2.882 2.882 0 0 1-1.327 3.233 2.844 2.844 0 0 1-3.46-.464 1 1 0 0 1 1.33-1.488l.094.084a.844.844 0 0 0 1.029.14.881.881 0 0 0 .402-.99.862.862 0 0 0-.719-.637l-.115-.007H9.686a1 1 0 0 1-.119-1.993l.117-.007h9.84zm-12.303 0a1 1 0 0 1 .116 1.994l-.116.007H5.467a1 1 0 0 1-.117-1.994l.117-.006H7.22zm-4.163 0a1 1 0 0 1 .117 1.994l-.117.007H2.18a1 1 0 0 1-.117-1.994l.117-.006h.877zm18.288-7.987a3.357 3.357 0 0 1 1.543 3.755 3.327 3.327 0 0 1-3.017 2.477l-.187.006H9.63a1 1 0 0 1-.117-1.994l.117-.006H19.68a1.325 1.325 0 0 0 1.274-.994 1.356 1.356 0 0 0-.618-1.516 1.302 1.302 0 0 0-1.485.118l-.102.093a1 1 0 1 1-1.419-1.41 3.303 3.303 0 0 1 4.014-.529zM7.22 10.5a1 1 0 0 1 .116 1.993l-.116.007H5.467a1 1 0 0 1-.117-1.993l.117-.007H7.22zm-4.163 0a1 1 0 0 1 .117 1.993l-.117.007H2.18a1 1 0 0 1-.117-1.993l.117-.007h.877zm10.176-7.114a2.885 2.885 0 0 1 1.329 3.238 2.862 2.862 0 0 1-2.591 2.122l-.175.005H9.63a1 1 0 0 1-.117-1.994l.117-.006h2.17a.86.86 0 0 0 .83-.644.885.885 0 0 0-.404-.993.84.84 0 0 0-.94.064l-.087.077a1 1 0 0 1-1.424-1.404 2.842 2.842 0 0 1 3.458-.465zM7.22 6.75a1 1 0 0 1 .116 1.993l-.116.007H5.467a1 1 0 0 1-.117-1.993l.117-.007H7.22zm-4.163 0a1 1 0 0 1 .117 1.993l-.117.007H2.18a1 1 0 0 1-.117-1.993l.117-.007h.877z" fill="currentColor" fill-rule="nonzero"/>
</svg>
