<svg width="24" height="24" viewBox="0 0 24 24" xmlns="http://www.w3.org/2000/svg">
    <g fill="currentColor" fill-rule="nonzero">
        <path d="M18.019 14.25a2.237 2.237 0 0 1 2.168 1.666 2.255 2.255 0 0 1-1.039 2.531 2.225 2.225 0 0 1-2.707-.363.75.75 0 0 1 .985-1.126l.083.073a.725.725 0 0 0 .884.12.755.755 0 0 0-.26-1.393l-.11-.007h-7.875a.75.75 0 0 1-.103-1.493l.102-.007h7.872zm1.431-6.396a2.635 2.635 0 0 1 1.212 2.947 2.612 2.612 0 0 1-2.339 1.943l-.176.007h-8.043a.75.75 0 0 1-.102-1.494l.102-.006h8.041a1.11 1.11 0 0 0 1.067-.832 1.135 1.135 0 0 0-.517-1.27 1.092 1.092 0 0 0-1.23.087l-.1.09A.75.75 0 1 1 16.3 8.269a2.593 2.593 0 0 1 3.15-.415zm-6.489-2.302a2.258 2.258 0 0 1 1.04 2.534 2.24 2.24 0 0 1-1.997 1.659l-.167.006h-1.733a.75.75 0 0 1-.102-1.494l.102-.006h1.736a.739.739 0 0 0 .712-.553.758.758 0 0 0-.346-.85.722.722 0 0 0-.8.049l-.082.072a.75.75 0 0 1-1.069-1.053 2.223 2.223 0 0 1 2.706-.364zM8.176 8.25a.75.75 0 0 1 .101 1.493l-.101.007H6.773a.75.75 0 0 1-.101-1.493l.101-.007h1.403zM8.176 11.25a.75.75 0 0 1 .101 1.493l-.101.007H6.773a.75.75 0 0 1-.101-1.493l.101-.007h1.403zM8.176 14.25a.75.75 0 0 1 .101 1.494l-.101.007H6.773a.75.75 0 0 1-.101-1.494l.101-.006h1.403zM4.846 8.25a.75.75 0 0 1 .101 1.493l-.101.007h-.702a.75.75 0 0 1-.102-1.493l.102-.007h.702zM4.846 11.25a.75.75 0 0 1 .101 1.493l-.101.007h-.702a.75.75 0 0 1-.102-1.493l.102-.007h.702zM4.846 14.25a.75.75 0 0 1 .101 1.494l-.101.007h-.702a.75.75 0 0 1-.102-1.494l.102-.006h.702z"/>
    </g>
</svg>
