<?xml version="1.0" encoding="UTF-8"?><svg id="Layer_1" xmlns="http://www.w3.org/2000/svg" viewBox="0 0 120 120"><defs><style>.cls-1,.cls-2{fill:none;}.cls-2{stroke-linecap:round;stroke-width:3px;}.cls-2,.cls-3,.cls-4,.cls-5,.cls-6{stroke:#000;stroke-miterlimit:10;}.cls-7{fill:#7d7d7d;}.cls-8{fill:#a0d8ef;}.cls-3{fill:#fff;stroke-width:1.976px;}.cls-4,.cls-5{fill:#f4981b;}.cls-4,.cls-6{stroke-width:.5px;}</style></defs><path class="cls-5" d="M107.686,12.124H11.314c-4.315,0-7.814,3.498-7.814,7.814V99.31c0,4.315,3.498,7.814,7.814,7.814H107.686c4.315,0,7.814-3.498,7.814-7.814V19.937c0-4.315-3.498-7.814-7.814-7.814Z"/><path class="cls-3" d="M106.254,73.215V24.107c0-3.328-2.723-6.051-6.051-6.051s-6.051,2.723-6.051,6.051v49.108c-3.678,2.105-6.163,6.059-6.163,10.6,0,6.746,5.468,12.214,12.214,12.214s12.214-5.468,12.214-12.214c0-4.542-2.484-8.496-6.163-10.6Z"/><g><circle class="cls-7" cx="100.203" cy="83.794" r="8.742"/><rect class="cls-7" x="97.744" y="38.109" width="4.918" height="39.831"/></g><path class="cls-2" d="M38.586,73.946c1.78-1.067,6.136-3.354,12.133-3.309,5.977,.044,10.287,2.379,12.053,3.47"/><g><path class="cls-1" d="M60.263,87.272l.121,.013c11.355-3.545,19.618-14.157,19.618-26.665,0-15.4-12.526-27.927-27.927-27.927s-27.927,12.526-27.927,27.927,12.526,27.926,27.927,27.926c2.847,0,5.594-.431,8.184-1.226,.002-.016,.001-.032,.003-.049Zm-16.816-25.276c-2.49,0-4.515-2.029-4.515-4.523s2.025-4.523,4.515-4.523,4.515,2.029,4.515,4.523-2.025,4.523-4.515,4.523Zm12.26-4.523c0-2.494,2.025-4.523,4.515-4.523s4.515,2.029,4.515,4.523-2.025,4.523-4.515,4.523-4.515-2.029-4.515-4.523Z"/><path d="M95.376,99.237c-.311-.541-1.661-3.218-4.764-4.773-2.816-1.411-6.151-2.063-9.798-1.927-3.223,.143-5.286,.819-6.943,1.366-1.827,.598-3.031,.992-5.134,.528-1.007-.222-3.104-.683-4.382-2.47-.568-.794-.841-1.663-.962-2.452,11.53-4.533,19.718-15.769,19.718-28.888,0-17.112-13.922-31.034-31.034-31.034s-31.034,13.922-31.034,31.034c0,12.545,7.487,23.368,18.224,28.255-.057,.935-.304,2.069-1.033,3.085-1.275,1.784-3.368,2.249-4.379,2.47-2.1,.464-3.308,.07-5.131-.528-1.657-.546-3.72-1.223-6.946-1.366-3.605-.127-6.973,.516-9.795,1.927-.979,.49-3.199,1.933-4.764,4.77-1.36,2.465-1.514,4.796-1.512,5.958l2.46,1.671c-.022-1.098,.07-3.96,2.007-6.673,.346-.485,1.302-1.996,3.198-2.947,2.349-1.177,5.222-1.733,8.269-1.602,2.798,.124,4.558,.704,6.115,1.214,1.972,.646,3.839,1.253,6.77,.61,1.278-.282,4.267-.941,6.236-3.696,.77-1.075,1.272-2.346,1.496-3.717,3.089,1.033,6.388,1.602,9.82,1.602,2.892,0,5.689-.406,8.347-1.15,.254,1.198,.721,2.311,1.403,3.265,1.972,2.755,4.964,3.414,6.239,3.696,2.943,.646,4.804,.036,6.773-.61,1.557-.51,3.317-1.089,6.111-1.211,3.053-.164,5.92,.422,8.272,1.599,1.906,.954,2.864,2.48,3.198,2.95,2.136,3.002,2.044,6.236,1.962,7.338l2.621,.069c.158-1.232,.445-4.763-1.627-8.362ZM24.15,60.62c0-15.4,12.526-27.927,27.927-27.927s27.927,12.526,27.927,27.927c0,12.508-8.264,23.12-19.618,26.665l-.121-.013c-.002,.016-.002,.032-.003,.049-2.589,.795-5.337,1.226-8.184,1.226-15.4,0-27.927-12.526-27.927-27.926Z"/><ellipse cx="60.222" cy="57.473" rx="4.515" ry="4.523"/><path d="M43.447,52.95c-2.49,0-4.515,2.029-4.515,4.523s2.025,4.523,4.515,4.523,4.515-2.029,4.515-4.523-2.025-4.523-4.515-4.523Z"/></g><path class="cls-8" d="M32.604,56.165l-.015,.176-.015-.176c-3.951,4.603-5.838,9.156-4.675,11.733,.692,1.534,1.888,2.18,1.888,2.18,.429,.234,1.417,.701,2.77,.708,1.389,.007,2.404-.474,2.833-.708h.001c.043-.025,1.208-.675,1.887-2.18,1.163-2.577-.724-7.13-4.675-11.733Z"/><path d="M37.826,96.322c2.446,1.148,6.623,2.713,11.987,2.836,7.854,.18,13.67-2.836,16.151-4.322l5.47,1.068,13.31-1.593c2.437,1.187,4.874,2.375,7.311,3.562,1,1.343,2,2.687,2.999,4.03,.156,1.625,.312,3.249,.469,4.874-28.069,.116-56.139,.232-84.208,.347l-3.997-1.475c.036-1.145,.242-2.979,1.182-4.965,.17-.36,2.252-4.598,6.857-6.384,2.704-1.049,4.548-.581,12.295,.591,4.465,.676,8.043,1.154,10.175,1.431Z"/><g><path class="cls-6" d="M75.911,40.405v-5.544c0-11.362-11.062-20.606-24.659-20.606s-24.659,9.244-24.659,20.606v5.544c0,.018,.002,.035,.003,.052-.004,.055-.003,.109,.002,.164l1.34,11.983c.036,.324,.239,.619,.557,.808,.317,.189,.717,.253,1.096,.176l9.276-1.891h0c8.139-1.651,16.631-1.651,24.771,0l9.276,1.891h0c.379,.077,.778,.013,1.096-.176,.317-.189,.52-.484,.557-.808l1.34-11.983c.006-.055,.007-.109,.002-.164,.001-.018,.003-.035,.003-.052h0Z"/><path class="cls-4" d="M72.041,51.105l-7.769-1.583h0c-8.556-1.736-17.484-1.736-26.04,0l-7.769,1.583-1.087-9.716,10.165-1.953c7.707-1.471,15.712-1.471,23.419,0l10.166,1.953-1.086,9.715Z"/><path class="cls-4" d="M63.563,37.254c-8.103-1.547-16.518-1.547-24.621,0l-9.668,1.857v-4.249c0-10.127,9.86-18.367,21.98-18.367s21.98,8.239,21.98,18.367v4.249l-9.669-1.857Z"/></g><path class="cls-6" d="M57.388,23.755c0-.25-.099-.491-.276-.668s-.417-.276-.668-.276h-10.383c-.521,0-.944,.423-.944,.944v5.569c0,.25,.099,.491,.276,.668s.417,.276,.668,.276h10.383c.25,0,.491-.099,.668-.276s.276-.417,.276-.668v-5.569Zm-1.888,4.625h-8.496v-3.681h8.496v3.681Z"/></svg>