<?xml version="1.0" encoding="UTF-8"?><svg id="Layer_1" xmlns="http://www.w3.org/2000/svg" viewBox="0 0 120 120"><defs><style>.cls-1{fill:#fff;}.cls-2{fill:#333233;}.cls-3{fill:#25bbe4;stroke:#25bbe4;stroke-miterlimit:10;stroke-width:1.327px;}</style></defs><path class="cls-3" d="M85.921,88.106c-.001-.379-.003-.759-.005-1.139-.02-3.862-.072-7.7-.156-11.515-3.385,1.864-6.77,3.727-10.155,5.591-.086,.047-.376,.178-.736,.405-1.025,.645-1.642,1.394-1.918,1.762,0,0-.25,.335-.449,.678-1.982,3.41-.794,7.799,2.654,9.804,3.448,2.004,7.851,.865,9.833-2.545,.559-.961,.857-2,.932-3.041Z"/><path class="cls-3" d="M48.008,107.372c-.001-.379-.003-.759-.005-1.139-.02-3.862-.072-7.7-.156-11.515-3.385,1.864-6.77,3.727-10.155,5.591-.086,.047-.376,.178-.736,.405-1.025,.645-1.642,1.394-1.918,1.762,0,0-.25,.335-.449,.678-1.982,3.41-.794,7.799,2.654,9.804s7.851,.865,9.833-2.545c.559-.961,.857-2,.932-3.041Z"/><path class="cls-3" d="M42.457,88.106c-.001-.379-.003-.759-.005-1.139-.02-3.862-.072-7.7-.156-11.515-3.385,1.864-6.77,3.727-10.155,5.591-.086,.047-.376,.178-.736,.405-1.025,.645-1.642,1.394-1.918,1.762,0,0-.25,.335-.449,.678-1.982,3.41-.794,7.799,2.654,9.804,3.448,2.004,7.851,.865,9.833-2.545,.559-.961,.857-2,.932-3.041Z"/><path class="cls-3" d="M70.688,107.372c-.001-.379-.003-.759-.005-1.139-.02-3.862-.072-7.7-.156-11.515-3.385,1.864-6.77,3.727-10.155,5.591-.086,.047-.376,.178-.736,.405-1.025,.645-1.642,1.394-1.918,1.762,0,0-.25,.335-.449,.678-1.982,3.41-.794,7.799,2.654,9.804s7.851,.865,9.833-2.545c.559-.961,.857-2,.932-3.041Z"/><path class="cls-3" d="M63.498,88.106c-.001-.379-.003-.759-.005-1.139-.02-3.862-.072-7.7-.156-11.515-3.385,1.864-6.77,3.727-10.155,5.591-.086,.047-.376,.178-.736,.405-1.025,.645-1.642,1.394-1.918,1.762,0,0-.25,.335-.449,.678-1.982,3.41-.794,7.799,2.654,9.804,3.448,2.004,7.851,.865,9.833-2.545,.559-.961,.857-2,.932-3.041Z"/><path class="cls-1" d="M107.865,31.058c-4.591-4.591-10.686-7.12-17.163-7.12h-.017c-1.839,.003-3.677,.216-5.479,.638-3.059-11.709-13.704-20.052-25.877-20.052h-.018c-12.136,.008-22.557,8.031-25.79,19.675-1.086-.149-2.123-.25-3.196-.219-13.44,.008-24.382,11.015-24.39,24.534-.004,6.497,2.536,12.636,7.153,17.287,4.622,4.65,10.733,7.213,17.207,7.216h.001l60.362-.039c13.439-.014,24.381-11.021,24.389-24.534,.004-6.575-2.546-12.752-7.181-17.385Zm-17.211,39.042l-60.361,.039c-5.701-.003-11.088-2.262-15.164-6.367-4.079-4.105-6.322-9.523-6.318-15.258,.008-11.934,9.659-21.648,21.517-21.656h.038c1.279,0,2.563,.126,3.923,.38,.982,.248,1.949,.571,2.871,1.006,1.212,.57,3.538,1.888,5.491,4.282,2.957,3.625,3.445,7.753,3.473,9.894l2.877-.039c-.032-2.512-.611-7.373-4.121-11.675-2.313-2.832-5.062-4.389-6.492-5.064-.661-.313-1.341-.585-2.033-.817,2.937-10.313,12.18-17.414,22.957-17.422h.015c10.939,0,20.478,7.567,23.129,18.139-2.28,1.006-5.205,2.831-7.561,6.086-3.109,4.294-3.534,8.759-3.51,11.037l2.877-.028c-.021-1.928,.337-5.699,2.963-9.323,2.705-3.737,6.301-5.246,8.205-5.811v-.005c1.726-.441,3.489-.678,5.255-.681h.014c5.708,0,11.081,2.228,15.129,6.277,4.091,4.091,6.342,9.543,6.338,15.351-.008,11.928-9.659,21.642-21.514,21.656Z"/><path class="cls-2" d="M90.654,70.099l-60.361,.039c-5.701-.003-11.088-2.262-15.164-6.367-4.079-4.105-6.322-9.523-6.318-15.258,.008-11.934,9.659-21.648,21.517-21.656h.038c1.279,0,2.563,.126,3.923,.38,.982,.248,1.949,.571,2.871,1.006,1.212,.57,3.538,1.888,5.491,4.282,2.957,3.625,3.445,7.753,3.473,9.894l2.877-.039c-.032-2.512-.611-7.373-4.121-11.675-2.313-2.832-5.062-4.389-6.492-5.064-.661-.313-1.341-.585-2.033-.817,2.937-10.313,12.18-17.414,22.957-17.422h.015c10.939,0,20.478,7.567,23.129,18.139-2.28,1.006-5.205,2.831-7.561,6.086-3.109,4.294-3.534,8.759-3.51,11.037l2.877-.028c-.021-1.928,.337-5.699,2.963-9.323,2.705-3.737,6.301-5.246,8.205-5.811v-.005c1.726-.441,3.489-.678,5.255-.681h.014c5.708,0,11.081,2.228,15.129,6.277,4.091,4.091,6.342,9.543,6.338,15.351-.008,11.928-9.659,21.642-21.514,21.656Z"/></svg>