<?xml version="1.0" encoding="UTF-8"?><svg id="Layer_3" xmlns="http://www.w3.org/2000/svg" viewBox="0 0 120 120"><defs><style>.cls-2{fill:#e62439;stroke:#000;stroke-miterlimit:10;}</style></defs><path class="cls-2" d="M105.704,37.314c-10.624-9.568-22.926-12.827-31.677-13.886-2.101-1.058-5.555-3.234-5.869-6.269-.454-4.399,5.715-10.35,16.217-11.396-5.156-.282-12.125,.03-19.808,2.526-13.598,4.417-22.572,13.441-27.864,20.49-1.967,1.291-5.578,3.194-8.363,1.948-4.036-1.806-6.106-10.125-1.76-19.742-2.822,4.324-6.036,10.515-7.717,18.417-2.974,13.984,.354,26.268,3.812,34.376,.134,2.349-.023,6.428-2.495,8.217-3.582,2.592-11.821,.225-17.978-8.347,2.333,4.606,6.089,10.485,12.091,15.891,10.624,9.568,22.926,12.827,31.677,13.886,2.101,1.058,5.555,3.234,5.868,6.269,.454,4.399-5.715,10.35-16.217,11.396,5.156,.282,12.125-.03,19.808-2.526,13.598-4.417,22.572-13.441,27.864-20.49,1.967-1.291,5.578-3.194,8.363-1.948,4.036,1.806,6.106,10.125,1.76,19.742,2.822-4.324,6.036-10.515,7.717-18.417,2.974-13.984-.354-26.268-3.812-34.376-.134-2.349,.023-6.428,2.495-8.217,3.582-2.593,11.821-.225,17.978,8.347-2.333-4.606-6.089-10.485-12.091-15.891Z"/></svg>