<svg width="175" height="90" viewBox="0 0 175 90" xmlns="http://www.w3.org/2000/svg">
    <g transform="translate(0 1)" fill="none" fill-rule="evenodd">
        <path d="m102.167 31.75 12 5.75-12 5.75-.001-5H66.75v-1.5h35.416v-5z" fill="#8E8E93" fill-rule="nonzero"/>
        <rect fill="#EEF4FB" y="15" width="48" height="48" rx="8"/>
        <g fill-rule="nonzero">
            <path d="M41.902 45.266c.068-.055.143-.103.224-.139l1.26-.561a1.01 1.01 0 0 1 .217-.068c1.796-.486 2.983.162 3.852 1.29.092-.106.208-.197.348-.259l1.261-.561a1.01 1.01 0 0 1 .216-.068c1.933-.526 3.158.265 4.044 1.553.042-.026.087-.053.135-.075l1.26-.561a1.01 1.01 0 0 1 .217-.068c3.7-1.006 5.19 2.454 6.391 5.248.044.098.087.203.308.7l.01.02 1.497 3.172a.628.628 0 0 1 .045.101c1.08 2.784.792 5.036.46 7.628a52.62 52.62 0 0 0-.176 1.479c0 .014 0 .029-.003.048-.145 1.418-.51 2.617-1.1 3.586a5.553 5.553 0 0 1-2.478 2.208c-.026.015-.055.028-.082.04l-10.814 4.815v-.003c-1.08.505-2.137.405-3.173-.249-.832-.524-1.628-1.424-2.397-2.664L32.3 65.192c-.015-.008-.032-.014-.046-.022a13.506 13.506 0 0 1-2.397-1.71c-.621-.563-1.195-1.22-1.574-1.942-.453-.857-.644-1.624-.642-2.291.005-.829.302-1.5.793-2.014.46-.479 1.076-.792 1.772-.949.832-.189 1.792-.153 2.715.103.757.211 2.01.555 3.228.886l1.022.279-5.625-12.634c-1.078-2.42-.694-4.462.376-5.783a4.317 4.317 0 0 1 3.558-1.58c1.708.083 3.495 1.159 4.554 3.538l1.867 4.193z" fill="#3A3A3C"/>
            <path d="M38.206 59.862a1.128 1.128 0 0 1-.181-.03c-.787-.206-1.65-.438-2.404-.644a859.462 859.462 0 0 1-3.237-.893c-.606-.168-1.217-.195-1.73-.081-.33.075-.603.204-.778.389-.143.15-.231.36-.235.632-.003.354.123.804.412 1.356.256.488.678.963 1.145 1.39.694.628 1.48 1.137 2.03 1.444.033.018.064.04.095.061l11.346 6.819c.146.088.26.208.343.346l.003-.001c.647 1.084 1.272 1.832 1.871 2.21.435.273.86.323 1.274.124l.021-.01-.001-.002L59 68.155a.736.736 0 0 1 .078-.032 3.58 3.58 0 0 0 1.591-1.428c.431-.705.7-1.623.814-2.75.002-.019.003-.04.009-.061.047-.43.116-.978.184-1.515.295-2.315.554-4.326-.335-6.635l-1.458-3.082a1.107 1.107 0 0 1-.068-.13c-.019-.042-.144-.339-.317-.736-.89-2.07-1.993-4.629-4.019-4.112l-1.204.536-.012.006c.252.582.475 1.188.695 1.778.194.523.384 1.03.593 1.5a1.003 1.003 0 0 1-1.832.816c-.209-.47-.417-1.033-.634-1.617-.74-1.99-1.588-4.279-3.265-3.867l-1.201.535a.925.925 0 0 1-.206.067c.325.696.601 1.446.868 2.165.194.523.384 1.03.593 1.5a1.003 1.003 0 0 1-1.832.815c-.21-.47-.417-1.033-.634-1.617-.74-1.99-1.588-4.278-3.265-3.866l-1.205.536a.968.968 0 0 1-.252.073l1.577 3.542a1.003 1.003 0 0 1-1.832.816l-4.23-9.502c-.709-1.591-1.805-2.308-2.821-2.358a2.3 2.3 0 0 0-1.058.193 2.313 2.313 0 0 0-.847.652c-.635.781-.829 2.076-.102 3.708l7.415 16.655a1.003 1.003 0 0 1-1.832.816l-.753-1.693.003-.001z" fill="#FFF"/>
        </g>
        <path d="M13 28h22v22H13z"/>
        <path d="M24 35c-2.21 0-4 1.79-4 4s1.79 4 4 4 4-1.79 4-4-1.79-4-4-4zm8.94 3A8.994 8.994 0 0 0 25 30.06V29c0-.55-.45-1-1-1s-1 .45-1 1v1.06A8.994 8.994 0 0 0 15.06 38H14c-.55 0-1 .45-1 1s.45 1 1 1h1.06A8.994 8.994 0 0 0 23 47.94V49c0 .55.45 1 1 1s1-.45 1-1v-1.06A8.994 8.994 0 0 0 32.94 40H34c.55 0 1-.45 1-1s-.45-1-1-1h-1.06zM24 46c-3.87 0-7-3.13-7-7s3.13-7 7-7 7 3.13 7 7-3.13 7-7 7z" fill="#303193" fill-rule="nonzero"/>
        <path stroke="#8E8E93" stroke-width="1.5" d="m133 10.462 3.077 6.769h3.077l4 4.307 1.538 7.385v11.692l6.154 4.308v4.615h-6.154l-8.615 17.539V81.23L139.154 88h11.692l2.462-2.154h4.615l10.154-8.923L173.307 64l-5.23-4.615 1.538-6.154-1.538-1.846-2.462-5.539L168.077 40l-2.462-11.077v-5.23l-3.384-5.847v-4l1.538-3.384V3.077l-4-3.077-6.461 3.077v7.385l-2.462 3.384-6.154-3.077-1.538 3.077-7.077-7.077z"/>
        <g fill-rule="nonzero">
            <path d="M152.779 55.005C147.9 55.166 144 59.09 144 63.874c0 1.905 1.301 4.775 3.878 8.515a66.184 66.184 0 0 0 2.884 3.858l.605.744c.195.238.386.466.569.682l.522.606.631.721.633-.72c.413-.472.887-1.033 1.39-1.654l.307-.38a66.612 66.612 0 0 0 2.884-3.856l.572-.85c2.197-3.326 3.306-5.907 3.306-7.666 0-4.785-3.903-8.708-8.779-8.869L153.09 55l-.311.005z" fill="#303193"/>
            <path d="M153.09 60.195a3.896 3.896 0 1 0 0 7.79 3.896 3.896 0 0 0 0-7.79z" fill="#FFF"/>
        </g>
    </g>
</svg>
