<svg width="145" height="53" viewBox="0 0 145 53" xmlns="http://www.w3.org/2000/svg">
    <g fill-rule="nonzero" fill="none">
        <path d="m129.246 8.346-6.39.935-.114.023a1 1 0 0 0-.44 1.682l4.623 4.503-1.09 6.362-.014.11a1 1 0 0 0 1.464.944L133 19.9l5.715 3.005.1.047a1 1 0 0 0 1.35-1.101l-1.091-6.362 4.624-4.503.078-.085a1 1 0 0 0-.631-1.62l-6.392-.935-2.856-5.789a1 1 0 0 0-1.794 0l-2.857 5.789zM133 5.258l2.193 4.445.061.106a1 1 0 0 0 .691.44l4.906.717-3.549 3.458-.082.09a1 1 0 0 0-.206.795l.837 4.882-4.386-2.306-.111-.05a1 1 0 0 0-.82.05l-4.386 2.306.838-4.882.013-.122a1 1 0 0 0-.301-.763l-3.55-3.458 4.907-.717a1 1 0 0 0 .752-.546L133 5.258z" fill="#8E8E93"/>
        <path d="m8.246 7.346-6.39.935-.114.023a1 1 0 0 0-.44 1.682l4.623 4.503-1.09 6.362-.014.11a1 1 0 0 0 1.464.944L12 18.9l5.715 3.005.1.047a1 1 0 0 0 1.35-1.101l-1.091-6.362 4.624-4.503.078-.085a1 1 0 0 0-.631-1.62l-6.392-.935-2.856-5.789a1 1 0 0 0-1.794 0L8.246 7.346z" fill="#3A66E3"/>
        <path d="M25.902 17.266c.068-.055.143-.103.224-.139l1.26-.561a1.01 1.01 0 0 1 .217-.068c1.796-.486 2.983.162 3.852 1.29.092-.106.208-.197.348-.259l1.261-.561a1.01 1.01 0 0 1 .216-.068c1.933-.526 3.158.265 4.044 1.553.042-.026.087-.053.135-.075l1.26-.561a1.01 1.01 0 0 1 .217-.068c3.7-1.006 5.19 2.454 6.391 5.248.044.098.087.203.308.7l.01.02 1.497 3.172a.628.628 0 0 1 .045.101c1.08 2.784.792 5.036.46 7.628a52.62 52.62 0 0 0-.176 1.479c0 .014 0 .029-.003.048-.145 1.418-.51 2.617-1.1 3.586a5.553 5.553 0 0 1-2.478 2.208c-.026.015-.055.028-.082.04l-10.814 4.815v-.003c-1.08.505-2.137.405-3.173-.249-.832-.524-1.628-1.424-2.397-2.664L16.3 37.192c-.015-.008-.032-.014-.046-.022a13.506 13.506 0 0 1-2.397-1.71c-.621-.563-1.195-1.22-1.574-1.942-.453-.857-.644-1.624-.642-2.291.005-.829.302-1.5.793-2.014.46-.479 1.076-.792 1.772-.949.832-.189 1.792-.153 2.715.103.757.211 2.01.555 3.228.886l1.022.279-5.625-12.634c-1.078-2.42-.694-4.462.376-5.783a4.317 4.317 0 0 1 3.558-1.58c1.708.083 3.495 1.159 4.554 3.538l1.867 4.193z" fill="#3A3A3C"/>
        <path d="M22.206 31.862a1.128 1.128 0 0 1-.181-.03c-.787-.206-1.65-.438-2.404-.644a859.462 859.462 0 0 1-3.237-.893c-.606-.168-1.217-.195-1.73-.081-.33.075-.603.204-.778.389-.143.15-.231.36-.235.632-.003.354.123.804.412 1.356.256.488.678.963 1.145 1.39.694.628 1.48 1.137 2.03 1.444.033.018.064.04.095.061l11.346 6.819c.146.088.26.208.343.346l.003-.001c.647 1.084 1.272 1.832 1.871 2.21.435.273.86.323 1.274.124l.021-.01-.001-.002L43 40.155a.736.736 0 0 1 .078-.032 3.58 3.58 0 0 0 1.591-1.428c.431-.705.7-1.623.814-2.75.002-.019.003-.04.009-.061.047-.43.116-.978.184-1.515.295-2.315.554-4.326-.335-6.635l-1.458-3.082a1.107 1.107 0 0 1-.068-.13c-.019-.042-.144-.339-.317-.736-.89-2.07-1.993-4.629-4.019-4.112l-1.204.536-.012.006c.252.582.475 1.188.695 1.778.194.523.384 1.03.593 1.5a1.003 1.003 0 0 1-1.832.816c-.209-.47-.417-1.033-.634-1.617-.74-1.99-1.588-4.279-3.265-3.867l-1.201.535a.925.925 0 0 1-.206.067c.325.696.601 1.446.868 2.165.194.523.384 1.03.593 1.5a1.003 1.003 0 0 1-1.832.815c-.21-.47-.417-1.033-.634-1.617-.74-1.99-1.588-4.278-3.265-3.866l-1.205.536a.968.968 0 0 1-.252.073l1.577 3.542a1.003 1.003 0 0 1-1.832.816l-4.23-9.502c-.709-1.591-1.805-2.308-2.821-2.358a2.3 2.3 0 0 0-1.058.193 2.313 2.313 0 0 0-.847.652c-.635.781-.829 2.076-.102 3.708l7.415 16.655a1.003 1.003 0 0 1-1.832.816l-.753-1.693.003-.001z" fill="#FFF"/>
        <path d="m90.167 5.75 12 5.75-12 5.75-.001-5H54.75v-1.5h35.416v-5z" fill="#8E8E93"/>
    </g>
</svg>
