<?xml version="1.0" encoding="UTF-8" standalone="no"?>
<svg
   width="212"
   height="90"
   viewBox="0 0 212 90"
   version="1.1"
   id="svg26"
   sodipodi:docname="info-locate-light.svg"
   inkscape:version="1.2 (dc2aedaf03, 2022-05-15)"
   xmlns:inkscape="http://www.inkscape.org/namespaces/inkscape"
   xmlns:sodipodi="http://sodipodi.sourceforge.net/DTD/sodipodi-0.dtd"
   xmlns="http://www.w3.org/2000/svg"
   xmlns:svg="http://www.w3.org/2000/svg">
  <defs
     id="defs30" />
  <sodipodi:namedview
     id="namedview28"
     pagecolor="#505050"
     bordercolor="#ffffff"
     borderopacity="1"
     inkscape:showpageshadow="0"
     inkscape:pageopacity="0"
     inkscape:pagecheckerboard="1"
     inkscape:deskcolor="#505050"
     showgrid="false"
     inkscape:zoom="4.860854"
     inkscape:cx="156.9683"
     inkscape:cy="39.910683"
     inkscape:window-width="2212"
     inkscape:window-height="1121"
     inkscape:window-x="1972"
     inkscape:window-y="11"
     inkscape:window-maximized="0"
     inkscape:current-layer="g24" />
  <g
     transform="translate(0,1)"
     fill="none"
     fill-rule="evenodd"
     id="g24">
    <path
       d="m 105.70421,32.367176 12.13335,5.75 -12.13335,5.75 -0.001,-5 H 69.893625 v -1.5 H 105.7032 v -5 z"
       fill="#8e8e93"
       fill-rule="nonzero"
       id="path2"
       style="stroke-width:1.00554" />
    <rect
       fill="#eef4fb"
       y="15"
       width="48"
       height="48"
       rx="8"
       id="rect4"
       x="0" />
    <g
       fill-rule="nonzero"
       id="g10">
      <path
         d="m 41.902,45.266 c 0.068,-0.055 0.143,-0.103 0.224,-0.139 l 1.26,-0.561 a 1.01,1.01 0 0 1 0.217,-0.068 c 1.796,-0.486 2.983,0.162 3.852,1.29 0.092,-0.106 0.208,-0.197 0.348,-0.259 l 1.261,-0.561 A 1.01,1.01 0 0 1 49.28,44.9 c 1.933,-0.526 3.158,0.265 4.044,1.553 0.042,-0.026 0.087,-0.053 0.135,-0.075 l 1.26,-0.561 a 1.01,1.01 0 0 1 0.217,-0.068 c 3.7,-1.006 5.19,2.454 6.391,5.248 0.044,0.098 0.087,0.203 0.308,0.7 l 0.01,0.02 1.497,3.172 a 0.628,0.628 0 0 1 0.045,0.101 c 1.08,2.784 0.792,5.036 0.46,7.628 a 52.62,52.62 0 0 0 -0.176,1.479 c 0,0.014 0,0.029 -0.003,0.048 -0.145,1.418 -0.51,2.617 -1.1,3.586 a 5.553,5.553 0 0 1 -2.478,2.208 c -0.026,0.015 -0.055,0.028 -0.082,0.04 l -10.814,4.815 v -0.003 c -1.08,0.505 -2.137,0.405 -3.173,-0.249 -0.832,-0.524 -1.628,-1.424 -2.397,-2.664 L 32.3,65.192 C 32.285,65.184 32.268,65.178 32.254,65.17 a 13.506,13.506 0 0 1 -2.397,-1.71 c -0.621,-0.563 -1.195,-1.22 -1.574,-1.942 -0.453,-0.857 -0.644,-1.624 -0.642,-2.291 0.005,-0.829 0.302,-1.5 0.793,-2.014 0.46,-0.479 1.076,-0.792 1.772,-0.949 0.832,-0.189 1.792,-0.153 2.715,0.103 0.757,0.211 2.01,0.555 3.228,0.886 l 1.022,0.279 -5.625,-12.634 c -1.078,-2.42 -0.694,-4.462 0.376,-5.783 a 4.317,4.317 0 0 1 3.558,-1.58 c 1.708,0.083 3.495,1.159 4.554,3.538 l 1.867,4.193 z"
         fill="#3a3a3c"
         id="path6" />
      <path
         d="m 38.206,59.862 a 1.128,1.128 0 0 1 -0.181,-0.03 c -0.787,-0.206 -1.65,-0.438 -2.404,-0.644 a 859.462,859.462 0 0 1 -3.237,-0.893 c -0.606,-0.168 -1.217,-0.195 -1.73,-0.081 -0.33,0.075 -0.603,0.204 -0.778,0.389 -0.143,0.15 -0.231,0.36 -0.235,0.632 -0.003,0.354 0.123,0.804 0.412,1.356 0.256,0.488 0.678,0.963 1.145,1.39 0.694,0.628 1.48,1.137 2.03,1.444 0.033,0.018 0.064,0.04 0.095,0.061 l 11.346,6.819 c 0.146,0.088 0.26,0.208 0.343,0.346 l 0.003,-10e-4 c 0.647,1.084 1.272,1.832 1.871,2.21 0.435,0.273 0.86,0.323 1.274,0.124 L 48.181,72.974 48.18,72.972 59,68.155 a 0.736,0.736 0 0 1 0.078,-0.032 3.58,3.58 0 0 0 1.591,-1.428 c 0.431,-0.705 0.7,-1.623 0.814,-2.75 0.002,-0.019 0.003,-0.04 0.009,-0.061 0.047,-0.43 0.116,-0.978 0.184,-1.515 0.295,-2.315 0.554,-4.326 -0.335,-6.635 l -1.458,-3.082 a 1.107,1.107 0 0 1 -0.068,-0.13 c -0.019,-0.042 -0.144,-0.339 -0.317,-0.736 -0.89,-2.07 -1.993,-4.629 -4.019,-4.112 l -1.204,0.536 -0.012,0.006 c 0.252,0.582 0.475,1.188 0.695,1.778 0.194,0.523 0.384,1.03 0.593,1.5 a 1.003,1.003 0 0 1 -1.832,0.816 c -0.209,-0.47 -0.417,-1.033 -0.634,-1.617 -0.74,-1.99 -1.588,-4.279 -3.265,-3.867 l -1.201,0.535 a 0.925,0.925 0 0 1 -0.206,0.067 c 0.325,0.696 0.601,1.446 0.868,2.165 0.194,0.523 0.384,1.03 0.593,1.5 a 1.003,1.003 0 0 1 -1.832,0.815 c -0.21,-0.47 -0.417,-1.033 -0.634,-1.617 -0.74,-1.99 -1.588,-4.278 -3.265,-3.866 l -1.205,0.536 a 0.968,0.968 0 0 1 -0.252,0.073 l 1.577,3.542 a 1.003,1.003 0 0 1 -1.832,0.816 L 38.201,41.89 C 37.492,40.299 36.396,39.582 35.38,39.532 a 2.3,2.3 0 0 0 -1.058,0.193 2.313,2.313 0 0 0 -0.847,0.652 c -0.635,0.781 -0.829,2.076 -0.102,3.708 l 7.415,16.655 a 1.003,1.003 0 0 1 -1.832,0.816 l -0.753,-1.693 z"
         fill="#ffffff"
         id="path8" />
    </g>
    <path
       d="M 13,28 H 35 V 50 H 13 Z"
       id="path12" />
    <path
       d="m 24,35 c -2.21,0 -4,1.79 -4,4 0,2.21 1.79,4 4,4 2.21,0 4,-1.79 4,-4 0,-2.21 -1.79,-4 -4,-4 z m 8.94,3 A 8.994,8.994 0 0 0 25,30.06 V 29 c 0,-0.55 -0.45,-1 -1,-1 -0.55,0 -1,0.45 -1,1 v 1.06 A 8.994,8.994 0 0 0 15.06,38 H 14 c -0.55,0 -1,0.45 -1,1 0,0.55 0.45,1 1,1 h 1.06 A 8.994,8.994 0 0 0 23,47.94 V 49 c 0,0.55 0.45,1 1,1 0.55,0 1,-0.45 1,-1 V 47.94 A 8.994,8.994 0 0 0 32.94,40 H 34 c 0.55,0 1,-0.45 1,-1 0,-0.55 -0.45,-1 -1,-1 z M 24,46 c -3.87,0 -7,-3.13 -7,-7 0,-3.87 3.13,-7 7,-7 3.87,0 7,3.13 7,7 0,3.87 -3.13,7 -7,7 z"
       fill="#303193"
       fill-rule="nonzero"
       id="path14" />
    <path
       stroke="#8e8e93"
       stroke-width="1.20394"
       d="m 128.75477,38.309209 1.66114,-5.771056 5.19757,-2.698372 c 0,0 7.62045,-0.07318 10.67209,-0.582032 3.05164,-0.508854 3.37152,-0.918602 6.41629,-1.179559 3.04477,-0.260957 11.45865,0.107935 11.45865,0.107935 l 12.22615,2.445884 7.82467,1.204942 3.66874,5.534378 18.0071,3.205194 3.84301,10.395213 -11.98908,1.502812 -10.23994,-4.121715 -1.75867,6.460281 -3.78904,-0.858353 -2.55919,-2.719304 -6.06245,1.025689 0.32492,5.3684 -2.77862,0.780736 -2.20992,-5.736972 -10.28277,0.232295 -3.53644,-1.428345 -1.12718,-4.720792 -4.45898,-0.448164 -2.59835,-6.99934 -11.82802,0.253721 z"
       id="path16"
       sodipodi:nodetypes="ccccccccccccccccccccccccccc" />
    <g
       fill-rule="nonzero"
       id="g22"
       transform="translate(101.16626,-26.745741)">
      <path
         d="m 82.226215,51.804667 c -4.879,0.161 -8.779,4.085 -8.779,8.869 0,1.905 1.301,4.775 3.878,8.515 a 66.184,66.184 0 0 0 2.884,3.858 l 0.605,0.744 c 0.195,0.238 0.386,0.466 0.569,0.682 l 0.522,0.606 0.631,0.721 0.633,-0.72 c 0.413,-0.472 0.887,-1.033 1.39,-1.654 l 0.307,-0.38 a 66.612,66.612 0 0 0 2.884,-3.856 l 0.572,-0.85 c 2.197,-3.326 3.306,-5.907 3.306,-7.666 0,-4.785 -3.903,-8.708 -8.779,-8.869 l -0.312,-0.005 z"
         fill="#303193"
         id="path18" />
      <path
         d="m 82.537215,56.994667 a 3.896,3.896 0 1 0 0,7.79 3.896,3.896 0 0 0 0,-7.79 z"
         fill="#ffffff"
         id="path20" />
    </g>
  </g>
</svg>
