<?xml version="1.0" encoding="UTF-8"?><svg id="Layer_1" xmlns="http://www.w3.org/2000/svg" viewBox="0 0 120 120"><defs><style>.cls-1{fill:none;}.cls-2{fill:#c1272d;}</style></defs><rect class="cls-1" x="94.213" y="83.874" width="6.481" height="6.481"/><path class="cls-2" d="M67.766,102.031h8.462v-12.641h6.481v12.641h26.645v-22.145h-41.589v22.145Zm26.447-18.156h6.481v6.481h-6.481v-6.481Z"/><path d="M33.848,61.869c-2.08-4.443-4.159-8.885-6.239-13.328-2.472-1.473-4.945-2.946-7.417-4.419,.045-.786,.09-1.571,.135-2.357-4.898-6.635-9.796-13.27-14.694-19.905-.082,26.236-.163,52.472-.245,78.708,18.835,.139,37.67,.277,56.505,.416-1.755-5.674-5.078-14.182-11.457-22.867-5.873-7.997-12.136-13.148-16.588-16.249Z"/><path d="M30.382,45.955c.931,1.278,2.385,1.652,2.986,1.769,.379,.121,1.966,.58,3.649-.221,2.279-1.085,2.726-3.524,2.765-3.76-.189-.799-.881-3.264-3.207-4.866-.751-.517-2.462-1.696-4.534-1.216-1.219,.282-2.033,1.016-2.433,1.438-.261,1.557-.212,2.851-.111,3.76,.147,1.323,.247,2.221,.885,3.096Z"/><path d="M57.464,53.149c-4.431-1.033-8.884,.691-11.039,4.156-2.291,3.683-.982,7.72-.779,8.312,.729,.662,1.617,1.381,2.675,2.084,1.189,.789,2.317,1.376,3.299,1.813,.514,.192,2.972,1.049,5.714-.13,2.557-1.099,3.642-3.229,3.896-3.766,.476-1.775,.952-3.55,1.429-5.325-.147-.911-.582-2.815-2.076-4.64-1.108-1.354-2.346-2.11-3.118-2.503Z"/><path d="M18.913,30.867c.538,.195,1.621,.504,2.974,.313,1.683-.237,2.795-1.108,3.227-1.487,.458-.418,1.63-1.601,2.011-3.519,.568-2.857-1.079-5.029-1.341-5.362-.478-1.848-1.745-3.286-3.352-3.687-2.531-.632-4.552,1.644-5.027,2.179-2.756,3.102-1.474,7.603-1.341,8.044,.95,1.173,1.899,2.346,2.849,3.519Z"/><path d="M39.717,33.377c2.025,.039,3.957-1.01,5.03-2.647,1.289-1.966,.876-4.071,.662-5.163-.147-.751-.308-1.52-.927-2.25-1.125-1.328-2.848-1.44-3.309-1.456-.838,.53-1.677,1.059-2.515,1.588-.222-.085-2.343-.869-3.839,.265-1.909,1.447-.966,4.631-.794,5.163,.688,2.134,2.766,4.444,5.692,4.5Z"/><path d="M51.38,45.541c2.659,1.524,5.404,.283,5.666,.159,.667-.741,2.648-3.138,2.639-6.567-.003-1.107-.01-3.631-1.922-5.367-1.125-1.022-2.42-1.327-3.118-1.434-1.734,.817-2.992,1.761-3.83,2.49-1.219,1.062-2.046,1.782-2.479,3.025-.632,1.813,0,3.523,.299,4.204,.142,.463,.781,2.364,2.745,3.49Z"/><path class="cls-2" d="M107.104,69.199h-37.086c-1.963,3.153-3.926,6.307-5.889,9.46h48.865c-1.963-3.154-3.926-6.307-5.889-9.46Z"/></svg>