<?xml version="1.0" encoding="UTF-8"?><svg xmlns="http://www.w3.org/2000/svg" viewBox="0 0 120 120"><defs><style>.cls-1{fill:#20bce5;}.cls-2{mix-blend-mode:overlay;}.cls-3{fill:#f44e14;stroke:#000;stroke-miterlimit:10;stroke-width:.1px;}.cls-4{isolation:isolate;}</style></defs><g class="cls-4"><g id="Layer_1"><polygon class="cls-3" points="88.089 16.715 74.596 8.925 74.596 14.067 6 14.067 6 19.363 74.596 19.363 74.596 24.505 88.089 16.715"/><path class="cls-1" d="M5.361,100.379c-.044-18.607-.088-37.214-.132-55.821,2.799-1.535,6.911-3.912,11.673-7.152,7.834-5.331,9.25-7.435,12.674-9.53,7.98-4.884,21.974-6.74,32.263,.27,10.217,6.961,14.804,21.125,10.907,34.939-3.65-6.78-10.98-10.668-18.356-9.769-9.162,1.116-15.405,9.253-15.848,16.89-.467,8.062,5.635,13.745,8.341,16.265,4.342,4.043,9.279,5.739,18.976,8.966,6.694,2.228,12.396,3.649,16.446,4.543l-76.944,.398Z"/><path class="cls-2" d="M97.286,20.649c-3.704,0-6.72,3.016-6.72,6.72s3.016,6.692,6.72,6.692,6.72-2.988,6.72-6.692-3.016-6.72-6.72-6.72Zm-8.069,14.513c-4.418,.525-6.912,4.806-6.912,8.813v20.71c0,3.875,5.362,3.811,5.37-.055,0-6.613-.028-11.806-.028-18.699,0-.446,.353-.799,.799-.799s.799,.353,.799,.799c.07,16.961-.028,33-.028,50.425,0,1.994,1.604,3.608,3.608,3.608s3.626-1.605,3.635-3.608v-29.522c0-.446,.353-.799,.799-.799s.799,.353,.799,.799v29.522c0,1.994,1.632,3.608,3.635,3.608s3.608-1.605,3.608-3.608c.018-18.86,0-32.405,0-50.425,0-.446,.353-.799,.799-.799s.826,.353,.826,.799c.009,6.491-.028,12.646-.028,18.699,0,3.875,5.37,3.939,5.37,.055v-20.71c0-4.286-2.836-8.813-7.849-8.813h-15.202Z"/></g></g></svg>