<svg xmlns="http://www.w3.org/2000/svg" width="24" height="26" viewBox="0 0 24 26">
    <g fill="none" fill-rule="evenodd">
        <g fill="currentColor" fill-rule="nonzero">
            <g>
                <path d="M10.352.238l-10 8.5c-.47.4-.47 1.125 0 1.524l10 8.5c.374.317.922.317 1.296 0l10-8.5c.47-.4.47-1.125 0-1.524l-10-8.5c-.373-.317-.921-.317-1.296 0zm.649 2.073L19.456 9.5l-8.455 7.188L2.543 9.5 11 2.31z" transform="translate(0.999500, 0.000250)"/>
                <path d="M20.352 14.738c.421-.358 1.052-.306 1.41.114.33.389.313.956-.024 1.323l-.09.087-10.647 9.05-10.649-9.05c-.42-.358-.471-.99-.113-1.41.33-.388.893-.462 1.309-.19l.1.076L11 22.688l9.353-7.95h-.002z" transform="translate(0.999500, 0.000250)"/>
            </g>
        </g>
    </g>
</svg>
