<svg xmlns="http://www.w3.org/2000/svg" width="24" height="24" viewBox="0 0 24 24">
    <g fill="none" fill-rule="evenodd">
        <g>
            <path d="M0 0L22 0 22 22 0 22z" transform="translate(1.000000, 1.000000)"/>
            <path fill="currentColor" fill-rule="nonzero" d="M11 7c-2.21 0-4 1.79-4 4s1.79 4 4 4 4-1.79 4-4-1.79-4-4-4zm8.94 3c-.46-4.17-3.77-7.48-7.94-7.94V1c0-.55-.45-1-1-1s-1 .45-1 1v1.06C5.83 2.52 2.52 5.83 2.06 10H1c-.55 0-1 .45-1 1s.45 1 1 1h1.06c.46 4.17 3.77 7.48 7.94 7.94V21c0 .55.45 1 1 1s1-.45 1-1v-1.06c4.17-.46 7.48-3.77 7.94-7.94H21c.55 0 1-.45 1-1s-.45-1-1-1h-1.06zM11 18c-3.87 0-7-3.13-7-7s3.13-7 7-7 7 3.13 7 7-3.13 7-7 7z" transform="translate(1.000000, 1.000000)"/>
        </g>
    </g>
</svg>
