<svg width="300" height="40" viewBox="0 0 300 40" xmlns="http://www.w3.org/2000/svg">
    <g fill="currentColor" fill-rule="evenodd">
        <path d="M19.55 1.57c-9.914 0-17.98 8.065-17.98 17.977 0 9.915 8.066 17.981 17.98 17.981 9.913 0 17.979-8.066 17.979-17.98 0-9.913-8.066-17.978-17.98-17.978m0 37.529C8.77 39.099 0 30.328 0 19.547 0 8.769 8.77 0 19.55 0 30.33 0 39.1 8.769 39.1 19.547c0 10.78-8.77 19.552-19.55 19.552"/>
        <path d="m1.637 24.105-.151-.001v-1.326l.151.002a3.216 3.216 0 0 0 3.213-3.215 3.216 3.216 0 0 0-3.435-3.204l-.082-1.323a4.543 4.543 0 0 1 4.843 4.528 4.543 4.543 0 0 1-4.538 4.539h-.001zm35.858 0a4.543 4.543 0 0 1-4.538-4.539 4.543 4.543 0 0 1 4.843-4.527l-.082 1.323a3.216 3.216 0 0 0-3.436 3.204 3.216 3.216 0 0 0 3.213 3.214l.151-.002v1.326l-.151.002v-.001zm-34.05 2.613a7.11 7.11 0 0 1-1.441-.145l.268-1.298a5.833 5.833 0 0 0 7-5.709 5.834 5.834 0 0 0-7.058-5.696l-.28-1.296a7.17 7.17 0 0 1 1.51-.16c3.945 0 7.154 3.208 7.154 7.152s-3.209 7.152-7.153 7.152zm32.241 0a7.16 7.16 0 0 1-7.152-7.152 7.16 7.16 0 0 1 8.664-6.992l-.281 1.296a5.833 5.833 0 0 0-7.058 5.696 5.833 5.833 0 0 0 7.002 5.709l.267 1.298a7.146 7.146 0 0 1-1.442.145zM17.601 11.617a14.114 14.114 0 0 1 1.965 4.302 14.099 14.099 0 0 1 1.963-4.302 16.944 16.944 0 0 0-1.963-2.881c-.752.89-1.41 1.855-1.965 2.88v.001zm4.605 1.406a12.762 12.762 0 0 0-1.787 6.526c0 2.373.653 4.607 1.792 6.524a16.662 16.662 0 0 0-.005-13.05zm-5.282 0a16.645 16.645 0 0 0-.005 13.05 12.737 12.737 0 0 0 1.792-6.524c0-2.377-.65-4.61-1.787-6.527v.001zm.67 14.455c.556 1.03 1.217 2 1.971 2.891a16.896 16.896 0 0 0 1.97-2.89 14.11 14.11 0 0 1-1.97-4.309 14.129 14.129 0 0 1-1.97 4.308h-.001zm-5.973 9.49-.353-1.278a16.654 16.654 0 0 0 7.396-4.336 18.234 18.234 0 0 1-1.942-2.722c-2.4 2.858-5.912 4.765-9.886 5.026l-.087-1.324c3.793-.248 7.121-2.151 9.298-4.975a18.056 18.056 0 0 1-1.404-4.134c-1.483 3.866-5.234 6.618-9.616 6.618-.528 0-1.056-.04-1.569-.12l.204-1.31c.446.069.906.104 1.365.104 4.945 0 8.968-4.022 8.968-8.968 0-4.945-4.023-8.969-8.968-8.969-.46 0-.919.035-1.365.105l-.204-1.31a10.22 10.22 0 0 1 1.57-.12c4.382 0 8.134 2.753 9.616 6.621.3-1.432.774-2.822 1.409-4.14a12.78 12.78 0 0 0-9.408-4.979l.075-1.322a14.093 14.093 0 0 1 10.009 5.03 18.285 18.285 0 0 1 1.935-2.713 16.65 16.65 0 0 0-7.298-4.316l.361-1.276a17.969 17.969 0 0 1 7.838 4.62 17.976 17.976 0 0 1 7.839-4.62l.36 1.276a16.657 16.657 0 0 0-7.298 4.316 18.285 18.285 0 0 1 1.934 2.713 14.093 14.093 0 0 1 10.01-5.03l.075 1.323a12.78 12.78 0 0 0-9.408 4.98 18.061 18.061 0 0 1 1.409 4.142c1.481-3.87 5.234-6.625 9.618-6.625.527 0 1.054.04 1.568.12l-.205 1.311a8.86 8.86 0 0 0-1.363-.105c-4.945 0-8.968 4.024-8.968 8.97 0 4.945 4.023 8.967 8.968 8.967.459 0 .917-.035 1.363-.104l.205 1.31c-.514.08-1.041.12-1.568.12-4.383 0-8.135-2.754-9.617-6.621a18.062 18.062 0 0 1-1.404 4.136c2.176 2.825 5.504 4.728 9.297 4.976l-.086 1.324c-3.975-.261-7.486-2.167-9.887-5.026a18.257 18.257 0 0 1-1.941 2.722 16.667 16.667 0 0 0 7.396 4.336l-.353 1.278a17.982 17.982 0 0 1-7.945-4.642 17.975 17.975 0 0 1-7.944 4.642l.001-.001z"/>
        <path d="M.79 20.297h37.557v-1.5H.79zM49.694 17.482v1.589h3.571v1.495h-3.571v2.893h-1.648v-7.467h5.696v1.495h-4.048v-.005zm6.505 5.977v-7.467h1.648v7.467h-1.648zm9.833 0-3.623-4.75v4.75h-1.623v-7.467h1.519l3.504 4.6v-4.6h1.622v7.467h-1.399zm9.511 0-3.623-4.75v4.75h-1.622v-7.467h1.518l3.504 4.6v-4.6h1.623v7.467h-1.4zm4.339 0v-7.467h1.648v7.467h-1.648zm7.241.104a4.745 4.745 0 0 1-3.172-1.196l.974-1.164c.674.553 1.379.905 2.234.905.674 0 1.078-.269 1.078-.703v-.021c0-.414-.254-.631-1.508-.952-1.509-.383-2.478-.802-2.478-2.282v-.021c0-1.356 1.089-2.251 2.618-2.251 1.088 0 2.021.341 2.778.952l-.855 1.237c-.664-.46-1.317-.735-1.944-.735-.632 0-.964.29-.964.652v.02c0 .492.321.653 1.612.984 1.519.393 2.374.937 2.374 2.24v.021c0 1.48-1.13 2.314-2.747 2.314zm9.931-.104v-2.996h-3.037v2.996h-1.649v-7.467h1.649v2.954h3.037v-2.954h1.648v7.467h-1.648zm14.627 0v-4.874l-2.104 3.188h-.041l-2.084-3.157v4.844h-1.612v-7.467h1.773l1.964 3.156 1.964-3.156h1.773v7.467l-1.633-.001zm4.494 0v-7.467h5.645v1.459h-4.007v1.516h3.525v1.46h-3.525v1.568h4.064v1.459h-5.702v.005zm11.621-5.956v5.956h-1.648v-5.956h-2.275v-1.518h6.199v1.517l-2.276.001zm4.604 5.956v-7.467h5.644v1.459h-4.007v1.516h3.525v1.46h-3.525v1.568h4.064v1.459h-5.702l.001.005zM144.259 23.583c-2.307 0-3.965-1.718-3.965-3.84v-.02c0-2.122 1.679-3.86 3.986-3.86 2.306 0 3.965 1.717 3.965 3.839v.02c.005 2.122-1.674 3.861-3.986 3.861zm2.27-3.86c0-1.279-.938-2.35-2.265-2.35-1.327 0-2.244 1.046-2.244 2.324v.02c0 1.284.938 2.35 2.265 2.35 1.327 0 2.244-1.045 2.244-2.329v-.015zm8.791 3.736-1.602-2.39h-1.295v2.39h-1.644v-7.467h3.421c1.763 0 2.82.926 2.82 2.463v.02c0 1.206-.653 1.962-1.601 2.314l1.83 2.665h-1.929v.005zm.031-4.921c0-.704-.492-1.066-1.296-1.066h-1.632v2.147h1.669c.803 0 1.26-.43 1.26-1.056v-.025h-.001zm7.853 5.045c-2.307 0-3.965-1.718-3.965-3.84v-.02c0-2.122 1.68-3.86 3.986-3.86s3.965 1.717 3.965 3.839v.02c.005 2.122-1.674 3.861-3.986 3.861zm2.27-3.86c0-1.279-.938-2.35-2.265-2.35-1.327 0-2.244 1.046-2.244 2.324v.02c0 1.284.938 2.35 2.265 2.35 1.327 0 2.244-1.045 2.244-2.329v-.015zM169.725 23.459v-7.467h1.643v5.977h3.732v1.495h-5.375zM180.615 23.583c-2.307 0-3.965-1.718-3.965-3.84v-.02c0-2.122 1.679-3.86 3.986-3.86 2.306 0 3.965 1.717 3.965 3.839v.02c0 2.122-1.68 3.861-3.986 3.861zm2.265-3.86c0-1.279-.938-2.35-2.265-2.35-1.327 0-2.245 1.046-2.245 2.324v.02c0 1.284.939 2.35 2.266 2.35 1.326 0 2.244-1.045 2.244-2.329v-.015zM190.733 23.583c-2.333 0-3.934-1.63-3.934-3.84v-.02c0-2.122 1.658-3.86 3.923-3.86 1.348 0 2.162.361 2.94 1.024l-1.037 1.247c-.576-.481-1.089-.756-1.955-.756-1.197 0-2.145 1.056-2.145 2.324v.02c0 1.367.938 2.37 2.265 2.37.596 0 1.135-.15 1.55-.45v-1.065h-1.66v-1.418h3.25v3.244c-.772.647-1.829 1.18-3.197 1.18zm5.919-.124v-7.467h1.648v7.467h-1.648zm8.091.124c-2.203 0-3.835-1.697-3.835-3.84v-.02c0-2.122 1.601-3.86 3.903-3.86 1.41 0 2.254.47 2.949 1.153l-1.047 1.206c-.575-.523-1.166-.844-1.913-.844-1.26 0-2.172 1.046-2.172 2.324v.02c0 1.284.887 2.35 2.172 2.35.856 0 1.379-.341 1.965-.874l1.047 1.055c-.773.818-1.628 1.33-3.069 1.33zM215.758 23.459l-.684-1.677h-3.162l-.684 1.677h-1.68l3.209-7.524h1.518l3.209 7.524h-1.726zm-2.265-5.553-.995 2.422h1.99l-.995-2.422zM219.702 23.459v-7.467h1.644v5.977h3.732v1.495h-5.376v-.005zm12.031 0v-7.467h1.648v7.467h-1.648zm9.833 0-3.623-4.75v4.75h-1.623v-7.467h1.519l3.504 4.6v-4.6h1.622v7.467h-1.399zm6.924.104a4.745 4.745 0 0 1-3.172-1.196l.975-1.164c.674.553 1.379.905 2.234.905.674 0 1.078-.269 1.078-.703v-.021c0-.414-.259-.631-1.508-.952-1.509-.383-2.478-.802-2.478-2.282v-.021c0-1.356 1.089-2.251 2.618-2.251 1.088 0 2.021.341 2.778.952l-.855 1.237c-.664-.46-1.317-.735-1.944-.735-.632 0-.964.29-.964.652v.02c0 .492.321.653 1.612.984 1.519.393 2.374.937 2.374 2.24v.021c0 1.48-1.135 2.314-2.747 2.314h-.001zm8.47-6.06v5.956h-1.643v-5.956h-2.275v-1.518h6.199v1.517l-2.281.001zm4.68 5.956v-7.467h1.65v7.467h-1.65zm7.973-5.956v5.956h-1.643v-5.956h-2.276v-1.518h6.2v1.517l-2.281.001zm7.728 6.07c-2.01 0-3.24-1.123-3.24-3.317v-4.27h1.649v4.228c0 1.216.612 1.848 1.612 1.848 1.006 0 1.612-.61 1.612-1.79v-4.28h1.648v4.212c0 2.261-1.275 3.369-3.28 3.369h-.001zm9.413-6.07v5.956h-1.643v-5.956h-2.275v-1.518h6.199v1.517l-2.281.001zm4.603 5.956v-7.467h5.645v1.459h-4.007v1.516h3.525v1.46h-3.525v1.568h4.064v1.459h-5.702v.005z"/>
    </g>
</svg>
