<svg width="191" height="40" viewBox="0 0 191 40" xmlns="http://www.w3.org/2000/svg">
    <g fill="currentColor" fill-rule="nonzero">
        <path d="M20 1.607c-10.142 0-18.394 8.25-18.394 18.391 0 10.143 8.252 18.395 18.394 18.395 10.142 0 18.393-8.252 18.393-18.395 0-10.141-8.25-18.391-18.393-18.391M20 40C8.972 40 0 31.027 0 19.998 0 8.971 8.972 0 20 0s20 8.971 20 19.998C40 31.027 31.028 40 20 40"/>
        <path d="m1.318 24.698-.158-.002v-1.372l.158.002c1.845 0 3.347-1.49 3.347-3.323 0-1.832-1.502-3.323-3.347-3.323a3.6 3.6 0 0 0-.233.009L1 15.32c.105-.006.21-.01.318-.01 2.607 0 4.729 2.105 4.729 4.693 0 2.589-2.122 4.695-4.729 4.695zm37.364 0c-2.607 0-4.728-2.106-4.728-4.695 0-2.588 2.12-4.694 4.728-4.694.107 0 .213.005.318.011l-.085 1.369a3.573 3.573 0 0 0-.233-.009c-1.845 0-3.347 1.491-3.347 3.323 0 1.833 1.502 3.323 3.347 3.323l.158-.002v1.372l-.158.002zM3.202 27.4c-.512 0-1.017-.05-1.502-.15l.28-1.343c.393.08.804.122 1.221.122 3.349 0 6.073-2.703 6.073-6.026s-2.724-6.026-6.073-6.026c-.433 0-.864.045-1.283.135l-.291-1.34a7.525 7.525 0 0 1 1.574-.167c4.11 0 7.455 3.319 7.455 7.398S7.312 27.4 3.2 27.4h.002zm33.596 0c-4.11 0-7.454-3.318-7.454-7.397 0-4.08 3.344-7.398 7.454-7.398.532 0 1.062.056 1.575.167l-.293 1.34a6.085 6.085 0 0 0-1.282-.135c-3.348 0-6.072 2.703-6.072 6.026s2.724 6.026 6.072 6.026c.416 0 .828-.041 1.224-.122l.278 1.343c-.487.1-.992.15-1.502.15zM17.953 11.78A14.548 14.548 0 0 1 20 16.23a14.533 14.533 0 0 1 2.046-4.45A17.544 17.544 0 0 0 20 8.801a17.5 17.5 0 0 0-2.047 2.98v-.001zm4.798 1.454a13.123 13.123 0 0 0-1.861 6.75c0 2.454.68 4.764 1.867 6.747a17.123 17.123 0 0 0-.006-13.496v-.001zm-5.504 0a17.11 17.11 0 0 0-.005 13.498 13.106 13.106 0 0 0 1.868-6.747c0-2.459-.678-4.77-1.863-6.751zm.7 14.95A17.248 17.248 0 0 0 20 31.174a17.455 17.455 0 0 0 2.053-2.99A14.495 14.495 0 0 1 20 23.729a14.56 14.56 0 0 1-2.054 4.456l.001-.001zM11.72 38l-.368-1.322c2.99-.82 5.62-2.396 7.707-4.484a18.787 18.787 0 0 1-2.023-2.815 14.734 14.734 0 0 1-10.302 5.198l-.09-1.369a13.347 13.347 0 0 0 9.688-5.146 18.547 18.547 0 0 1-1.463-4.275 10.743 10.743 0 0 1-11.654 6.719l.212-1.354c.465.072.943.108 1.422.108 5.153 0 9.345-4.16 9.345-9.274 0-5.116-4.192-9.277-9.345-9.277-.479 0-.957.037-1.422.109l-.212-1.356a10.826 10.826 0 0 1 1.635-.124c4.567 0 8.477 2.848 10.021 6.848a18.567 18.567 0 0 1 1.468-4.28 13.34 13.34 0 0 0-9.803-5.15l.08-1.37a14.73 14.73 0 0 1 10.429 5.203 18.93 18.93 0 0 1 2.016-2.806 17.377 17.377 0 0 0-7.604-4.463L11.833 2A18.76 18.76 0 0 1 20 6.777 18.763 18.763 0 0 1 28.168 2l.377 1.32a17.378 17.378 0 0 0-7.606 4.463 19.05 19.05 0 0 1 2.015 2.806 14.726 14.726 0 0 1 10.43-5.202l.08 1.369a13.342 13.342 0 0 0-9.805 5.15 18.601 18.601 0 0 1 1.469 4.284A10.74 10.74 0 0 1 35.15 9.338c.549 0 1.099.042 1.634.124l-.213 1.356a9.316 9.316 0 0 0-1.421-.109c-5.153 0-9.345 4.161-9.345 9.277 0 5.114 4.192 9.274 9.345 9.274.478 0 .956-.036 1.42-.108l.214 1.354a10.742 10.742 0 0 1-11.655-6.723 18.602 18.602 0 0 1-1.463 4.278 13.344 13.344 0 0 0 9.688 5.147l-.09 1.369a14.727 14.727 0 0 1-10.302-5.199 18.868 18.868 0 0 1-2.023 2.816 17.385 17.385 0 0 0 7.707 4.484L28.278 38A18.757 18.757 0 0 1 20 33.2a18.766 18.766 0 0 1-8.279 4.8h-.001z"/>
        <path d="M1 20.5h38V19H1zM48 24.024h1.736v-7.889H48v7.889zm4.835 0v-7.889h1.735v6.311h3.934v1.578h-5.669zm14.267 0v-5.151l-2.22 3.37h-.045l-2.197-3.336v5.117h-1.702v-7.889h1.871l2.073 3.336 2.074-3.336h1.871v7.889h-1.725zm8.228-5.86-1.048 2.558h2.096l-1.048-2.558zm2.389 5.86-.722-1.77h-3.335l-.722 1.77h-1.769l3.381-7.945h1.6l3.381 7.945h-1.814zm6.717-6.289v6.289H82.7v-6.289h-2.4v-1.6h6.536v1.6h-2.4zm4.936 6.289h1.736v-7.889h-1.736v7.889zm4.835 0v-7.889h5.951v1.544h-4.227v1.6h3.719v1.544h-3.719v1.657h4.283v1.544h-6.007zm12.25-6.289v6.289h-1.735v-6.289h-2.401v-1.6h6.537v1.6h-2.401zm4.858 6.289v-7.889h5.95v1.544h-4.226v1.6h3.719v1.544h-3.719v1.657h4.283v1.544h-6.007zm8.678 0v-7.889h5.95v1.544h-4.226v1.6h3.719v1.544h-3.719v1.657H126v1.544h-6.007zm14.211 0-3.819-5.015v5.015h-1.714v-7.889h1.601l3.696 4.857v-4.857h1.713v7.889h-1.477zm9.005 0v-7.889h1.736v6.311h3.933v1.578h-5.669zm11.585-5.86-1.048 2.558h2.097l-1.049-2.558zm2.39 5.86-.722-1.77h-3.335l-.721 1.77h-1.77l3.381-7.945h1.6l3.38 7.945h-1.814.001zm4.238 0h1.735v-7.889h-1.735v7.889zm8.407-6.289v6.289h-1.736v-6.289h-2.4v-1.6h6.536v1.6h-2.4zm10.741 2.345c0-1.353-.992-2.48-2.39-2.48-1.397 0-2.366 1.105-2.366 2.457v.022c0 1.353.991 2.48 2.389 2.48 1.397 0 2.367-1.105 2.367-2.457v-.023.001zm-2.39 4.079c-2.434 0-4.18-1.814-4.18-4.057v-.023c0-2.242 1.767-4.079 4.202-4.079 2.434 0 4.18 1.814 4.18 4.057v.022c0 2.243-1.769 4.08-4.203 4.08h.001zm9.625-.023a5.02 5.02 0 0 1-3.347-1.262l1.025-1.228c.71.586 1.454.958 2.356.958.71 0 1.138-.282 1.138-.744v-.023c0-.44-.27-.664-1.59-1.003-1.588-.405-2.614-.845-2.614-2.411V18.4c0-1.43 1.15-2.378 2.762-2.378 1.149 0 2.13.361 2.93 1.003l-.902 1.308c-.699-.485-1.387-.778-2.051-.778-.665 0-1.015.304-1.015.687v.023c0 .518.339.687 1.702 1.037 1.6.417 2.502.992 2.502 2.366v.023c0 1.566-1.194 2.445-2.896 2.445"/>
    </g>
</svg>
