<svg xmlns="http://www.w3.org/2000/svg" width="24" height="24" viewBox="0 0 24 24">
    <g fill="none" fill-rule="evenodd">
        <g fill="currentColor" fill-rule="nonzero">
            <path d="M12.09 0l.312.005c4.876.161 8.779 4.084 8.779 8.869 0 1.76-1.11 4.34-3.306 7.667l-.572.849c-.866 1.256-1.836 2.552-2.884 3.857l-.307.38c-.503.62-.977 1.18-1.39 1.654l-.633.719-.631-.72-.522-.607c-.183-.216-.374-.444-.569-.682l-.605-.744c-1.048-1.305-2.018-2.601-2.884-3.858C4.3 13.649 3 10.779 3 8.874 3 4.089 6.901.166 11.779.005L12.09 0zm0 5.195c-2.151 0-3.895 1.744-3.895 3.895 0 2.152 1.744 3.896 3.895 3.896 2.152 0 3.896-1.744 3.896-3.896 0-2.151-1.744-3.895-3.896-3.895z"/>
        </g>
    </g>
</svg>
