<svg xmlns="http://www.w3.org/2000/svg" width="24" height="24" viewBox="0 0 24 24">
    <g fill="none" fill-rule="evenodd">
        <g fill="currentColor" fill-rule="nonzero">
            <g>
                <path d="M7-1C4.79-1 3 .79 3 3v8c0 2.21 1.79 4 4 4s4-1.79 4-4V3c0-2.21-1.79-4-4-4zm0 2c1.105 0 2 .895 2 2v8c0 1.105-.895 2-2 2s-2-.895-2-2V3c0-1.105.895-2 2-2z" transform="translate(5.000000, 1.000000)"/>
                <path d="M14 8c.513 0 .936.386.993.883L15 9v2c0 4.418-3.582 8-8 8-4.335 0-7.865-3.448-7.996-7.75L-1 11V9c0-.552.448-1 1-1 .513 0 .936.386.993.883L1 9v2c0 3.314 2.686 6 6 6 3.238 0 5.878-2.566 5.996-5.775L13 11V9c0-.552.448-1 1-1z" transform="translate(5.000000, 1.000000)"/>
                <path d="M7 17c.513 0 .936.386.993.883L8 18v4c0 .552-.448 1-1 1-.513 0-.936-.386-.993-.883L6 22v-4c0-.552.448-1 1-1z" transform="translate(5.000000, 1.000000)"/>
                <path d="M11 21c.552 0 1 .448 1 1 0 .513-.386.936-.883.993L11 23H3c-.552 0-1-.448-1-1 0-.513.386-.936.883-.993L3 21h8z" transform="translate(5.000000, 1.000000)"/>
            </g>
        </g>
    </g>
</svg>
