<svg width="24" height="24" viewBox="0 0 24 24" xmlns="http://www.w3.org/2000/svg">
    <g fill="currentColor" fill-rule="nonzero">
        <path d="M12 6.406a3.094 3.094 0 1 0 0 6.188 3.094 3.094 0 0 0 0-6.188zm0 1.3a1.794 1.794 0 1 1 0 3.588 1.794 1.794 0 0 1 0-3.588zM12 3.35a.65.65 0 0 1 .643.554L12.65 4v.611a.65.65 0 0 1-1.293.096l-.007-.096V4a.65.65 0 0 1 .65-.65zM17.5 8.85a.65.65 0 0 1 .096 1.293l-.096.007h-.611a.65.65 0 0 1-.096-1.293l.096-.007h.611zM12 13.739a.65.65 0 0 1 .643.554l.007.096V15a.65.65 0 0 1-1.293.096L11.35 15v-.611a.65.65 0 0 1 .65-.65zM7.63 5.13a.65.65 0 0 1 .838-.07l.08.07.428.427a.65.65 0 0 1-.838.988l-.081-.069-.428-.427a.65.65 0 0 1 0-.92zM15.451 5.13a.65.65 0 0 1 .988.838l-.068.08-.428.428a.65.65 0 0 1-.988-.838l.069-.081.427-.428zM15.024 12.524a.65.65 0 0 1 .838-.069l.081.069.428.427a.65.65 0 0 1-.839.988l-.08-.068-.428-.428a.65.65 0 0 1 0-.92zM8.057 12.524a.65.65 0 0 1 .988.838l-.069.081-.427.428a.65.65 0 0 1-.988-.839l.068-.08.428-.428zM7.111 8.85a.65.65 0 0 1 .096 1.293l-.096.007H6.5a.65.65 0 0 1-.096-1.293L6.5 8.85h.611zM19.312 18.5c.38 0 .688.336.688.75 0 .38-.259.693-.595.743l-.093.007H4.688c-.38 0-.688-.336-.688-.75 0-.38.259-.693.595-.743l.093-.007h14.624z"/>
    </g>
</svg>
