<svg width="24" height="24" viewBox="0 0 24 24" xmlns="http://www.w3.org/2000/svg">
    <path d="M19 20a1 1 0 0 1 .117 1.993L19 22H5a1 1 0 0 1-.117-1.993L5 20h14zm-7-4.833a1 1 0 0 1 .993.883l.007.117V17a1 1 0 0 1-1.993.117L11 17v-.833a1 1 0 0 1 1-1zm5.363-1.707.094.083.583.583a1 1 0 0 1-1.32 1.498l-.094-.084-.583-.583a1 1 0 0 1 1.32-1.497zm-9.406.083a1 1 0 0 1 .083 1.32l-.083.094-.583.583a1 1 0 0 1-1.498-1.32l.084-.094.583-.583a1 1 0 0 1 1.414 0zM12 5.167a4.333 4.333 0 1 1 0 8.666 4.333 4.333 0 0 1 0-8.666zm0 2a2.333 2.333 0 1 0 0 4.666 2.333 2.333 0 0 0 0-4.666zM19.5 8.5a1 1 0 0 1 .117 1.993l-.117.007h-.833a1 1 0 0 1-.117-1.993l.117-.007h.833zm-14.167 0a1 1 0 0 1 .117 1.993l-.117.007H4.5a1 1 0 0 1-.117-1.993L4.5 8.5h.833zM7.28 3.376l.094.084.583.583a1 1 0 0 1-1.32 1.497l-.094-.083-.583-.583a1 1 0 0 1 1.32-1.498zm10.76.084a1 1 0 0 1 .084 1.32l-.084.094-.583.583a1 1 0 0 1-1.497-1.32l.083-.094.583-.583a1 1 0 0 1 1.414 0zM12 1a1 1 0 0 1 .993.883L13 2v.833a1 1 0 0 1-1.993.117L11 2.833V2a1 1 0 0 1 1-1z" fill="currentColor" fill-rule="nonzero"/>
</svg>
