<?xml version="1.0" encoding="UTF-8"?>
<svg width="40px" height="40px" viewBox="0 0 40 40" version="1.1" xmlns="http://www.w3.org/2000/svg" xmlns:xlink="http://www.w3.org/1999/xlink">
    <title>B24BDA68-130E-4B8A-9A40-4205E91EA904</title>
    <g id="Symbols" stroke="none" stroke-width="1" fill="none" fill-rule="evenodd">
        <g id="icon/play-light-mode" fill="currentColor" fill-rule="nonzero">
            <g id="play-light-mode">
                <path d="M20,0 C31.046,0 40,8.954 40,20 C40,31.046 31.046,40 20,40 C8.954,40 0,31.046 0,20 C0,8.954 8.954,0 20,0 Z M20,3 C10.611,3 3,10.611 3,20 C3,29.389 10.611,37 20,37 C29.389,37 37,29.389 37,20 C37,10.611 29.389,3 20,3 Z" id="Shape"></path>
                <path d="M27.66,21.12 L17.146,27.882 C16.802,28.102 16.342,28.005 16.119,27.662 C16.041,27.543 16,27.404 16,27.262 L16,13.738 C16,13.33 16.332,13 16.743,13 C16.886,13 17.026,13.041 17.146,13.118 L27.661,19.88 C28.005,20.102 28.104,20.559 27.881,20.9 C27.824,20.988 27.749,21.063 27.661,21.12 L27.66,21.12 Z" id="Path"></path>
            </g>
        </g>
    </g>
</svg>