<svg width="24" height="24" viewBox="0 0 24 24" xmlns="http://www.w3.org/2000/svg">
    <g fill="currentColor" fill-rule="nonzero">
        <path d="M19.312 18.5c.38 0 .688.336.688.75 0 .38-.259.693-.595.743l-.093.007H4.688c-.38 0-.688-.336-.688-.75 0-.38.259-.693.595-.743l.093-.007h14.624zM12.199 4.353l-.04-.003c-2.426 0-4.457 1.928-4.768 4.483-.31 2.546 1.178 4.96 3.508 5.636 2.347.683 4.789-.617 5.708-3.01a.65.65 0 0 0-.868-.828c-1.243.545-2.67.05-3.404-1.197-.748-1.273-.55-2.951.466-3.972l.065-.075a.65.65 0 0 0-.526-1.033l-.141-.001zm-1.224 1.523-.062.147a4.667 4.667 0 0 0 .302 4.07l.114.183c.735 1.124 1.9 1.79 3.13 1.868l.244.007c-.87 1-2.18 1.437-3.441 1.07-1.701-.494-2.816-2.301-2.58-4.231.175-1.44 1.06-2.599 2.229-3.088l.064-.026z"/>
    </g>
</svg>
