<svg width="24" height="24" viewBox="0 0 24 24" xmlns="http://www.w3.org/2000/svg">
    <path d="m13.852 4.917 2.842 7.501c.284.607.457 1.28.496 1.99l.01.306c0 2.92-2.282 5.286-5.1 5.286C9.283 20 7 17.633 7 14.714c0-.809.175-1.575.49-2.262l2.855-7.535c.969-2.555 2.537-2.557 3.507 0zm-1.754 1.018-2.739 7.226-.05.123A3.425 3.425 0 0 0 9 14.714C9 16.544 10.405 18 12.1 18c1.638 0 3.003-1.356 3.095-3.098l.004-.188c0-.43-.076-.842-.221-1.224l-.154-.363-2.726-7.192z" fill="currentColor" fill-rule="nonzero"/>
</svg>
