<svg width="256" height="40" viewBox="0 0 256 40" xmlns="http://www.w3.org/2000/svg">
    <g fill="currentColor" fill-rule="evenodd">
        <path d="M19.55 1.57c-9.914 0-17.98 8.065-17.98 17.977 0 9.915 8.066 17.981 17.98 17.981 9.913 0 17.979-8.066 17.979-17.98 0-9.913-8.066-17.978-17.98-17.978m0 37.529C8.77 39.099 0 30.328 0 19.547 0 8.769 8.77 0 19.55 0 30.33 0 39.1 8.769 39.1 19.547c0 10.78-8.77 19.552-19.55 19.552"/>
        <path d="m1.637 24.105-.151-.001v-1.326l.151.002a3.216 3.216 0 0 0 3.213-3.215 3.216 3.216 0 0 0-3.435-3.204l-.082-1.323a4.543 4.543 0 0 1 4.843 4.528 4.543 4.543 0 0 1-4.538 4.539h-.001zm35.858 0a4.543 4.543 0 0 1-4.538-4.539 4.543 4.543 0 0 1 4.843-4.527l-.082 1.323a3.216 3.216 0 0 0-3.436 3.204 3.216 3.216 0 0 0 3.213 3.214l.151-.002v1.326l-.151.002v-.001zm-34.05 2.613a7.11 7.11 0 0 1-1.441-.145l.268-1.298a5.833 5.833 0 0 0 7-5.709 5.834 5.834 0 0 0-7.058-5.696l-.28-1.296a7.17 7.17 0 0 1 1.51-.16c3.945 0 7.154 3.208 7.154 7.152s-3.209 7.152-7.153 7.152zm32.241 0a7.16 7.16 0 0 1-7.152-7.152 7.16 7.16 0 0 1 8.664-6.992l-.281 1.296a5.833 5.833 0 0 0-7.058 5.696 5.833 5.833 0 0 0 7.002 5.709l.267 1.298a7.146 7.146 0 0 1-1.442.145zM17.601 11.617a14.114 14.114 0 0 1 1.965 4.302 14.099 14.099 0 0 1 1.963-4.302 16.944 16.944 0 0 0-1.963-2.881c-.752.89-1.41 1.855-1.965 2.88v.001zm4.605 1.406a12.762 12.762 0 0 0-1.787 6.526c0 2.373.653 4.607 1.792 6.524a16.662 16.662 0 0 0-.005-13.05zm-5.282 0a16.645 16.645 0 0 0-.005 13.05 12.737 12.737 0 0 0 1.792-6.524c0-2.377-.65-4.61-1.787-6.527v.001zm.67 14.455c.556 1.03 1.217 2 1.971 2.891a16.896 16.896 0 0 0 1.97-2.89 14.11 14.11 0 0 1-1.97-4.309 14.129 14.129 0 0 1-1.97 4.308h-.001zm-5.973 9.49-.353-1.278a16.654 16.654 0 0 0 7.396-4.336 18.234 18.234 0 0 1-1.942-2.722c-2.4 2.858-5.912 4.765-9.886 5.026l-.087-1.324c3.793-.248 7.121-2.151 9.298-4.975a18.056 18.056 0 0 1-1.404-4.134c-1.483 3.866-5.234 6.618-9.616 6.618-.528 0-1.056-.04-1.569-.12l.204-1.31c.446.069.906.104 1.365.104 4.945 0 8.968-4.022 8.968-8.968 0-4.945-4.023-8.969-8.968-8.969-.46 0-.919.035-1.365.105l-.204-1.31a10.22 10.22 0 0 1 1.57-.12c4.382 0 8.134 2.753 9.616 6.621.3-1.432.774-2.822 1.409-4.14a12.78 12.78 0 0 0-9.408-4.979l.075-1.322a14.093 14.093 0 0 1 10.009 5.03 18.285 18.285 0 0 1 1.935-2.713 16.65 16.65 0 0 0-7.298-4.316l.361-1.276a17.969 17.969 0 0 1 7.838 4.62 17.976 17.976 0 0 1 7.839-4.62l.36 1.276a16.657 16.657 0 0 0-7.298 4.316 18.285 18.285 0 0 1 1.934 2.713 14.093 14.093 0 0 1 10.01-5.03l.075 1.323a12.78 12.78 0 0 0-9.408 4.98 18.061 18.061 0 0 1 1.409 4.142c1.481-3.87 5.234-6.625 9.618-6.625.527 0 1.054.04 1.568.12l-.205 1.311a8.86 8.86 0 0 0-1.363-.105c-4.945 0-8.968 4.024-8.968 8.97 0 4.945 4.023 8.967 8.968 8.967.459 0 .917-.035 1.363-.104l.205 1.31c-.514.08-1.041.12-1.568.12-4.383 0-8.135-2.754-9.617-6.621a18.062 18.062 0 0 1-1.404 4.136c2.176 2.825 5.504 4.728 9.297 4.976l-.086 1.324c-3.975-.261-7.486-2.167-9.887-5.026a18.257 18.257 0 0 1-1.941 2.722 16.667 16.667 0 0 0 7.396 4.336l-.353 1.278a17.982 17.982 0 0 1-7.945-4.642 17.975 17.975 0 0 1-7.944 4.642l.001-.001z"/>
        <path d="M.79 20.297h37.557v-1.5H.79zM54.003 23.458v-5.103l-2.2 3.339h-.045l-2.178-3.306v5.07h-1.686V15.64h1.854l2.055 3.306 2.055-3.306h1.854v7.818h-1.709zm4.7 0V15.64H64.6v1.53h-4.188v1.586h3.685v1.53h-3.685v1.642h4.244v1.53h-5.953zm12.138-6.232v6.233h-1.72v-6.234h-2.379v-1.586h6.478v1.586l-2.379.001zm4.812 6.232V15.64h5.898v1.53h-4.189v1.586h3.686v1.53h-3.686v1.642h4.244v1.53h-5.953zm14.764-3.909c0-1.34-.983-2.457-2.368-2.457-1.385 0-2.346 1.095-2.346 2.435v.022c0 1.341.983 2.457 2.368 2.457 1.385 0 2.346-1.094 2.346-2.434v-.023zm-2.368 4.044c-2.413 0-4.144-1.798-4.144-4.021v-.023c0-2.222 1.754-4.043 4.166-4.043 2.413 0 4.144 1.798 4.144 4.02v.023c0 2.223-1.754 4.044-4.166 4.044zM99.64 18.31c0-.737-.514-1.117-1.351-1.117h-1.71v2.245h1.743c.838 0 1.318-.447 1.318-1.106v-.022zm-.034 5.149-1.675-2.504H96.58v2.503h-1.72v-7.819h3.574c1.842 0 2.948.972 2.948 2.58v.023c0 1.262-.681 2.055-1.675 2.423l1.91 2.793h-2.01l-.001.001zm10.609-3.91c0-1.34-.983-2.457-2.368-2.457-1.385 0-2.346 1.095-2.346 2.435v.022c0 1.341.984 2.457 2.368 2.457 1.385 0 2.346-1.094 2.346-2.434v-.023zm-2.368 4.044c-2.412 0-4.144-1.798-4.144-4.021v-.023c0-2.222 1.754-4.043 4.166-4.043 2.413 0 4.144 1.798 4.144 4.02v.023c0 2.223-1.754 4.044-4.166 4.044zm6.811-.135V15.64h1.72v6.255h3.898v1.563h-5.618zm13.747-3.909c0-1.34-.983-2.457-2.368-2.457-1.385 0-2.345 1.095-2.345 2.435v.022c0 1.341.983 2.457 2.368 2.457 1.384 0 2.345-1.094 2.345-2.434v-.023zm-2.368 4.044c-2.412 0-4.143-1.798-4.143-4.021v-.023c0-2.222 1.753-4.043 4.166-4.043 2.412 0 4.143 1.798 4.143 4.02v.023c0 2.223-1.753 4.044-4.166 4.044zm10.575 0c-2.435 0-4.11-1.71-4.11-4.022v-.022c0-2.222 1.73-4.043 4.099-4.043 1.407 0 2.256.38 3.071 1.073l-1.083 1.306c-.603-.502-1.14-.793-2.044-.793-1.251 0-2.245 1.106-2.245 2.435v.022c0 1.43.983 2.48 2.368 2.48.625 0 1.184-.157 1.619-.47v-1.116h-1.73v-1.485h3.394v3.395c-.804.682-1.91 1.24-3.34 1.24m6.186-.135h1.72v-7.817h-1.72v7.817zm7.571.112a4.976 4.976 0 0 1-3.317-1.25l1.017-1.218c.704.58 1.44.95 2.335.95.703 0 1.128-.28 1.128-.738v-.022c0-.436-.269-.66-1.576-.994-1.574-.403-2.59-.838-2.59-2.39v-.023c0-1.418 1.138-2.357 2.736-2.357 1.139 0 2.11.358 2.904.995l-.894 1.295c-.692-.48-1.374-.77-2.033-.77-.659 0-1.005.301-1.005.681v.022c0 .514.335.682 1.686 1.027 1.586.414 2.48.984 2.48 2.346v.023c0 1.552-1.184 2.423-2.87 2.423m10.531-.112-2.424-3.328-.905.938v2.39h-1.72V15.64h1.72v3.418l3.172-3.418h2.077l-3.183 3.318 3.328 4.5H160.9zm7.447-5.807-1.04 2.535h2.079l-1.04-2.535h.001zm2.368 5.807L170 21.705h-3.306l-.715 1.753h-1.753l3.35-7.873h1.586l3.351 7.873h-1.798zm8.664 0h1.72v-7.817h-1.72v7.817zm10.274 0-3.786-4.97v4.97h-1.698V15.64h1.586l3.663 4.814V15.64h1.698v7.818h-1.463zm7.235.112a4.976 4.976 0 0 1-3.317-1.25l1.016-1.218c.704.58 1.441.95 2.335.95.703 0 1.128-.28 1.128-.738v-.022c0-.436-.268-.66-1.575-.994-1.575-.403-2.591-.838-2.591-2.39v-.023c0-1.418 1.139-2.357 2.736-2.357 1.139 0 2.11.358 2.904.995l-.893 1.295c-.693-.48-1.375-.77-2.033-.77-.66 0-1.006.301-1.006.681v.022c0 .514.336.682 1.687 1.027 1.586.414 2.48.984 2.48 2.346v.023c0 1.552-1.185 2.423-2.871 2.423m8.855-6.344v6.233h-1.72v-6.234h-2.38v-1.586h6.478v1.586l-2.378.001zm4.89 6.232h1.72v-7.817h-1.72v7.817zm8.331-6.232v6.233h-1.72v-6.234h-2.38v-1.586h6.478v1.586l-2.378.001zm8.073 6.355c-2.1 0-3.384-1.172-3.384-3.473V15.64h1.72v4.423c0 1.274.636 1.932 1.686 1.932 1.05 0 1.686-.636 1.686-1.876V15.64h1.72v4.412c0 2.368-1.329 3.53-3.428 3.53m9.837-6.356v6.233h-1.72v-6.234h-2.379v-1.586h6.478v1.586l-2.379.001zm4.813 6.232V15.64h5.897v1.53h-4.189v1.586h3.686v1.53h-3.686v1.642h4.245v1.53h-5.953zm12.138-6.232v6.233h-1.72v-6.234h-2.379v-1.586h6.478v1.586l-2.379.001z"/>
    </g>
</svg>
