<svg xmlns="http://www.w3.org/2000/svg" width="24" height="24" viewBox="0 0 24 24">
    <g fill="none" fill-rule="evenodd">
        <g fill="currentColor" fill-rule="nonzero">
            <g>
                <path d="M9.5 0C14.747 0 19 4.253 19 9.5c0 2.394-.89 4.652-2.468 6.388l-.072.07-.047.04 4.299 4.3c.36.36.388.927.083 1.32l-.084.094c-.36.36-.927.388-1.32.083l-.094-.083-4.396-4.397-.274.184C13.112 18.472 11.344 19 9.5 19 4.253 19 0 14.747 0 9.5S4.253 0 9.5 0zm0 2C5.358 2 2 5.358 2 9.5 2 13.642 5.358 17 9.5 17c1.442 0 2.83-.407 4.03-1.173l.209-.14 1.344-1.182.173-.196c1.06-1.267 1.67-2.838 1.738-4.497L17 9.5C17 5.358 13.642 2 9.5 2z" transform="translate(1.500000, 1.000000)"/>
            </g>
        </g>
    </g>
</svg>
