<svg width="24" height="24" viewBox="0 0 24 24" xmlns="http://www.w3.org/2000/svg">
    <g fill="none" fill-rule="evenodd">
        <path d="M0 0h24v24H0z"/>
        <path d="M0 0h24v24H0z"/>
        <path d="M14 3a3 3 0 1 0 0 6 3 3 0 0 0 0-6zm0 2a1 1 0 1 1 0 2 1 1 0 0 1 0-2z" fill="currentColor" fill-rule="nonzero"/>
        <path d="M12 5a1 1 0 0 1 .117 1.993L12 7H4a1 1 0 0 1-.117-1.993L4 5h8zM20 5a1 1 0 0 1 .117 1.993L20 7h-4a1 1 0 0 1-.117-1.993L16 5h4zM8 9a3 3 0 1 0 0 6 3 3 0 0 0 0-6zm0 2a1 1 0 1 1 0 2 1 1 0 0 1 0-2z" fill="currentColor" fill-rule="nonzero"/>
        <path d="M6 11a1 1 0 0 1 .117 1.993L6 13H4a1 1 0 0 1-.117-1.993L4 11h2zM20 11a1 1 0 0 1 .117 1.993L20 13H10a1 1 0 0 1-.117-1.993L10 11h10zM17 15a3 3 0 1 0 0 6 3 3 0 0 0 0-6zm0 2a1 1 0 1 1 0 2 1 1 0 0 1 0-2z" fill="currentColor" fill-rule="nonzero"/>
        <path d="M15 17a1 1 0 0 1 .117 1.993L15 19H4a1 1 0 0 1-.117-1.993L4 17h11zM20 17a1 1 0 0 1 .117 1.993L20 19h-1a1 1 0 0 1-.117-1.993L19 17h1z" fill="currentColor" fill-rule="nonzero"/>
    </g>
</svg>
