<svg width="24" height="24" viewBox="0 0 24 24" xmlns="http://www.w3.org/2000/svg">
    <g fill="none" fill-rule="evenodd">
        <path d="M0 0h24v24H0z"/>
        <path d="M17 15.25c1.259 0 2.32.846 2.647 2H20a.75.75 0 0 1 .102 1.493L20 18.75h-.354a2.751 2.751 0 0 1-5.292 0H4a.75.75 0 0 1-.102-1.493L4 17.25h10.353a2.751 2.751 0 0 1 2.647-2zm0 1.5a1.25 1.25 0 1 0 0 2.5 1.25 1.25 0 0 0 0-2.5zm-9-7.5c1.259 0 2.32.846 2.647 2H20a.75.75 0 0 1 .102 1.493L20 12.75h-9.354a2.751 2.751 0 0 1-5.292 0H4a.75.75 0 0 1-.102-1.493L4 11.25h1.353A2.751 2.751 0 0 1 8 9.25zm0 1.5a1.25 1.25 0 1 0 0 2.5 1.25 1.25 0 0 0 0-2.5zm6-7.5c1.259 0 2.32.846 2.647 2H20a.75.75 0 0 1 .102 1.493L20 6.75h-3.354a2.751 2.751 0 0 1-5.292 0H4a.75.75 0 0 1-.102-1.493L4 5.25h7.353a2.751 2.751 0 0 1 2.647-2zm0 1.5a1.25 1.25 0 1 0 0 2.5 1.25 1.25 0 0 0 0-2.5z" fill="currentColor" fill-rule="nonzero"/>
    </g>
</svg>
