<?xml version="1.0" encoding="UTF-8"?><svg id="Layer_3" xmlns="http://www.w3.org/2000/svg" viewBox="0 0 120 120"><defs><style>.cls-1{fill:#ffde14;}</style></defs><g><path class="cls-1" d="M55.386,16.36L12.37,93.715c-2.054,3.694,.617,8.235,4.843,8.235H103.245c4.227,0,6.897-4.541,4.843-8.235L65.072,16.36c-2.112-3.798-7.575-3.798-9.687,0Z"/><path d="M103.245,102.95H17.213c-2.344,0-4.451-1.206-5.639-3.226s-1.217-4.447-.078-6.495L54.512,15.874c1.171-2.106,3.309-3.363,5.718-3.363s4.546,1.257,5.717,3.363l43.016,77.355c1.139,2.048,1.109,4.476-.078,6.495s-3.295,3.226-5.639,3.226ZM56.26,16.846L13.244,94.202c-.791,1.421-.771,3.106,.054,4.509s2.288,2.239,3.915,2.239H103.245c1.627,0,3.091-.837,3.915-2.239s.845-3.088,.054-4.509L64.198,16.846c-.812-1.462-2.297-2.334-3.969-2.334s-3.157,.873-3.97,2.334h0Z"/></g><path d="M54.682,39.156h11.094v13.242l-2.871,24.363h-5.281l-2.942-24.363v-13.242Zm.249,41.822h10.597v10.242h-10.597v-10.242Z"/></svg>