<svg width="24" height="24" viewBox="0 0 24 24" xmlns="http://www.w3.org/2000/svg">
    <path d="M12 2a1 1 0 0 1 .993.883L13 3v2.76l1.834-1.464a1 1 0 0 1 1.342 1.477l-.093.085L13 8.322v2.677h2.923l2.356-2.945.085-.093a1 1 0 0 1 1.477 1.342L18.485 11 21 11a1 1 0 0 1 .117 1.993L21 13l-2.742-.001 1.583 1.978.072.103a1 1 0 0 1-1.634 1.147l-2.582-3.228H13v2.958l3.083 2.466.093.084a1 1 0 0 1 .063 1.321l-.084.093a1 1 0 0 1-1.321.064L13 18.519V21a1 1 0 0 1-1.993.117L11 21v-2.489l-1.84 1.473-.103.073a1 1 0 0 1-1.147-1.634L11 15.949v-2.95H8.296l-2.582 3.228A1 1 0 0 1 4.08 15.08l.073-.103 1.581-1.978L3 13a1 1 0 0 1-.117-1.993L3 11l2.507-.001-1.355-1.696A1 1 0 0 1 5.63 7.961l.084.093L8.07 11H11V8.33L7.91 5.858a1 1 0 0 1 1.147-1.634l.103.072L11 5.77V3a1 1 0 0 1 1-1z" fill="currentColor" fill-rule="nonzero"/>
</svg>
