<svg width="24" height="24" viewBox="0 0 24 24" xmlns="http://www.w3.org/2000/svg">
    <path d="M12 4.75a.75.75 0 0 1 .743.648l.007.102v1.936l1.28-1.022a.75.75 0 0 1 1.018 1.096l-.082.076-2.216 1.771v1.893h2.077l1.69-2.113.076-.082a.75.75 0 0 1 1.096 1.019l-.942 1.176H18.5a.75.75 0 0 1 .102 1.493l-.102.007h-1.921l1.11 1.387.062.091a.75.75 0 0 1-1.234.846l-1.859-2.324H12.75v2.102l2.216 1.773.082.075a.75.75 0 0 1-1.019 1.096l-1.279-1.022V18.5a.75.75 0 0 1-1.493.102l-.007-.102v-1.732l-1.284 1.028-.091.063a.75.75 0 0 1-.846-1.234l2.221-1.779V12.75H9.336l-1.858 2.324a.75.75 0 0 1-1.234-.846l.063-.091 1.108-1.387H5.5a.75.75 0 0 1-.102-1.493l.102-.007h1.747l-.94-1.176a.75.75 0 0 1 1.096-1.019l.075.082 1.69 2.113h2.082V9.363L9.029 7.586a.75.75 0 0 1 .846-1.234l.091.062 1.284 1.028V5.5a.75.75 0 0 1 .75-.75z" fill="currentColor" fill-rule="nonzero"/>
</svg>
