<svg width="44" height="44" viewBox="0 0 44 44" xmlns="http://www.w3.org/2000/svg">
    <g transform="translate(2 2)" fill-rule="nonzero" fill="none">
        <circle fill="#636366" cx="20" cy="20" r="20"/>
        <g fill="#FFF">
            <path d="M28.125 24.4a3.729 3.729 0 0 1-3.724 3.725h-8.912a3.729 3.729 0 0 1-3.725-3.724v-8.912a3.729 3.729 0 0 1 3.725-3.725H24.4a3.729 3.729 0 0 1 3.724 3.725V24.4h.001zM24.401 10h-8.912A5.495 5.495 0 0 0 10 15.49v8.91a5.495 5.495 0 0 0 5.49 5.49h8.91a5.496 5.496 0 0 0 5.49-5.49v-8.91A5.494 5.494 0 0 0 24.4 10z"/>
            <path d="M19.945 23.305a3.364 3.364 0 0 1-3.36-3.36 3.365 3.365 0 0 1 3.36-3.362 3.365 3.365 0 0 1 3.36 3.361 3.364 3.364 0 0 1-3.36 3.36m0-8.485a5.13 5.13 0 0 0-5.125 5.125 5.13 5.13 0 0 0 5.125 5.125c2.825 0 5.125-2.299 5.125-5.125s-2.3-5.125-5.125-5.125m5.34-1.495a1.297 1.297 0 0 0-1.294 1.294c0 .34.139.674.38.915.24.24.574.379.914.379.342 0 .674-.139.915-.379.242-.241.38-.575.38-.915 0-.341-.138-.676-.38-.916a1.3 1.3 0 0 0-.915-.378"/>
        </g>
    </g>
</svg>
