<svg width="44" height="44" viewBox="0 0 44 44" xmlns="http://www.w3.org/2000/svg">
    <g transform="translate(2 2)" fill-rule="nonzero" fill="none">
        <circle fill="#636366" cx="20" cy="20" r="20"/>
        <path d="M30.788 16.236s-.206-1.47-.835-2.118c-.799-.85-1.693-.853-2.105-.901C24.91 13 20.502 13 20.502 13h-.009s-4.408 0-7.346.217c-.412.048-1.306.053-2.105.901-.63.648-.834 2.117-.834 2.117S10 17.962 10 19.689v1.618c0 1.726.21 3.45.21 3.45s.205 1.47.833 2.117c.8.85 1.85.823 2.317.913 1.678.163 7.138.214 7.138.214s4.415-.006 7.353-.223c.41-.048 1.305-.053 2.103-.904.631-.646.836-2.116.836-2.116s.21-1.726.21-3.451v-1.619a33.02 33.02 0 0 0-.212-3.452z" fill="#FFF"/>
        <path fill="#48484A" d="M18.46 23.266v-5.992l5.762 3.005z"/>
    </g>
</svg>
