<?xml version="1.0" encoding="utf-8"?>
<!-- Generator: Adobe Illustrator 27.8.1, SVG Export Plug-In . SVG Version: 6.00 Build 0)  -->
<svg version="1.1" id="Layer_1" xmlns="http://www.w3.org/2000/svg" xmlns:xlink="http://www.w3.org/1999/xlink" x="0px" y="0px"
	 viewBox="0 0 48 48" style="enable-background:new 0 0 48 48;" xml:space="preserve">
<style type="text/css">
	.st0{fill:#303193;}
	.st1{fill:#FFFFFF;}
</style>
<g id="X_valkoinen_pohja">
	<path class="st0" d="M24,47.3c-6.2,0-12.1-2.4-16.5-6.8C3,36.1,0.6,30.2,0.6,23.9S3,11.8,7.4,7.4S17.7,0.6,24,0.6S36.1,3,40.5,7.4
		s6.8,10.3,6.8,16.5S44.9,36,40.5,40.4C36.1,44.9,30.2,47.3,24,47.3z"/>
	<circle class="st1" cx="24" cy="23.9" r="21.7"/>
	<g id="layer1_00000065797213429985166620000012045528538984339853_" transform="translate(52.390088,-25.058597)">
		<g id="path1009_00000145755094209818039080000002092693704892776589_">
			<path class="st0" d="M-41.4,36.3l10.4,14l-10.5,11.4h2.4l9.2-9.9l7.4,9.9h8.1l-11-14.8l9.8-10.6H-18l-8.5,9.2l-6.8-9.2
				C-33.3,36.3-41.4,36.3-41.4,36.3z M-37.9,38.1h3.7l16.3,21.8h-3.7L-37.9,38.1z"/>
		</g>
	</g>
</g>
</svg>
