<svg width="44" height="44" viewBox="0 0 44 44" xmlns="http://www.w3.org/2000/svg">
    <g transform="translate(2 2)" fill-rule="nonzero" fill="none">
        <circle fill="#303193" cx="20" cy="20" r="20"/>
        <path d="M20.23 16.292c0 .335.04.663.112.977a12.253 12.253 0 0 1-8.882-4.486 4.285 4.285 0 0 0 1.333 5.732 4.307 4.307 0 0 1-1.951-.538v.054a4.297 4.297 0 0 0 3.456 4.209 4.327 4.327 0 0 1-1.946.073 4.309 4.309 0 0 0 4.026 2.981 8.665 8.665 0 0 1-5.35 1.838c-.348 0-.69-.021-1.028-.06A12.234 12.234 0 0 0 16.604 29c7.925 0 12.258-6.542 12.258-12.21 0-.188-.004-.372-.013-.557A8.72 8.72 0 0 0 31 14.012a8.612 8.612 0 0 1-2.475.675 4.31 4.31 0 0 0 1.894-2.373 8.649 8.649 0 0 1-2.736 1.042A4.31 4.31 0 0 0 24.538 12c-2.38 0-4.31 1.922-4.31 4.292z" fill="#FFF"/>
    </g>
</svg>
