<svg xmlns="http://www.w3.org/2000/svg" width="24" height="24" viewBox="0 0 24 24">
    <g fill="none" fill-rule="evenodd">
        <g fill="currentColor" fill-rule="nonzero">
            <g>
                <path d="M6.246 5.346l-6.39.935-.114.023c-.736.191-1.005 1.132-.44 1.682l4.623 4.503-1.09 6.362-.014.11c-.049.761.764 1.312 1.464.944L10 16.9l5.715 3.005.1.047c.71.282 1.484-.321 1.35-1.101l-1.091-6.362 4.624-4.503.078-.085c.483-.587.15-1.506-.631-1.62l-6.392-.935-2.856-5.789c-.367-.743-1.427-.743-1.794 0L6.246 5.346z" transform="translate(2.000000, 2.000000)"/>
            </g>
        </g>
    </g>
</svg>
