<svg xmlns="http://www.w3.org/2000/svg" width="24" height="24" viewBox="0 0 24 24">
    <g fill="none" fill-rule="evenodd">
        <g fill="currentColor" fill-rule="nonzero">
            <g>
                <path d="M6.246 5.346l-6.39.935-.114.023c-.736.191-1.005 1.132-.44 1.682l4.623 4.503-1.09 6.362-.014.11c-.049.761.764 1.312 1.464.944L10 16.9l5.715 3.005.1.047c.71.282 1.484-.321 1.35-1.101l-1.091-6.362 4.624-4.503.078-.085c.483-.587.15-1.506-.631-1.62l-6.392-.935-2.856-5.789c-.367-.743-1.427-.743-1.794 0L6.246 5.346zM10 2.258l2.193 4.445.061.106c.156.237.407.399.691.44l4.906.717-3.549 3.458-.082.09c-.178.222-.254.511-.206.795l.837 4.882-4.386-2.306-.111-.05c-.266-.1-.564-.084-.82.05L5.149 17.19l.838-4.882.013-.122c.013-.284-.095-.562-.301-.763l-3.55-3.458 4.907-.717c.325-.047.606-.252.752-.546L10 2.258z" transform="translate(2.000000, 2.000000)"/>
            </g>
        </g>
    </g>
</svg>
