<svg width="24" height="24" viewBox="0 0 24 24" xmlns="http://www.w3.org/2000/svg">
    <path d="M21.5 17.5a1 1 0 0 1 .117 1.993l-.117.007h-19a1 1 0 0 1-.117-1.993L2.5 17.5h19zM12 9c3.013 0 5.5 2.21 5.5 5a1 1 0 0 1-1.993.117L15.5 14c0-1.629-1.542-3-3.5-3s-3.5 1.371-3.5 3a1 1 0 0 1-2 0c0-2.79 2.487-5 5.5-5zm-7.5 3.5a1 1 0 0 1 .117 1.993L4.5 14.5h-2a1 1 0 0 1-.117-1.993L2.5 12.5h2zm17 0a1 1 0 0 1 .117 1.993l-.117.007h-2a1 1 0 0 1-.117-1.993l.117-.007h2zM6.113 6.21l.094.083 1 1a1 1 0 0 1-1.32 1.497l-.094-.083-1-1a1 1 0 0 1 1.32-1.497zm13.094.083a1 1 0 0 1 .083 1.32l-.083.094-1 1a1 1 0 0 1-1.497-1.32l.083-.094 1-1a1 1 0 0 1 1.414 0zM12 3a1 1 0 0 1 .993.883L13 4v2a1 1 0 0 1-1.993.117L11 6V4a1 1 0 0 1 1-1z" fill="currentColor" fill-rule="nonzero"/>
</svg>
