<svg width="24" height="24" viewBox="0 0 24 24" xmlns="http://www.w3.org/2000/svg">
    <path d="M19.94 17.795a.75.75 0 0 1 .1 1.494l-.1.006H4a.75.75 0 0 1-.102-1.493L4 17.795h15.94zm-7.97-6.545a4.38 4.38 0 0 1 4.372 4.386.75.75 0 1 1-1.5 0 2.88 2.88 0 0 0-2.872-2.886 2.88 2.88 0 0 0-2.873 2.886.75.75 0 1 1-1.5 0 4.38 4.38 0 0 1 4.373-4.386zm-6.521 3.636a.75.75 0 0 1 .102 1.494l-.102.006H4a.75.75 0 0 1-.102-1.493L4 14.886h1.449zm14.49 0a.75.75 0 0 1 .102 1.494l-.102.006H18.49a.75.75 0 0 1-.102-1.493l.102-.007h1.45zM6.78 9.376l.084.073 1.03 1.033a.75.75 0 0 1-.98 1.131l-.084-.073-1.028-1.032a.75.75 0 0 1 .978-1.132zm11.356.07a.75.75 0 0 1 .074.977l-.072.085-1.03 1.032a.75.75 0 0 1-1.134-.974l.072-.084 1.029-1.033a.75.75 0 0 1 1.06-.002zM11.97 3.25h.016c.02 0 .04.002.061.004l-.077-.004a.754.754 0 0 1 .447.148l.008.006c.026.02.051.042.075.066L15.4 6.38a.75.75 0 0 1-.979 1.131l-.084-.073-1.617-1.623v3.276a.75.75 0 0 1-1.493.102l-.006-.102-.001-3.276-1.616 1.623a.75.75 0 0 1-.977.075l-.084-.073a.75.75 0 0 1-.074-.976l.072-.084 2.898-2.91a.76.76 0 0 1 .076-.066l-.076.067a.753.753 0 0 1 .532-.221z" fill="currentColor" fill-rule="nonzero"/>
</svg>
