<svg xmlns="http://www.w3.org/2000/svg" width="16" height="16" viewBox="0 0 16 16">
    <g fill="none" fill-rule="evenodd">
      <g>
        <path fill="#EEF4FB" d="M8 0a8 8 0 1 1 0 16A8 8 0 0 1 8 0z" />
        <g fill="#303193" fill-rule="nonzero">
          <path d="M8.045 2.75c.98 0 1.773.794 1.773 1.773V8.77l.096.094c.597.62.852 1.508.659 2.364l-.048.182a2.59 2.59 0 1 1-4.348-2.546l.096-.094V4.523c0-.93.716-1.693 1.627-1.767zM8.317 8h-.545v1.129a.75.75 0 0 1-.248.558l-.085.065-.103.079a1.09 1.09 0 1 0 1.315-.079l-.084-.065a.75.75 0 0 1-.249-.558V8z" />
        </g>
      </g>
    </g>
</svg>
