<svg width="16" height="16" xmlns="http://www.w3.org/2000/svg">
    <g fill="none" fill-rule="evenodd">
        <path d="M0 16h16V0H0z"/>
        <path d="M8 16A8 8 0 1 0 8 0a8 8 0 0 0 0 16z" fill="#FFF"/>
        <path d="M11 4.25a.75.75 0 0 0 .102-1.493L11 2.75H5a.75.75 0 0 0-.102 1.493L5 4.25h6zm-3 9.167a.75.75 0 0 0 .743-.649l.007-.101V8.145l1.386 1.385a.75.75 0 0 0 1.134-.976l-.073-.084L8.53 5.803a.755.755 0 0 0-.09-.078l.09.078a.753.753 0 0 0-.848-.149.738.738 0 0 0-.212.149L4.803 8.47a.75.75 0 0 0 .977 1.133l.084-.073L7.25 8.144v4.523c0 .414.336.75.75.75z" fill="#303193" fill-rule="nonzero"/>
    </g>
</svg>
