<svg width="24" height="24" viewBox="0 0 24 24" xmlns="http://www.w3.org/2000/svg">
    <g fill="none" fill-rule="evenodd">
        <path d="M12 2c5.523 0 10 4.477 10 10s-4.477 10-10 10S2 17.523 2 12 6.477 2 12 2z" fill="#2C2C2E"/>
        <g fill="#FFF" fill-rule="nonzero">
            <path d="M11.854 6.256a1.876 1.876 0 0 0-1.715 1.88l-.001 4.762-.104.102a2.829 2.829 0 0 0-.667 2.762A2.756 2.756 0 0 0 12 17.75c1.215 0 2.283-.81 2.633-1.988l.048-.186A2.828 2.828 0 0 0 13.966 13l-.105-.102V8.136c0-1.038-.83-1.886-1.861-1.886l-.146.006zM12 7.75c.196 0 .361.17.361.386v5.118c0 .248.122.48.327.62.462.315.67.91.507 1.461A1.256 1.256 0 0 1 12 16.25a1.256 1.256 0 0 1-1.195-.915 1.32 1.32 0 0 1 .507-1.462.75.75 0 0 0 .327-.619V8.136c0-.217.165-.386.361-.386z"/>
            <path d="M13 7.5v4h-2v-4z"/>
        </g>
    </g>
</svg>
