<svg width="24" height="24" viewBox="0 0 24 24" xmlns="http://www.w3.org/2000/svg">
    <g fill="none" fill-rule="evenodd">
        <path d="M12 2c5.523 0 10 4.477 10 10s-4.477 10-10 10S2 17.523 2 12 6.477 2 12 2z" fill="#FFF"/>
        <path d="M12 6a1 1 0 0 1 .91.587c.072.033.14.074.203.123l.094.083 3.5 3.5a1 1 0 0 1-1.32 1.497l-.094-.083L13 9.415V17a1 1 0 0 1-1.993.117L11 17V9.414l-2.293 2.293a1 1 0 0 1-1.497-1.32l.083-.094 3.5-3.5a.998.998 0 0 1 .296-.205A1 1 0 0 1 12 6z" fill="#303193" fill-rule="nonzero"/>
    </g>
</svg>
