<svg width="24" height="24" viewBox="0 0 24 24" xmlns="http://www.w3.org/2000/svg">
    <g fill="none" fill-rule="evenodd">
        <path d="M12 2c5.523 0 10 4.477 10 10s-4.477 10-10 10S2 17.523 2 12 6.477 2 12 2z" fill="#2C2C2E"/>
        <path d="M12 6a1 1 0 0 0-.993.883L11 7v7.584l-1.793-1.791a1 1 0 0 0-1.497 1.32l.083.094 3.5 3.5c.028.028.057.054.088.079l-.088-.079a1.008 1.008 0 0 0 .395.243l.02.007a.998.998 0 0 0 .063.017l.026.005A1.003 1.003 0 0 0 12 18h.032l.054-.004.03-.003.027-.003a1.003 1.003 0 0 0 .086-.016l.032-.008a.998.998 0 0 0 .03-.01l.02-.006a.992.992 0 0 0 .396-.243l3.5-3.5a1 1 0 0 0-1.32-1.497l-.094.083L13 14.585V7a1 1 0 0 0-1-1z" fill="#FFF" fill-rule="nonzero"/>
    </g>
</svg>
