<svg width="24" height="24" viewBox="0 0 24 24" xmlns="http://www.w3.org/2000/svg">
    <path d="M8.18 2.989c1.496 0 2.543.98 2.62 2.432l.005.176.172 9.696.075.067a4.373 4.373 0 0 1 1.305 3.997l-.05.232-.057.21c-.54 1.823-2.192 3.076-4.07 3.076-1.879 0-3.53-1.253-4.07-3.076a4.38 4.38 0 0 1 1.039-4.284l.158-.155.074-.067.173-9.678c0-1.446.911-2.46 2.275-2.608l.173-.014.178-.004zm.756 10.01H7.423l-.05 2.803a1 1 0 0 1-.436.808c-.83.567-1.203 1.633-.91 2.62.29.98 1.166 1.645 2.153 1.645.986 0 1.862-.664 2.153-1.645.292-.987-.08-2.053-.911-2.62a1 1 0 0 1-.426-.688l-.01-.12-.05-2.803zM16.398.875a3.602 3.602 0 1 1 0 7.203 3.602 3.602 0 0 1 0-7.203zm0 2a1.602 1.602 0 1 0 0 3.203 1.602 1.602 0 0 0 0-3.203z" fill="currentColor" fill-rule="nonzero"/>
</svg>
