<svg width="16" height="16" xmlns="http://www.w3.org/2000/svg">
    <g fill="none" fill-rule="evenodd">
        <path d="M0 0h16v16H0z"/>
        <path d="M8 0a8 8 0 1 1 0 16A8 8 0 0 1 8 0z" fill="#FFF"/>
        <path d="M11 11.75a.75.75 0 0 1 .102 1.493L11 13.25H5a.75.75 0 0 1-.102-1.493L5 11.75h6zM8 2.583a.75.75 0 0 1 .743.649l.007.101v4.522l1.386-1.385a.75.75 0 0 1 1.134.976l-.073.084-2.667 2.667a.755.755 0 0 1-.09.078l.09-.078a.753.753 0 0 1-.848.149.738.738 0 0 1-.212-.149L4.803 7.53a.75.75 0 0 1 .977-1.133l.084.073L7.25 7.856V3.333a.75.75 0 0 1 .75-.75z" fill="#303193" fill-rule="nonzero"/>
    </g>
</svg>
