<svg width="24" height="24" viewBox="0 0 24 24" xmlns="http://www.w3.org/2000/svg">
    <path d="m16.56 6.12.204.197 2.424 2.292.001-3.06a.75.75 0 0 1 .648-.742l.102-.007a.75.75 0 0 1 .743.648l.007.102V10.37c0 .012 0 .024-.002.036l.002-.055a.755.755 0 0 1-.205.515l-.014.015a.753.753 0 0 1-.429.213l-.017.002a.754.754 0 0 1-.037.003l-.048.002h-4.782a.75.75 0 0 1-.102-1.494l.102-.006 2.896-.002-2.336-2.208a6.403 6.403 0 0 0-7.643-1.089 6.461 6.461 0 0 0-3.165 7.076 6.432 6.432 0 0 0 5.89 5.015 6.424 6.424 0 0 0 6.432-4.29.75.75 0 1 1 1.415.497 7.924 7.924 0 0 1-7.934 5.29 7.932 7.932 0 0 1-7.266-6.182A7.961 7.961 0 0 1 7.347 4.99a7.897 7.897 0 0 1 9.213 1.13zM10.973 9a.75.75 0 0 1 .744.648l.006.102v1.766l1.58.793a.75.75 0 0 1 .373.913l-.04.094a.75.75 0 0 1-.913.373l-.094-.04-1.992-1a.75.75 0 0 1-.406-.564l-.008-.106V9.751a.75.75 0 0 1 .75-.75z" fill="currentColor" fill-rule="nonzero"/>
</svg>
