<svg xmlns="http://www.w3.org/2000/svg" width="24" height="24" viewBox="0 0 24 24">
    <g fill="none" fill-rule="evenodd">
        <g>
            <g fill="#F8F800">
                <circle cx="12" cy="12" r="12"/>
            </g>
            <g>
                <rect width="24" height="24" rx="11.78"/>
                <path fill="#000" fill-rule="nonzero" d="M6.4 8.567h1.413v3.744c0 .594.017.98.053 1.156.06.282.204.51.432.681.227.172.538.257.933.257.401 0 .703-.08.907-.242.203-.163.326-.362.368-.597.04-.236.062-.627.062-1.175V8.567h1.412v3.631c0 .83-.037 1.416-.114 1.76-.076.342-.217.63-.422.867-.206.236-.48.423-.824.563-.344.14-.793.21-1.346.21-.669 0-1.175-.076-1.52-.229-.346-.152-.62-.35-.82-.593-.2-.244-.332-.5-.395-.767-.093-.396-.14-.98-.14-1.754V8.567zm8.431 6.914l-2.5-6.914h1.532l1.77 5.117 1.715-5.117h1.498L16.34 15.48h-1.509z"/>
            </g>
        </g>
    </g>
</svg>
