<svg xmlns="http://www.w3.org/2000/svg" width="24" height="24" viewBox="0 0 24 24">
    <g fill="none" fill-rule="evenodd">
        <g>
            <g fill="#F8F800">
                <circle cx="12" cy="12" r="12"/>
            </g>
            <g>
                <rect width="24" height="24" rx="11.78"/>
                <path fill="#000" fill-rule="nonzero" d="M8.476 14.445h6.933V9.847h2.066l-5.532-4.163-5.532 4.162h2.065v4.6zm4.444-2.526h-1.987V9.932h1.987v1.987zm5.547 4.129c-1.006 0-1.532.559-1.953 1.008-.377.401-.675.72-1.287.72-.612 0-.908-.319-1.286-.72-.421-.45-.945-1.008-1.953-1.008-1.007 0-1.532.558-1.953 1.006-.377.402-.674.72-1.286.72s-.91-.318-1.286-.72c-.42-.449-.945-1.006-1.953-1.006-.253 0-.457.204-.457.457s.204.457.457.457h.01c.605.003.901.32 1.276.72.422.449.946 1.008 1.953 1.008 1.008 0 1.532-.56 1.953-1.008.377-.403.675-.72 1.287-.72.612 0 .91.317 1.286.72.422.449.945 1.008 1.953 1.008 1.007 0 1.532-.56 1.953-1.008.374-.4.671-.715 1.276-.72h.01c.252 0 .457-.204.457-.457s-.205-.457-.457-.457z"/>
            </g>
        </g>
    </g>
</svg>
