<svg xmlns="http://www.w3.org/2000/svg" width="24" height="24" viewBox="0 0 24 24">
    <g fill="none" fill-rule="evenodd">
        <g>
            <g fill="#F8F800">
                <circle cx="12" cy="12" r="12"/>
            </g>
            <g>
                <rect width="24" height="24" rx="11.78"/>
                <path fill="#000" fill-rule="nonzero" d="M12.316 15.628v-4.75c0-.256-.207-.463-.462-.463s-.462.207-.462.463v4.75c-.398.177-.676.576-.676 1.04 0 .63.51 1.139 1.138 1.139.629 0 1.138-.51 1.138-1.138 0-.465-.278-.863-.676-1.04"/>
                <path fill="#000" fill-rule="nonzero" d="M11.854 18.39c-.949 0-1.72-.773-1.72-1.721 0-.484.196-.931.554-1.262.104-.098.17-.236.17-.392V6.33c0-.55.447-.996.996-.996.55 0 .995.447.995.996v8.686c0 .155.067.294.172.391.357.331.554.78.554 1.262 0 .949-.772 1.72-1.72 1.72zm3.151-9.91c.245 0 .444-.199.444-.444s-.199-.444-.444-.444h-1.089v-.563h1.09c.244 0 .443-.198.443-.444 0-.245-.199-.444-.444-.444h-1.098c-.095-1.05-.98-1.874-2.053-1.874-1.137 0-2.062.925-2.062 2.062v8.47c-.463.51-.725 1.179-.725 1.869 0 1.537 1.25 2.788 2.787 2.788s2.787-1.25 2.787-2.787c0-.691-.262-1.36-.725-1.871V9.93h1.09c.244 0 .443-.199.443-.444 0-.246-.199-.445-.444-.445h-1.089V8.48h1.09z"/>
            </g>
        </g>
    </g>
</svg>
