<svg xmlns="http://www.w3.org/2000/svg" width="24" height="24" viewBox="0 0 24 24">
    <g fill="none" fill-rule="evenodd">
        <g>
            <g fill="#F8F800">
                <circle cx="12" cy="12" r="12"/>
            </g>
            <g>
                <rect width="24" height="24" rx="11.78"/>
                <path fill="#000" fill-rule="nonzero" d="M13.896 10.119h.825L12.63 5.94l-1.398 2.796c.11.248.202.513.276.791.205.78.242 1.57.103 2.227-.128.609-.434 1.189-.907 1.725-.4.453-.908.855-1.468 1.162l-.094.05-.941 1.935h3.772v1.85h1.315v-1.85h3.772l-3.165-6.507z"/>
                <path fill="#000" fill-rule="nonzero" d="M9.31 7.68c.108.7.284 1.944-.184 2.445-.773-.963-.199-1.827-.087-2.598.13-.893-.167-1.876-.952-2.474.144.894-.227 1.602-.735 2.293-.568.77-1.034 1.554-1.036 2.542-.003 1.114.48 2.223 1.167 3.133.177-.394.348-.903.322-1.352.65.922.482 1.948.435 2.173.943-.516 1.853-1.411 2.081-2.49.242-1.144-.162-2.845-1.01-3.672"/>
            </g>
        </g>
    </g>
</svg>
