<svg xmlns="http://www.w3.org/2000/svg" width="24" height="24" viewBox="0 0 24 24">
    <g fill="none" fill-rule="evenodd">
        <g>
            <g fill="#F8F800">
                <circle cx="12" cy="12" r="12"/>
            </g>
            <g>
                <rect width="24" height="24" rx="11.78"/>
                <path fill="#000" fill-rule="nonzero" d="M5.684 17.684c0 .349.288.632.627.632h11.378c.346 0 .627-.28.627-.632 0-.348-.288-.631-.627-.631H6.311c-.346 0-.627.28-.627.631zM11.217 5.4l-.346 2.938 1.087.402-1.279.82-2.176-.562-1.68 3.369.644.334 1.725-2.161 1.19.677-1.498 1.594 1.31 3.097.6-.219-.64-2.362 4.302-3.356.901.609-.678 2.168.515.222 1.334-2.63-2.426-2.327-2.19-.492.004-2.187-.7.066z"/>
                <path fill="#000" fill-rule="nonzero" d="M14.135 7.539c.587.042 1.097-.415 1.138-1.021.04-.606-.402-1.132-.99-1.175-.587-.042-1.097.415-1.138 1.02-.042.607.402 1.133.99 1.176"/>
            </g>
        </g>
    </g>
</svg>
