<svg xmlns="http://www.w3.org/2000/svg" width="24" height="24" viewBox="0 0 24 24">
    <g fill="none" fill-rule="evenodd">
        <g>
            <g fill="#F8F800">
                <circle cx="12" cy="12" r="12"/>
            </g>
            <g transform="translate(0.000000, 0.000000)">
                <rect width="24" height="24" rx="11.78"/>
                <path fill="#000" fill-rule="nonzero" d="M6.316 17.684c0 .349.28.632.627.632h10.114c.346 0 .627-.28.627-.632 0-.348-.28-.631-.627-.631H6.943c-.346 0-.627.28-.627.631zm9.106-6.619c.234 1.145-.948 2.666-1.37 1.868-.207-.392.13-1.023.248-1.395.194-.616.347-1.269.322-1.92-.077-1.983-1.72-4.837-4.3-4.818 1.438 1.732-2.191 3.34-1.47 7.124-.642-.11-1.108-1.332-1.108-1.332s-1.508 5.46 3.02 5.46c-1.122-.707-1.945-1.743-1.98-2.932 0 0 .985.815 1.857.777-.655-1.702.525-3.482 1.995-4.113-.486 1.013-.998 2.279-.846 3.42.233 1.77 2.21 1.663 3.483.554 0 .754-1.037 1.692-1.683 2.293 4.34-.821 2.777-4.573 1.832-4.986"/>
            </g>
        </g>
    </g>
</svg>
