<svg xmlns="http://www.w3.org/2000/svg" width="24" height="24" viewBox="0 0 24 24">
    <g fill="none" fill-rule="evenodd">
        <g>
            <g fill="#D0021B">
                <circle cx="12" cy="12" r="12"/>
            </g>
            <g>
                <rect width="24" height="24" rx="11.78"/>
                <path fill="#000" fill-rule="nonzero" d="M13.055 10.905s-1.659 4.494-2.698 5.534c-.784.784-2.053.784-2.836 0-.783-.783-.783-2.052 0-2.835 1.04-1.04 5.534-2.7 5.534-2.7m4.53.932s-1.265 3.43-2.058 4.223c-.598.598-1.567.598-2.165 0-.597-.597-.597-1.566 0-2.164.794-.793 4.224-2.059 4.224-2.059M12.164 6.4s-1.265 3.43-2.059 4.223c-.597.598-1.566.598-2.164 0-.598-.597-.598-1.566 0-2.164.794-.794 4.223-2.059 4.223-2.059"/>
            </g>
        </g>
    </g>
</svg>
