<svg xmlns="http://www.w3.org/2000/svg" width="24" height="24" viewBox="0 0 24 24">
    <g fill="none" fill-rule="evenodd">
        <g fill="currentColor" fill-rule="nonzero">
            <g>
                <path d="M9.116 1.133L.247 17.88c-.162.306-.247.647-.247.994C0 20.048.955 21 2.131 21h17.738c.346 0 .687-.084.993-.245 1.042-.548 1.442-1.836.89-2.876L12.885 1.133c-.2-.379-.511-.688-.89-.888-1.04-.546-2.328-.15-2.878.888h-.001zm1.946.883c.024.012.042.03.054.053l8.87 16.746c.032.06.008.136-.055.17-.019.01-.04.015-.062.015H2.13c-.072 0-.13-.058-.13-.127 0-.02.005-.04.014-.058l8.87-16.746c.026-.05.083-.076.138-.067l.04.014z" transform="translate(1.000000, 1.500000)"/>
                <path d="M11 9c.552 0 1 .448 1 1v3c0 .552-.448 1-1 1s-1-.448-1-1v-3c0-.552.448-1 1-1zm0 6c.552 0 1 .448 1 1s-.448 1-1 1-1-.448-1-1 .448-1 1-1z" transform="translate(1.000000, 1.500000)"/>
            </g>
        </g>
    </g>
</svg>
