<svg xmlns="http://www.w3.org/2000/svg" width="24" height="24" viewBox="0 0 24 24">
    <g fill="none" fill-rule="evenodd">
        <g>
            <g fill="#FFB700">
                <circle cx="12" cy="12" r="12"/>
            </g>
            <g>
                <rect width="24" height="24" rx="11.78"/>
                <path fill="#000" fill-rule="nonzero" d="M11.754 4.8c-.17 0-.357.102-.438.248L10.06 7.3c-.092.166-.15.456-.127.644 0 0 .218 1.761 3.06 2.296.403.076.77.109 1.102.109 2.01 0 2.768-1.19 2.768-1.19.101-.161.16-.446.13-.634l-.41-2.547c-.032-.188-.21-.369-.396-.402l-4.364-.771c-.023-.004-.045-.006-.07-.006m.256 1.056l3.645.644.345 2.143c-.137.16-.692.705-1.904.705-.287 0-.596-.03-.918-.09-1.826-.345-2.188-1.232-2.246-1.43.003-.02.007-.043.012-.058l1.066-1.914"/>
                <path fill="#000" fill-rule="nonzero" d="M9.42 7.089l8.272 1.462c.186.033.3.21.254.394l-.624 2.446c-.047.184-.238.308-.425.275l-.395-.07-.112.638c-.03.168-.178.287-.343.285l-.056-.005-.653-.115c-.168-.03-.287-.179-.285-.345l.005-.055.112-.638-4.34-.768-.111.638c-.03.169-.178.288-.343.286l-.057-.005-.653-.116c-.168-.03-.286-.179-.284-.344l.005-.056.112-.638-.395-.07c-.186-.032-.324-.214-.305-.404l.248-2.512c.02-.19.187-.316.373-.284zm.282 5.041l.375-.122.072.137.067.152.036.091c.05.129.103.29.143.485.04.194.065.422.062.672-.002.25-.038.52-.1.796-.062.275-.153.556-.263.83-.11.276-.236.546-.368.81l-.133.261-.266.509c-.13.248-.254.49-.361.718-.106.228-.197.446-.26.643-.03.091-.053.177-.071.26l-.023.117H5.334l.005-.02c.096-.325.24-.646.409-.945.172-.297.37-.571.581-.817.211-.247.433-.47.654-.676.149-.137.297-.268.443-.394l.64-.542c.068-.058.135-.115.2-.173.197-.17.382-.34.545-.509.166-.168.31-.338.432-.508.12-.17.22-.34.29-.509.073-.168.12-.332.15-.485.02-.114.032-.221.037-.316l.003-.174-.005-.134-.016-.157zm5.697.95l.318-.104.062.118.057.129.03.077c.043.11.088.247.12.413.035.165.057.359.054.57-.002.214-.031.443-.084.678-.054.234-.131.473-.225.707-.092.233-.2.463-.312.688l-.17.332-.17.322c-.11.212-.216.417-.307.612-.09.194-.167.379-.22.547-.026.077-.046.15-.061.22l-.02.1h-2.789l.005-.017c.082-.276.204-.55.348-.804.146-.252.316-.485.495-.694.179-.211.367-.4.556-.575.126-.118.252-.229.377-.336l.544-.46.17-.148c.167-.145.324-.289.464-.432.14-.144.263-.288.367-.432.102-.145.187-.29.247-.434.061-.142.102-.282.126-.413.019-.096.028-.187.032-.269l.003-.147-.004-.114-.013-.133z"/>
            </g>
        </g>
    </g>
</svg>
