<svg width="24" height="24" viewBox="0 0 24 24" xmlns="http://www.w3.org/2000/svg">
    <g fill-rule="nonzero" fill="none">
        <path d="M10.116 2.633 1.247 19.38a2.124 2.124 0 0 0 1.884 3.12h17.738a2.124 2.124 0 0 0 1.883-3.121L13.885 2.633a2.135 2.135 0 0 0-3.768 0h-.001z" fill="#FFB700"/>
        <path d="M12.062 3.516a.12.12 0 0 1 .054.053l8.87 16.746a.127.127 0 0 1-.055.17.132.132 0 0 1-.062.015H3.13a.13.13 0 0 1-.13-.127c0-.02.005-.04.014-.058l8.87-16.746a.132.132 0 0 1 .138-.067l.04.014z" fill="#FFB700"/>
        <path d="M12 10.5a1 1 0 0 1 1 1v3a1 1 0 0 1-2 0v-3a1 1 0 0 1 1-1zm0 6a1 1 0 1 1 0 2 1 1 0 0 1 0-2z" fill="#303193"/>
    </g>
</svg>
