<svg xmlns="http://www.w3.org/2000/svg" width="24" height="24" viewBox="0 0 24 24">
    <g fill="none" fill-rule="evenodd">
        <g>
            <g fill="#FFB700">
                <circle cx="12" cy="12" r="12"/>
            </g>
            <g transform="translate(0.000000, 0.000000)">
                <rect width="24" height="24" rx="11.78"/>
                <path fill="#000" fill-rule="nonzero" d="M18.467 15.398c-1.006 0-1.532.56-1.953 1.009-.377.401-.675.72-1.287.72-.612 0-.908-.319-1.286-.72-.421-.45-.945-1.01-1.953-1.01-1.007 0-1.532.56-1.953 1.008-.377.401-.674.719-1.286.719s-.91-.318-1.286-.72c-.42-.447-.945-1.006-1.953-1.006-.253 0-.457.205-.457.458 0 .252.204.457.457.457h.01c.605.003.901.32 1.276.72.422.448.946 1.007 1.953 1.007 1.008 0 1.532-.559 1.953-1.008.377-.402.675-.72 1.287-.72.612 0 .91.318 1.286.72.422.449.945 1.008 1.953 1.008 1.007 0 1.532-.559 1.953-1.008.374-.4.671-.714 1.276-.719h.01c.252 0 .457-.205.457-.457 0-.253-.205-.457-.457-.458z"/>
                <path fill="#000" fill-rule="nonzero" d="M18.467 13.31c-1.006 0-1.531.558-1.952 1.007-.378.403-.675.72-1.287.72-.612 0-.909-.317-1.286-.72-.422-.449-.945-1.008-1.953-1.008s-1.532.56-1.953 1.008c-.377.403-.674.72-1.286.72-.613 0-.91-.317-1.286-.72-.423-.449-.945-1.008-1.953-1.008-.253 0-.458.205-.458.458 0 .252.205.457.458.457h.008c.606.003.903.32 1.277.72.421.448.944 1.006 1.953 1.006 1.01 0 1.532-.558 1.953-1.006.377-.403.675-.72 1.286-.72.613 0 .91.317 1.287.72.421.449.945 1.008 1.952 1.008 1.008 0 1.533-.56 1.954-1.008.374-.4.671-.716 1.278-.72h.007c.164 0 .315-.086.397-.228.082-.142.082-.316 0-.457-.082-.143-.233-.23-.396-.23z"/>
                <path fill="#000" fill-rule="nonzero" d="M17.475 9.846l-5.532-4.162-5.532 4.162h2.065v5.643h.015c.652 0 .969-.338 1.37-.766.449-.479 1.007-1.075 2.082-1.075 1.073 0 1.63.596 2.08 1.074.402.429.718.767 1.37.767h.016V9.847h2.066zM12.92 11.92h-1.987V9.932h1.987v1.987z"/>
            </g>
        </g>
    </g>
</svg>
