<svg xmlns="http://www.w3.org/2000/svg" width="24" height="24" viewBox="0 0 24 24">
    <g fill="none" fill-rule="evenodd">
        <g fill-rule="nonzero">
            <g>
                <path fill="#303193" d="M22.648 17.56c.231.436.352.921.352 1.415C23 20.646 21.64 22 19.966 22H3.035c-.493 0-.978-.12-1.413-.348-1.485-.78-2.055-2.614-1.268-4.094L8.818 1.61c.284-.537.726-.977 1.267-1.261 1.262-.662 2.778-.35 3.683.667.056.023.297.425.723 1.206 1.858 3.407 4.577 8.52 8.157 15.338zM11.986 2.12c.183.096.333.245.43.427l8.464 15.95c.266.5.074 1.12-.431 1.384-.149.078-.315.119-.483.119H3.034C2.463 20 2 19.54 2 18.975l.008-.124c.015-.123.052-.243.111-.354l8.467-15.949c.266-.501.893-.694 1.4-.429z" transform="translate(0.500000, 1.000137)"/>
                <path fill="#FFB700" d="M11.986 2.12c.183.096.333.245.43.427l8.464 15.95c.266.5.074 1.12-.431 1.384-.149.078-.315.119-.483.119H3.034C2.463 20 2 19.54 2 18.975l.008-.124c.015-.123.052-.243.111-.354l8.467-15.949c.266-.501.893-.694 1.4-.429z" transform="translate(0.500000, 1.000137)"/>
                <path fill="#303193" d="M11.5 9.571c.527 0 .954.427.954.953v2.857c0 .526-.427.952-.954.952-.527 0-.955-.426-.955-.952v-2.857c0-.526.428-.953.955-.953zm0 5.715c.527 0 .954.426.954.952s-.427.952-.954.952c-.527 0-.955-.426-.955-.952s.428-.952.955-.952z" transform="translate(0.500000, 1.000137)"/>
            </g>
        </g>
    </g>
</svg>
