<svg width="24" height="24" viewBox="0 0 24 24" xmlns="http://www.w3.org/2000/svg">
    <g fill="currentColor" fill-rule="nonzero">
        <path d="M12 7.25a4.75 4.75 0 1 0 0 9.5 4.75 4.75 0 0 0 0-9.5zm0 1.5a3.25 3.25 0 1 1 0 6.5 3.25 3.25 0 0 1 0-6.5zM12 2.25a.75.75 0 0 1 .743.648L12.75 3v1a.75.75 0 0 1-1.493.102L11.25 4V3a.75.75 0 0 1 .75-.75zM21 11.25a.75.75 0 0 1 .102 1.493L21 12.75h-1a.75.75 0 0 1-.102-1.493L20 11.25h1zM12 19.25a.75.75 0 0 1 .743.648l.007.102v1a.75.75 0 0 1-1.493.102L11.25 21v-1a.75.75 0 0 1 .75-.75zM5.07 5.07a.75.75 0 0 1 .976-.073l.084.073.7.7a.75.75 0 0 1-.976 1.133L5.77 6.83l-.7-.7a.75.75 0 0 1 0-1.06zM17.875 5.075a.743.743 0 0 1 1.122.967l-.072.083-.7.7a.743.743 0 0 1-1.122-.967l.072-.083.7-.7zM17.17 17.17a.75.75 0 0 1 .976-.073l.084.073.7.7a.75.75 0 0 1-.976 1.133l-.084-.073-.7-.7a.75.75 0 0 1 0-1.06zM5.77 17.17a.75.75 0 0 1 1.133.976l-.073.084-.7.7a.75.75 0 0 1-1.133-.976l.073-.084.7-.7zM4 11.25a.75.75 0 0 1 .102 1.493L4 12.75H3a.75.75 0 0 1-.102-1.493L3 11.25h1z"/>
    </g>
</svg>
