<svg xmlns="http://www.w3.org/2000/svg" width="24" height="24" viewBox="0 0 24 24">
    <g fill="none" fill-rule="evenodd">
        <g fill="currentColor" fill-rule="nonzero">
            <g>
                <path d="M12 20c.552 0 1 .448 1 1v2c0 .552-.448 1-1 1s-1-.448-1-1v-2c0-.552.448-1 1-1zm7.071-2.343l1.414 1.414c.39.39.39 1.024 0 1.414-.39.39-1.023.39-1.414 0l-1.414-1.414c-.39-.39-.39-1.024 0-1.414.39-.39 1.024-.39 1.414 0zm-12.728 0c.39.39.39 1.024 0 1.414L4.93 20.485c-.39.39-1.024.39-1.414 0-.39-.39-.39-1.023 0-1.414l1.414-1.414c.39-.39 1.024-.39 1.414 0h-.001zM12 6c3.314 0 6 2.686 6 6 0 3.238-2.566 5.878-5.775 5.996L12 18c-3.314 0-6-2.686-6-6s2.686-6 6-6zm0 2c-2.21 0-4 1.79-4 4 0 2.142 1.684 3.891 3.767 3.995l.196.005.188-.003C14.295 15.918 16 14.153 16 12c0-2.21-1.79-4-4-4zm11 3c.552 0 1 .448 1 1s-.448 1-1 1h-2c-.552 0-1-.448-1-1s.448-1 1-1h2zM3 11c.552 0 1 .448 1 1s-.448 1-1 1H1c-.552 0-1-.448-1-1s.448-1 1-1h2zm1.929-7.485l1.414 1.414c.39.39.39 1.024 0 1.414-.39.39-1.024.39-1.414 0L3.515 4.93c-.39-.39-.39-1.024 0-1.414.39-.39 1.023-.39 1.414 0v-.001zm15.556 0c.39.39.39 1.023 0 1.414l-1.414 1.414c-.39.39-1.024.39-1.414 0-.39-.39-.39-1.024 0-1.414l1.414-1.414c.39-.39 1.024-.39 1.414 0zM12 0c.552 0 1 .448 1 1v2c0 .552-.448 1-1 1s-1-.448-1-1V1c0-.552.448-1 1-1z"/>
            </g>
        </g>
    </g>
</svg>
