<svg width="24" height="24" viewBox="0 0 24 24" xmlns="http://www.w3.org/2000/svg">
    <path d="M12 19.889a1 1 0 0 1 .993.883l.007.117V22a1 1 0 0 1-1.993.117L11 22v-1.111a1 1 0 0 1 1-1zm6.946-2.346.094.083.778.778a1 1 0 0 1-1.32 1.497l-.094-.083-.778-.778a1 1 0 0 1 1.32-1.497zm-12.572.083a1 1 0 0 1 .083 1.32l-.083.094-.778.778a1 1 0 0 1-1.497-1.32l.083-.094.778-.778a1 1 0 0 1 1.414 0zM12 6.556a5.444 5.444 0 1 1 0 10.888 5.444 5.444 0 0 1 0-10.888zm0 2a3.444 3.444 0 1 0 0 6.888 3.444 3.444 0 0 0 0-6.888zM22 11a1 1 0 0 1 .117 1.993L22 13h-1.111a1 1 0 0 1-.117-1.993L20.89 11H22zM3.111 11a1 1 0 0 1 .117 1.993L3.11 13H2a1 1 0 0 1-.117-1.993L2 11h1.111zm2.39-6.901.095.083.778.778a1 1 0 0 1-1.32 1.497l-.094-.083-.778-.778a1 1 0 0 1 1.32-1.497zm14.317.083a1 1 0 0 1 .083 1.32l-.083.094-.778.778a1 1 0 0 1-1.497-1.32l.083-.094.778-.778a1 1 0 0 1 1.414 0zM12 1a1 1 0 0 1 .993.883L13 2v1.111a1 1 0 0 1-1.993.117L11 3.11V2a1 1 0 0 1 1-1z" fill="currentColor" fill-rule="nonzero"/>
</svg>
