<?xml version="1.0" encoding="UTF-8" standalone="no"?>
<svg
   id="Layer_1"
   viewBox="0 0 120 120"
   version="1.1"
    xmlns="http://www.w3.org/2000/svg">
  <defs
     id="defs4">
    <style
       id="style2">.cls-1{fill:#20bce5;}.cls-2{fill:#000;}</style>
  </defs>
  <g
     id="g12">
    <path
       class="cls-1"
       d="m 60.291244,106.08276 c -11.581703,-7.1e-4 -22.1084,-4.49013 -30.027291,-11.772627 l 3.198244,-3.198244 -2.651651,-2.651651 -3.198244,3.198244 C 20.32981,83.739594 15.841803,73.212895 15.840392,61.631899 c 0,-9.886767 3.285218,-18.999961 8.767417,-26.391348 l -1.511795,-4.234155 c -6.873078,8.332546 -11.006117,19.00491 -11.006824,30.62621 l 7.07e-4,-7.07e-4 c 7.05e-4,12.615494 4.910855,24.077695 12.871462,32.677527 l -3.855146,3.855146 2.65165,2.651648 3.855147,-3.855143 c 8.599126,7.959903 20.061327,12.870053 32.67682,12.870753 14.549871,-0.82465 25.469195,-6.11227 32.636707,-13.45384 L 90.411019,93.866856 C 82.156356,101.50767 70.241182,105.97201 60.291244,106.08276 Z"
       id="path6"/>
    <path
       class="cls-1"
       d="M 92.895937,26.237672 C 84.30318,18.316653 72.870678,13.433373 60.290539,13.432666 c -11.484829,0 -22.033448,4.050311 -30.322154,10.779142 1.411385,0.50346 2.82277,1.008333 4.234157,1.511793 7.337646,-5.346435 16.337701,-8.541145 26.090118,-8.541145 11.547054,0 22.044758,4.46185 29.955161,11.704745 l -3.700994,3.700994 2.651652,2.651649 3.707355,-3.707358 c 7.321386,7.926667 11.836976,18.483768 11.836976,30.101534 1.49887,10.72815 -4.69806,22.734542 -11.555977,29.65241 l 2.447113,2.447112 C 102.46258,86.563267 108.57446,76.542903 108.49471,61.634018 108.49171,48.983879 103.55487,37.491977 95.555365,28.884372 l 3.351686,-3.351686 -2.651651,-2.651651 -3.35805,3.358051 z"
       id="path8" />
    <path
       class="cls-2"
       d="m 19.313701,20.407575 3.783729,10.59882 1.511793,4.234156 6.708322,18.78995 c 1.251579,-4.921465 2.786708,-10.126478 4.03758,-15.047233 L 98.469338,102.09748 101.24706,99.218353 38.280425,36.251714 c 4.887522,-1.281277 9.767266,-2.557604 14.65691,-3.841003 -6.24446,-2.229509 -12.48892,-4.459017 -18.734086,-6.687818 -1.411385,-0.50346 -2.822772,-1.008332 -4.234157,-1.511792 -3.551796,-1.267845 -7.103593,-2.535687 -10.654684,-3.804236 z"
       id="path10"/>
  </g>
</svg>
