<svg width="24" height="24" viewBox="0 0 24 24" xmlns="http://www.w3.org/2000/svg">
    <path d="M16.862 12.667c1.388-.007 2.587.973 2.936 2.357.343 1.365-.216 2.813-1.387 3.537-1.204.744-2.734.525-3.703-.52a1 1 0 0 1 1.375-1.447l.09.087c.324.348.801.417 1.187.178.418-.257.632-.814.498-1.346-.118-.47-.474-.791-.88-.84l-.111-.006H4.73a1 1 0 0 1-.117-1.994l.117-.006h12.131zm-1.485-8.228c1.171.724 1.73 2.172 1.387 3.537-.334 1.324-1.445 2.278-2.752 2.353l-.18.004H4.732a1 1 0 0 1-.117-1.993l.117-.007h9.106c.447.002.858-.334.987-.846.134-.532-.08-1.089-.498-1.346a.915.915 0 0 0-1.094.09l-.092.088a1 1 0 0 1-1.466-1.36c.97-1.045 2.5-1.264 3.703-.52z" fill="currentColor" fill-rule="nonzero"/>
</svg>
