<?xml version="1.0" encoding="UTF-8"?><svg id="Layer_1" xmlns="http://www.w3.org/2000/svg" viewBox="0 0 120 120"><defs><style>.cls-1{fill:#20bce5;}.cls-2{fill:#000;}</style></defs><g><path class="cls-1" d="M26.534,27.291c-8.92,8.921-13.553,20.498-14.005,32.208H7.077v3.75h5.452c.452,11.709,5.085,23.286,14.005,32.207,6.795,6.793,15.135,11.093,23.897,12.975v-3.855c-7.787-1.823-15.185-5.712-21.245-11.77-8.189-8.19-12.458-18.808-12.908-29.557h4.523v-3.75h-4.523c.45-10.749,4.72-21.366,12.908-29.556,6.991-6.991,15.758-11.112,24.861-12.462l1.925-4.063c-10.752,1.032-21.221,5.656-29.439,13.873Z"/><path class="cls-1" d="M108.7,59.402c-.475-11.677-5.106-23.214-14.001-32.11-8.121-8.121-18.444-12.716-29.063-13.819,.642,1.354,1.283,2.709,1.925,4.063,8.969,1.408,17.592,5.513,24.488,12.409,8.165,8.165,12.433,18.743,12.905,29.458h-5.234v3.75h5.243c-.428,10.782-4.7,21.44-12.915,29.655-5.97,5.968-13.238,9.828-20.895,11.685v3.855c8.633-1.92,16.842-6.187,23.548-12.887,8.943-8.947,13.578-20.564,14.008-32.307h4.74v-3.75h-4.749Z"/><path class="cls-2" d="M60.792,3.249l-4.819,10.17-1.925,4.063-8.543,18.03c4.365-2.595,8.728-5.19,13.092-7.785V91.751h4.393V27.864c4.362,2.55,8.725,5.098,13.09,7.648-2.839-5.992-5.678-11.984-8.518-17.976-.642-1.354-1.283-2.709-1.925-4.063-1.615-3.408-3.23-6.816-4.844-10.224Z"/></g><path class="cls-2" d="M57.067,110.869c.118,.822,.345,1.435,.685,1.842,.623,.74,1.69,1.11,3.203,1.11,.905,0,1.64-.098,2.205-.293,1.073-.372,1.61-1.07,1.61-2.087,0-.592-.262-1.055-.788-1.38-.525-.317-1.357-.597-2.498-.843l-1.947-.428c-1.915-.422-3.23-.885-3.945-1.38-1.213-.83-1.82-2.13-1.82-3.895,0-1.613,.592-2.95,1.78-4.015s2.927-1.6,5.227-1.6c1.92,0,3.558,.503,4.913,1.508s2.065,2.465,2.133,4.377h-3.612c-.065-1.082-.553-1.85-1.452-2.308-.6-.3-1.345-.452-2.24-.452-.992,0-1.785,.195-2.378,.585s-.887,.935-.887,1.635c0,.642,.293,1.123,.877,1.44,.375,.212,1.172,.46,2.39,.745l3.158,.745c1.385,.325,2.422,.763,3.113,1.305,1.073,.848,1.61,2.07,1.61,3.675,0,1.643-.635,3.01-1.908,4.095-1.27,1.09-3.067,1.63-5.385,1.63-2.368,0-4.23-.535-5.588-1.608-1.357-1.07-2.035-2.54-2.035-4.412h3.58v.007Z"/></svg>