<svg width="24" height="24" viewBox="0 0 24 24" xmlns="http://www.w3.org/2000/svg">
    <g fill="currentColor" fill-rule="nonzero">
        <path d="M9.764 5.932c.69-.743 1.78-.899 2.637-.37.833.515 1.23 1.543.985 2.512-.234.93-1.007 1.602-1.922 1.67l-.163.006H5a.75.75 0 0 1-.102-1.493L5 8.25h6.305c.282.001.544-.213.627-.542.087-.345-.052-.704-.32-.87a.574.574 0 0 0-.667.04l-.081.075a.75.75 0 1 1-1.1-1.02zM13.398 14.25c.988-.004 1.841.692 2.089 1.676.244.969-.153 1.997-.986 2.512a2.081 2.081 0 0 1-2.636-.37.75.75 0 0 1 1.018-1.096l.081.075a.582.582 0 0 0 .749.114c.267-.165.406-.524.32-.869-.074-.293-.29-.494-.537-.535l-.094-.007H5a.75.75 0 0 1-.102-1.493L5 14.25h8.398z"/>
        <path d="M15.466 8.285c.803-.858 2.063-1.035 3.054-.421.967.598 1.43 1.796 1.148 2.926-.271 1.089-1.174 1.876-2.245 1.954l-.17.006H5a.75.75 0 0 1-.102-1.493L5 11.25h12.251c.44 0 .839-.33.962-.823.126-.507-.079-1.038-.483-1.288a.907.907 0 0 0-1.079.085l-.09.086a.75.75 0 0 1-1.095-1.025z"/>
    </g>
</svg>
