<?xml version="1.0" encoding="UTF-8"?>
<svg id="Layer_1" data-name="Layer 1" xmlns="http://www.w3.org/2000/svg" viewBox="0 0 56 27">
  <defs>
    <style>
      .cls-1 {
        fill: none;
      }

      .cls-2 {
        fill: #fff;
      }
    </style>
  </defs>
  <g>
    <polygon class="cls-2" points="37.32 10.9 32.41 10.9 32.41 17.34 33.82 17.34 33.82 14.88 36.9 14.88 36.9 13.56 33.82 13.56 33.82 12.22 37.32 12.22 37.32 10.9"/>
    <polygon class="cls-2" points="40.52 10.9 39.01 10.9 39.01 17.34 40.39 17.34 40.39 13.18 41.93 13.18 40.52 10.9"/>
    <rect class="cls-2" x="44.04" y="13.15" width="1.38" height="4.2"/>
    <polygon class="cls-2" points="41.93 13.18 40.39 13.18 42.18 15.9 42.22 15.9 43.69 13.63 42.22 13.63 41.93 13.18"/>
    <polygon class="cls-2" points="45.42 10.9 43.91 10.9 42.22 13.63 43.69 13.63 44.04 13.15 45.42 13.15 45.42 10.9"/>
    <rect class="cls-2" x="47.85" y="10.9" width="1.48" height="6.44"/>
    <g>
      <path class="cls-2" d="M16.64,24.5c-5.79,0-10.5-4.71-10.5-10.5S10.85,3.5,16.64,3.5s10.5,4.71,10.5,10.5-4.71,10.5-10.5,10.5ZM16.64,4.34c-5.32,0-9.66,4.33-9.66,9.66s4.33,9.66,9.66,9.66,9.66-4.33,9.66-9.66-4.33-9.66-9.66-9.66Z"/>
      <path class="cls-2" d="M12.38,23.36l-.19-.69c1.54-.43,2.9-1.24,3.97-2.33-.39-.45-.74-.94-1.04-1.46-1.29,1.54-3.18,2.56-5.31,2.7l-.05-.71c2.04-.13,3.82-1.16,4.99-2.67-.34-.7-.59-1.45-.75-2.22-.8,2.08-2.81,3.55-5.16,3.55-.28,0-.57-.02-.84-.06l.11-.7c.24.04.49.06.73.06,2.66,0,4.82-2.16,4.82-4.82s-2.16-4.82-4.82-4.82c-.25,0-.49.02-.73.06l-.11-.7c.28-.04.56-.06.84-.06,2.35,0,4.37,1.48,5.17,3.56.16-.77.42-1.52.76-2.22-1.18-1.53-2.99-2.56-5.05-2.67l.04-.71c2.16.12,4.07,1.15,5.38,2.7.3-.52.65-1,1.04-1.46-1.06-1.07-2.4-1.89-3.92-2.32l.19-.69c1.63.46,3.07,1.33,4.21,2.48,1.14-1.15,2.58-2.02,4.21-2.48l.19.69c-1.52.43-2.86,1.24-3.92,2.32.39.45.74.94,1.04,1.46,1.3-1.55,3.21-2.58,5.38-2.7l.04.71c-2.06.12-3.87,1.14-5.05,2.67.34.7.59,1.45.76,2.22.8-2.08,2.81-3.56,5.17-3.56.28,0,.57.02.84.06l-.11.7c-.24-.04-.49-.06-.73-.06-2.66,0-4.82,2.16-4.82,4.82s2.16,4.82,4.82,4.82c.25,0,.49-.02.73-.06l.11.7c-.28.04-.56.06-.84.06-2.35,0-4.37-1.48-5.17-3.56-.16.77-.42,1.52-.75,2.22,1.17,1.52,2.96,2.54,4.99,2.67l-.05.71c-2.13-.14-4.02-1.16-5.31-2.7-.3.52-.65,1.01-1.04,1.46,1.08,1.08,2.43,1.9,3.97,2.33l-.19.69c-1.65-.46-3.11-1.33-4.27-2.49-1.16,1.16-2.61,2.04-4.27,2.49ZM15.59,18.26c.3.55.65,1.07,1.06,1.55.41-.48.76-1,1.06-1.55-.47-.7-.84-1.48-1.06-2.31-.22.83-.58,1.62-1.06,2.31ZM15.23,10.49c-.46,1.09-.72,2.28-.72,3.51s.25,2.42.71,3.5c.61-1.03.96-2.23.96-3.5s-.35-2.48-.96-3.51ZM18.07,10.49c-.61,1.03-.96,2.23-.96,3.51s.35,2.47.96,3.5c.46-1.09.71-2.27.71-3.5s-.25-2.42-.72-3.51ZM15.6,9.74c.47.7.83,1.48,1.05,2.31.22-.83.58-1.61,1.05-2.31-.3-.55-.65-1.07-1.05-1.55-.4.48-.76,1-1.05,1.55ZM25.31,17.85c-2.12,0-3.84-1.72-3.84-3.84s1.72-3.84,3.84-3.84c.27,0,.55.03.81.09l-.15.7c-.21-.05-.44-.07-.66-.07-1.73,0-3.13,1.4-3.13,3.13s1.4,3.13,3.13,3.13c.21,0,.43-.02.63-.06l.14.7c-.25.05-.51.08-.77.08ZM7.99,17.85c-.26,0-.52-.03-.77-.08l.14-.7c.2.04.41.06.63.06,1.73,0,3.13-1.4,3.13-3.13s-1.4-3.13-3.13-3.13c-.22,0-.45.02-.66.07l-.15-.7c.26-.06.54-.09.81-.09,2.12,0,3.84,1.72,3.84,3.84s-1.72,3.84-3.84,3.84ZM26.28,16.45c-1.34,0-2.44-1.09-2.44-2.44s1.09-2.44,2.44-2.44c.06,0,.11,0,.16,0l-.04.71s-.08,0-.12,0c-.95,0-1.73.77-1.73,1.73s.77,1.73,1.73,1.73h.08s0,.71,0,.71h-.08ZM7.02,16.45h-.08v-.71h.08c.95,0,1.73-.77,1.73-1.72s-.77-1.73-1.73-1.73c-.04,0-.08,0-.12,0l-.04-.71c.05,0,.11,0,.16,0,1.34,0,2.44,1.09,2.44,2.44s-1.09,2.44-2.44,2.44Z"/>
      <rect class="cls-2" x="6.57" y="13.6" width="20.17" height=".81"/>
    </g>
  </g>
  <rect class="cls-1" width="56" height="27"/>
</svg>