<?xml version="1.0" encoding="UTF-8"?><svg id="Layer_1" xmlns="http://www.w3.org/2000/svg" viewBox="0 0 120 120"><defs><style>.cls-1{fill:#25bbe4;stroke:#000;stroke-miterlimit:10;stroke-width:1.821px;}.cls-2{fill:#f18913;}</style></defs><path class="cls-2" d="M57,23.172V5.172h7V23.171l-1.632-.159c-.637-.062-1.282-.092-1.914-.091-.608,.001-1.22,.032-1.82,.091l-1.633,.16Z"/><path class="cls-2" d="M83.867,31.282l12.971-12.971,4.993,4.993-12.971,12.971-1.05-1.279c-.41-.499-.848-.981-1.3-1.431-.435-.433-.893-.847-1.364-1.233l-1.28-1.05Z"/><path class="cls-2" d="M97.813,56h18.187v7h-18.186l.161-1.632c.062-.637,.093-1.282,.092-1.914-.001-.608-.032-1.22-.092-1.82l-.162-1.633Z"/><path class="cls-2" d="M89.19,83.827l12.971,12.971-4.993,4.993-12.971-12.971,1.279-1.05c.499-.41,.981-.848,1.431-1.3,.433-.435,.847-.893,1.233-1.364l1.05-1.28Z"/><path class="cls-2" d="M64,97.656v18.344h-7v-18.343l1.632,.162c.637,.063,1.282,.094,1.914,.093,.608-.001,1.22-.033,1.82-.093l1.633-.163Z"/><path class="cls-2" d="M36.645,89.15l-12.971,12.971-4.993-4.993,12.971-12.971,1.05,1.279c.41,.499,.848,.981,1.3,1.431,.435,.433,.893,.847,1.364,1.233l1.28,1.05Z"/><path class="cls-2" d="M23.187,64H5v-7H23.186l-.161,1.632c-.062,.637-.093,1.282-.092,1.914,.001,.608,.032,1.22,.092,1.82l.162,1.633Z"/><path class="cls-2" d="M31.322,36.604l-12.971-12.971,4.993-4.993,12.971,12.971-1.279,1.05c-.499,.41-.981,.848-1.431,1.3-.433,.435-.847,.893-1.233,1.364l-1.05,1.28Z"/><circle class="cls-2" cx="60" cy="60" r="33"/><ellipse class="cls-1" cx="60" cy="60.651" rx=".5" ry=".151"/></svg>