<?xml version="1.0" encoding="utf-8"?>
<!-- Generator: Adobe Illustrator 26.3.1, SVG Export Plug-In . SVG Version: 6.00 Build 0)  -->
<svg version="1.1" id="Layer_1" xmlns="http://www.w3.org/2000/svg" xmlns:xlink="http://www.w3.org/1999/xlink" x="0px" y="0px"
	 viewBox="0 0 120 120" style="enable-background:new 0 0 120 120;" xml:space="preserve">
<style type="text/css">
	.st0{fill:#F18913;}
</style>
<path class="st0" d="M57,23.2v-18h7v18L62.4,23c-0.6-0.1-1.3-0.1-1.9-0.1c-0.6,0-1.2,0-1.8,0.1L57,23.2L57,23.2z"/>
<path class="st0" d="M83.9,31.3l13-13l5,5l-13,13L87.8,35c-0.4-0.5-0.8-1-1.3-1.4c-0.4-0.4-0.9-0.8-1.4-1.2L83.9,31.3L83.9,31.3z"/>
<path class="st0" d="M97.8,56H116v7H97.8l0.2-1.6c0.1-0.6,0.1-1.3,0.1-1.9c0-0.6,0-1.2-0.1-1.8L97.8,56L97.8,56z"/>
<path class="st0" d="M89.2,83.8l13,13l-5,5l-13-13l1.3-1.1c0.5-0.4,1-0.8,1.4-1.3c0.4-0.4,0.8-0.9,1.2-1.4L89.2,83.8L89.2,83.8z"/>
<path class="st0" d="M64,97.7V116h-7V97.7l1.6,0.2c0.6,0.1,1.3,0.1,1.9,0.1c0.6,0,1.2,0,1.8-0.1L64,97.7L64,97.7z"/>
<path class="st0" d="M36.6,89.2l-13,13l-5-5l13-13l1,1.3c0.4,0.5,0.8,1,1.3,1.4c0.4,0.4,0.9,0.8,1.4,1.2L36.6,89.2L36.6,89.2z"/>
<path class="st0" d="M23.2,64H5v-7h18.2L23,58.6c-0.1,0.6-0.1,1.3-0.1,1.9c0,0.6,0,1.2,0.1,1.8L23.2,64L23.2,64z"/>
<path class="st0" d="M31.3,36.6l-13-13l5-5l13,13l-1.3,1c-0.5,0.4-1,0.8-1.4,1.3c-0.4,0.4-0.8,0.9-1.2,1.4L31.3,36.6L31.3,36.6z"/>
<circle class="st0" cx="60" cy="60" r="33"/>
</svg>
