<?xml version="1.0" encoding="UTF-8"?><svg id="Layer_1" xmlns="http://www.w3.org/2000/svg" viewBox="0 0 120 120"><defs><style>.cls-1{fill:#f18913;}</style></defs><path class="cls-1" d="M62.293,24.225c1.273-5.242,2.545-10.484,3.818-15.725,1.247,5.31,2.495,10.62,3.742,15.93l13.41,4.077-13.334,4.009c-1.273,5.31-2.545,10.62-3.818,15.93-1.247-5.333-2.495-10.666-3.742-15.998-4.445-1.359-8.889-2.718-13.334-4.077l13.259-4.146Z"/><path class="cls-1" d="M88.364,41.715c1.273-5.242,2.545-10.484,3.818-15.725,1.247,5.31,2.495,10.62,3.742,15.93l13.41,4.077-13.334,4.009c-1.273,5.31-2.545,10.62-3.818,15.93-1.247-5.333-2.495-10.666-3.742-15.998-4.445-1.359-8.889-2.718-13.334-4.077l13.259-4.146Z"/><path class="cls-1" d="M81.571,98.902h0c-16.596-4.322-20.169-6.121-20.17-6.121-7.237-4.213-11.692-8.874-14.294-11.806-3.861-4.349-9.425-10.759-11.956-20.473-2.73-10.48-.459-19.322,.719-23.69,2.696-9.994,7.759-16.938,10.839-20.579-2.995,.804-7.13,2.22-11.625,4.82-9.965,5.763-15.22,13.594-17.023,16.524-2.13,3.462-7.36,12.95-7.042,25.855,.224,9.077,3.099,16.073,5.302,20.23,4.765,8.994,11.222,13.842,12.83,15.007,10.167,7.358,20.67,7.959,24.238,8.115,8.609,.376,15.519-1.702,19.575-3.277"/></svg>