<?xml version="1.0" encoding="UTF-8"?><svg id="Layer_1" xmlns="http://www.w3.org/2000/svg" viewBox="0 0 120 120"><defs><style>.cls-1{fill:#fff;}.cls-2{fill:#f18913;}.cls-3{fill:#999;}</style></defs><path class="cls-2" d="M82.033,18.138l2.043-8.416c.184-.759,1.265-.755,1.443,.005l2.01,8.557c.06,.257,.253,.463,.507,.54l7.343,2.233c.703,.214,.701,1.209-.002,1.421l-7.284,2.19c-.253,.076-.446,.281-.508,.538l-2.045,8.535c-.182,.761-1.266,.758-1.444-.004l-2.007-8.582c-.06-.257-.253-.463-.506-.541l-7.34-2.244c-.698-.213-.701-1.2-.004-1.418l7.295-2.281c.249-.078,.438-.28,.5-.533Z"/><path class="cls-2" d="M37.903,47.424c5.529-4.023,8.169-9.095,9.294-11.684,.918-4.231,.483-7.739,.223-9.288-.293-1.748-1.285-6.503-4.926-11.183-1.642-2.111-3.342-3.588-4.616-4.551,.323,1.592,2.523,13.456-5.636,23.322-6.416,7.758-16.803,11.338-27.01,9.388l3.217,3.864c1.591,1.499,4.395,3.747,8.413,5.238,2.329,.317,12.127,1.382,21.042-5.104Z"/><path class="cls-2" d="M100.636,28.16l2.043-8.416c.184-.759,1.265-.755,1.443,.005l2.01,8.557c.06,.257,.253,.463,.507,.54l7.343,2.233c.703,.214,.701,1.209-.002,1.421l-7.284,2.19c-.253,.076-.446,.281-.508,.538l-2.045,8.535c-.182,.761-1.266,.758-1.444-.004l-2.007-8.582c-.06-.257-.253-.463-.506-.541l-7.34-2.244c-.698-.213-.701-1.2-.004-1.418l7.295-2.281c.249-.078,.438-.28,.5-.533Z"/><path class="cls-1" d="M109.865,51.058c-4.591-4.591-10.686-7.12-17.163-7.12h-.017c-1.839,.003-3.677,.216-5.479,.638-3.059-11.709-13.704-20.052-25.877-20.052h-.018c-12.136,.008-22.557,8.031-25.79,19.675-1.086-.149-2.123-.25-3.196-.219-13.44,.008-24.382,11.015-24.39,24.534-.004,6.497,2.536,12.636,7.153,17.287,4.622,4.65,10.733,7.213,17.207,7.216h.001l60.362-.039c13.439-.014,24.381-11.021,24.389-24.534,.004-6.575-2.546-12.752-7.181-17.385Zm-17.211,39.042l-60.361,.039c-5.701-.003-11.088-2.262-15.164-6.367-4.079-4.105-6.322-9.523-6.318-15.258,.008-11.934,9.659-21.648,21.517-21.656h.038c1.279,0,2.563,.126,3.923,.38,.982,.248,1.949,.571,2.871,1.006,1.212,.57,3.538,1.888,5.491,4.282,2.957,3.625,3.445,7.753,3.473,9.894l2.877-.039c-.032-2.512-.611-7.373-4.121-11.675-2.313-2.832-5.062-4.389-6.492-5.064-.661-.313-1.341-.585-2.033-.817,2.937-10.313,12.18-17.414,22.957-17.422h.015c10.939,0,20.478,7.567,23.129,18.139-2.28,1.006-5.205,2.831-7.561,6.086-3.109,4.294-3.534,8.759-3.51,11.037l2.877-.028c-.021-1.928,.337-5.699,2.963-9.323,2.705-3.737,6.301-5.246,8.205-5.811v-.005c1.726-.441,3.489-.678,5.255-.681h.014c5.708,0,11.081,2.228,15.129,6.277,4.091,4.091,6.342,9.543,6.338,15.351-.008,11.928-9.659,21.642-21.514,21.656Z"/><path class="cls-3" d="M92.654,90.099l-60.361,.039c-5.701-.003-11.088-2.262-15.164-6.367-4.079-4.105-6.322-9.523-6.318-15.258,.008-11.934,9.659-21.648,21.517-21.656h.038c1.279,0,2.563,.126,3.923,.38,.982,.248,1.949,.571,2.871,1.006,1.212,.57,3.538,1.888,5.491,4.282,2.957,3.625,3.445,7.753,3.473,9.894l2.877-.039c-.032-2.512-.611-7.373-4.121-11.675-2.313-2.832-5.062-4.389-6.492-5.064-.661-.313-1.341-.585-2.033-.817,2.937-10.313,12.18-17.414,22.957-17.422h.015c10.939,0,20.478,7.567,23.129,18.139-2.28,1.006-5.205,2.831-7.561,6.086-3.109,4.294-3.534,8.759-3.51,11.037l2.877-.028c-.021-1.928,.337-5.699,2.963-9.323,2.705-3.737,6.301-5.246,8.205-5.811v-.005c1.726-.441,3.489-.678,5.255-.681h.014c5.708,0,11.081,2.228,15.129,6.277,4.091,4.091,6.342,9.543,6.338,15.351-.008,11.928-9.659,21.642-21.514,21.656Z"/></svg>