<?xml version="1.0" encoding="UTF-8"?><svg id="Layer_1" xmlns="http://www.w3.org/2000/svg" viewBox="0 0 120 120"><defs><style>.cls-1{fill:#fff;}.cls-2{fill:#999;}</style></defs><path class="cls-1" d="M109.705,50.123c-4.694-4.694-10.924-7.279-17.546-7.279h-.017c-1.88,.003-3.759,.221-5.601,.652-3.127-11.97-14.01-20.499-26.453-20.499h-.019c-12.407,.009-23.059,8.21-26.364,20.114-1.11-.152-2.17-.256-3.268-.224-13.739,.009-24.925,11.26-24.934,25.08-.004,6.641,2.593,12.918,7.312,17.672,4.725,4.754,10.972,7.374,17.59,7.377h.001l61.707-.04c13.738-.014,24.924-11.266,24.932-25.08,.004-6.722-2.603-13.036-7.341-17.773Zm-17.594,39.911l-61.706,.04c-5.828-.003-11.335-2.312-15.502-6.509-4.17-4.197-6.463-9.735-6.459-15.598,.009-12.2,9.874-22.13,21.997-22.139h.039c1.308,0,2.621,.129,4.011,.388,1.004,.254,1.992,.584,2.935,1.028,1.239,.583,3.617,1.93,5.613,4.378,3.023,3.706,3.522,7.925,3.551,10.114l2.942-.04c-.033-2.568-.625-7.538-4.213-11.935-2.364-2.896-5.175-4.487-6.637-5.176-.676-.319-1.371-.598-2.078-.836,3.003-10.542,12.451-17.802,23.469-17.81h.016c11.183,0,20.934,7.736,23.645,18.543-2.331,1.029-5.321,2.894-7.729,6.222-3.178,4.389-3.612,8.954-3.588,11.283l2.942-.029c-.022-1.971,.345-5.826,3.029-9.531,2.765-3.821,6.442-5.363,8.388-5.94v-.005c1.764-.451,3.567-.694,5.372-.696h.014c5.836,0,11.328,2.278,15.466,6.417,4.182,4.182,6.483,9.755,6.479,15.693-.009,12.194-9.874,22.125-21.994,22.139Z"/><path class="cls-2" d="M92.111,90.034l-61.706,.04c-5.828-.003-11.335-2.312-15.502-6.509-4.17-4.197-6.463-9.735-6.459-15.598,.009-12.2,9.874-22.13,21.997-22.139h.039c1.308,0,2.621,.129,4.011,.388,1.004,.254,1.992,.584,2.935,1.028,1.239,.583,3.617,1.93,5.613,4.378,3.023,3.706,3.522,7.925,3.551,10.114l2.942-.04c-.033-2.568-.625-7.538-4.213-11.935-2.364-2.896-5.175-4.487-6.637-5.176-.676-.319-1.371-.598-2.078-.836,3.003-10.542,12.451-17.802,23.469-17.81h.016c11.183,0,20.934,7.736,23.645,18.543-2.331,1.029-5.321,2.894-7.729,6.222-3.178,4.389-3.612,8.954-3.588,11.283l2.942-.029c-.022-1.971,.345-5.826,3.029-9.531,2.765-3.821,6.442-5.363,8.388-5.94v-.005c1.764-.451,3.567-.694,5.372-.696h.014c5.836,0,11.328,2.278,15.466,6.417,4.182,4.182,6.483,9.755,6.479,15.693-.009,12.194-9.874,22.125-21.994,22.139Z"/></svg>