<?xml version="1.0" encoding="UTF-8"?><svg id="Layer_1" xmlns="http://www.w3.org/2000/svg" viewBox="0 0 120 120"><defs><style>.cls-1{fill:#c9c8c8;}.cls-2{fill:#f2f2f2;stroke:#000;stroke-miterlimit:10;stroke-width:3px;}</style></defs><path class="cls-1" d="M31.349,88.669l-2.635,.002c-5.83-.003-11.339-2.313-15.507-6.511-4.171-4.198-6.465-9.738-6.461-15.603,.009-12.204,9.878-22.137,22.004-22.146h.039c1.308,0,2.621,.129,4.012,.388,1.005,.254,1.993,.584,2.936,1.028,1.24,.583,3.618,1.931,5.615,4.379,3.024,3.707,3.523,7.928,3.552,10.118l2.942-.04c-.033-2.569-.625-7.54-4.214-11.939-2.365-2.897-5.177-4.488-6.639-5.178-.676-.32-1.371-.598-2.079-.836,3.004-10.546,12.455-17.808,23.476-17.816h.016c11.187,0,20.941,7.738,23.652,18.549-2.332,1.029-5.322,2.895-7.732,6.224-3.18,4.391-3.613,8.957-3.589,11.287l2.942-.029c-.022-1.971,.345-5.827,3.03-9.534,2.766-3.822,6.444-5.365,8.391-5.942v-.005c1.765-.451,3.568-.694,5.373-.696h.014c5.838,0,11.332,2.279,15.471,6.419,4.184,4.184,6.485,9.758,6.481,15.698-.009,12.198-9.878,22.132-22.001,22.146h-1.748"/><line class="cls-1" x1="91.89" y1="89.579" x2="89.007" y2="89.581"/><line class="cls-1" x1="36.289" y1="89.615" x2="32.521" y2="89.617"/><line class="cls-1" x1="89.007" y1="89.581" x2="36.289" y2="89.615"/><polygon class="cls-2" points="47.065 69.825 36.115 72.012 32.551 82.674 39.937 91.149 50.887 88.962 54.451 78.3 47.065 69.825"/><polygon class="cls-2" points="81.59 69.825 70.64 72.012 67.076 82.674 74.462 91.149 85.413 88.962 88.977 78.3 81.59 69.825"/><polygon class="cls-2" points="65.475 92.647 54.413 94.174 50.217 104.604 57.083 113.507 68.144 111.979 72.341 101.55 65.475 92.647"/><path fill="#c9c8c8" d="M108.04,48.706c-4.695-4.695-10.928-7.281-17.551-7.281h-.017c-1.881,.003-3.76,.221-5.603,.652-3.128-11.974-14.014-20.505-26.462-20.505h-.019c-12.411,.009-23.067,8.212-26.373,20.12-1.111-.152-2.171-.256-3.269-.224-13.744,.009-24.933,11.264-24.942,25.088-.004,6.643,2.593,12.922,7.314,17.678,4.727,4.756,10.975,7.376,17.596,7.379h.207v-2.943h-.207c-5.83-.003-11.339-2.313-15.507-6.511-4.171-4.198-6.465-9.738-6.461-15.603,.009-12.204,9.878-22.137,22.004-22.146h.039c1.308,0,2.621,.129,4.012,.388,1.005,.254,1.993,.584,2.936,1.028,1.24,.583,3.618,1.931,5.615,4.379,3.024,3.707,3.523,7.928,3.552,10.118l2.942-.04c-.033-2.569-.625-7.54-4.214-11.939-2.365-2.897-5.177-4.488-6.639-5.178-.676-.32-1.371-.598-2.079-.836,3.004-10.546,12.455-17.808,23.476-17.816h.016c11.186,0,20.941,7.738,23.652,18.549-2.332,1.029-5.322,2.895-7.732,6.224-3.179,4.391-3.613,8.957-3.589,11.287l2.943-.029c-.022-1.971,.345-5.827,3.03-9.534,2.766-3.822,6.444-5.365,8.391-5.942v-.005c1.765-.451,3.568-.694,5.374-.696h.014c5.838,0,11.332,2.279,15.471,6.419,4.184,4.184,6.485,9.758,6.481,15.698-.008,11.691-9.076,21.296-20.503,22.087v2.951c13.049-.795,23.437-11.724,23.445-25.038,.004-6.724-2.603-13.04-7.343-17.778Z"/></svg>