<?xml version="1.0" encoding="UTF-8"?><svg id="Layer_1" xmlns="http://www.w3.org/2000/svg" viewBox="0 0 120 120"><defs><style>.cls-1{fill:#fff;}.cls-2{fill:#1a1a1a;}</style></defs><g><path class="cls-2" d="M28.787,91.506c-13.221-.005-24.076-10.944-24.067-24.218,.009-13.384,10.799-24.241,24.099-24.25,1.534-.001,3.028,.158,4.482,.432,2.697-11.931,13.284-20.852,25.953-20.86,12.876-.008,23.608,9.184,26.069,21.405,2.18-.654,4.484-1.018,6.874-1.019,13.301-.009,24.076,10.834,24.067,24.218-.009,13.287-10.884,24.236-24.099,24.25-21.126,.014-42.251,.028-63.377,.042Z"/><path class="cls-1" d="M28.788,93.016h-.001c-6.798-.003-13.213-2.694-18.067-7.577-4.847-4.883-7.515-11.329-7.51-18.151,.009-14.194,11.498-25.751,25.609-25.76,1.127-.032,2.216,.074,3.356,.23,3.394-12.226,14.336-20.65,27.078-20.658h.019c12.781,0,23.958,8.76,27.17,21.054,1.893-.443,3.822-.667,5.753-.67h.018c6.801,0,13.2,2.655,18.021,7.476,4.867,4.865,7.544,11.35,7.54,18.254-.009,14.188-11.498,25.745-25.608,25.76l-63.378,.041Zm.075-48.466h-.04c-12.451,.009-22.584,10.208-22.592,22.738-.004,6.022,2.351,11.71,6.634,16.02,4.28,4.31,9.935,6.683,15.922,6.686l63.377-.041c12.448-.015,22.581-10.214,22.589-22.738,.004-6.098-2.359-11.822-6.655-16.118-4.25-4.251-9.891-6.591-15.885-6.591h-.015c-2.169,.003-4.337,.325-6.441,.956l-1.589,.478-.327-1.626c-2.356-11.701-12.688-20.192-24.569-20.192h-.016c-11.797,.009-21.864,8.102-24.481,19.682l-.322,1.422-1.432-.271c-1.443-.271-2.803-.404-4.159-.404Z"/></g><path class="cls-1" d="M71.934,61.146c-.025-2.393,.42-7.081,3.685-11.589,3.363-4.647,7.835-6.523,10.201-7.228l.862,2.897c-1.999,.593-5.775,2.177-8.615,6.101-2.757,3.806-3.133,7.765-3.111,9.789l-3.021,.03Z"/><path class="cls-1" d="M45.409,60.889c-.03-2.248-.541-6.582-3.647-10.388-2.051-2.514-4.492-3.897-5.765-4.496-1.158-.546-2.375-.959-3.619-1.221l.628-2.956c1.472,.313,2.912,.8,4.28,1.446,1.502,.708,4.389,2.343,6.817,5.317,3.685,4.517,4.293,9.621,4.327,12.259l-3.021,.041Z"/></svg>