<?xml version="1.0" encoding="UTF-8"?><svg id="Layer_1" xmlns="http://www.w3.org/2000/svg" viewBox="0 0 120 120"><defs><style>.cls-1{fill:#333233;}.cls-2{fill:#cb1334;stroke:#000;stroke-miterlimit:10;stroke-width:.25px;}</style></defs><path class="cls-2" d="M66.328,29.093l.104-.112c.044-.045,4.004-3.9,9.732-4.889h-30.551c3.004,.636,5.943,2.155,8.762,4.563,.36,.307,.741,.602,1.199,.929,1.484,1.058,2.888,1.684,4.263,1.908h2.211c1.573-.281,2.822-1.096,3.622-1.772,.39-.329,.619-.583,.657-.626Z"/><path class="cls-2" d="M90.202,28.776c.302,.282,.637,.563,1.022,.857,1.15,.875,2.333,1.437,3.531,1.689l-1.637-4.615c-.512-1.445-2.169-2.615-3.702-2.615h-8.112c3.144,.543,6.13,2.1,8.899,4.684Z"/><path class="cls-2" d="M29.782,29.567c.416-.291,.745-.557,.961-.742,1.263-1.439,4.332-3.839,8.435-4.734h-6.779c-1.533,0-3.19,1.17-3.702,2.615l-1.493,4.208c1.017-.363,1.906-.878,2.578-1.347Z"/><path class="cls-1" d="M60.894,38.822c-3.801,0-7.572-1.573-11.207-4.675-.379-.324-.783-.636-1.272-.984-1.914-1.362-3.798-2.099-5.6-2.19-2.822-.133-5.012,1.274-6.061,2.125-.518,.42-.805,.737-.808,.74l-.138,.139c-1.793,1.606-6.633,5.265-12.749,4.538-2.699-.325-5.108-1.24-7.165-2.719-.052-.032-.1-.064-.146-.098-.992-.732-1.657-1.429-2.191-1.989-.589-.616-.979-1.024-1.66-1.449-.976-.611-2.108-.986-3.369-1.117-.826-.085-1.57-.486-2.094-1.13-.525-.645-.767-1.455-.682-2.282,.084-.82,.49-1.562,1.142-2.089,.644-.522,1.474-.776,2.276-.687,2.207,.224,4.238,.907,6.029,2.028,1.358,.85,2.143,1.674,2.834,2.401,.449,.472,.836,.88,1.41,1.305,.035,.025,.078,.049,.12,.074,.078,.047,.155,.094,.231,.145,1.159,.767,2.503,1.247,3.996,1.426,2.661,.318,5.039-.88,6.564-1.946,.471-.329,.844-.633,1.097-.852,1.062-1.236,5.494-5.107,11.682-4.777,3.624,.182,7.189,1.749,10.593,4.657,.381,.325,.785,.638,1.268,.982,2.268,1.618,4.407,2.327,6.552,2.172,2.112-.18,3.762-1.234,4.771-2.086,.479-.404,.744-.709,.747-.712l.081-.088c.108-.11,11.122-10.677,22.374-.177,.332,.311,.692,.612,1.1,.922,4.989,3.798,9.44,1.476,11.651-.245,.452-.352,.705-.604,.708-.606,.405-.404,4.085-3.93,9.625-4.47l.104-.007c1.723-.051,3.14,1.171,3.298,2.803v.002c.163,1.705-1.091,3.229-2.793,3.398-2.743,.266-4.794,1.786-5.548,2.427-.169,.143-.284,.25-.31,.274-2.941,2.956-12.71,8.793-22.081,.05-.332-.31-.692-.612-1.104-.925-4.842-3.685-9.289-1.563-11.511,.029-.658,.471-1.039,.842-1.043,.846h0c-.834,.921-4.251,4.318-9.565,4.767-.388,.032-.773,.05-1.156,.05ZM8.82,28.331h0Z"/><path class="cls-2" d="M96.196,49.354c1.75,0,3.289-.657,4.464-1.39l-2.978-8.393c-.539,.058-1.087,.097-1.648,.097-2.341,0-4.59-.549-6.736-1.6l3.745,10.554c1.037,.486,2.092,.732,3.153,.732Z"/><path class="cls-2" d="M23.909,49.215c.25,.03,.506,.045,.761,.045,1.674,0,3.195-.645,4.347-1.329l3.752-10.573c-2.13,1.192-4.919,2.251-8.115,2.251-.174,0-.349-.025-.524-.031l-3.108,8.76c.867,.453,1.833,.751,2.888,.878Z"/><path class="cls-2" d="M15.761,63.61c1.466,.917,2.332,1.828,3.034,2.565,.432,.454,.774,.813,1.273,1.18l.039,.023,.005,.003c.09,.054,.18,.109,.266,.167,1.028,.681,2.227,1.107,3.563,1.267,.25,.03,.506,.045,.761,.045,.533,0,1.051-.067,1.547-.178-.503-.986-.792-2.1-.792-3.284,0-4.001,3.244-7.244,7.244-7.244,2.624,0,4.916,1.4,6.187,3.489,1.105-.266,2.284-.43,3.53-.43,.263,0,.529,.007,.796,.021,3.851,.194,7.617,1.841,11.192,4.895,.36,.307,.741,.602,1.199,.929,1.893,1.35,3.658,2.007,5.396,2.007,.168,0,.335-.006,.49-.017,1.852-.158,3.312-1.095,4.21-1.853,.39-.329,.619-.583,.657-.626l.104-.112c.051-.051,5.252-5.12,12.368-5.12,1.343,0,2.657,.198,3.945,.556,1.236-2.228,3.61-3.737,6.338-3.737,4.001,0,7.244,3.243,7.244,7.244,0,1.273-.331,2.467-.907,3.507,.258,.029,.516,.049,.775,.049,2.299,0,4.238-1.133,5.459-2.084,.361-.281,.581-.492,.622-.531h0c.295-.293,2.046-1.958,4.84-3.252v-7.552c0-.648-.135-1.264-.376-1.823-2.278,1.762-6.173,3.831-10.737,3.831-4.121,0-7.971-1.642-11.442-4.881-.31-.289-.646-.571-1.027-.861-.456-.347-.92-.64-1.389-.89h-7.382c-.596,.297-1.121,.627-1.553,.936-.577,.413-.918,.74-.918,.74h0l-.008,.008c-1.03,1.126-4.615,4.578-10.184,5.048-.441,.036-.846,.054-1.238,.054-4.046,0-8.034-1.653-11.856-4.914-.355-.303-.737-.599-1.203-.929-.52-.37-1.033-.673-1.543-.942h-7.676c-.509,.291-.93,.593-1.232,.838-.429,.348-.674,.611-.728,.668l-.138,.139-.021,.021-.022,.02c-1.641,1.47-6.077,4.888-11.821,4.888-.57,0-1.147-.034-1.714-.102-2.854-.343-5.412-1.312-7.601-2.88-.062-.039-.122-.08-.184-.125-.094-.069-.171-.137-.26-.205-.135,.434-.228,.886-.228,1.364v7.476c.37,.189,.741,.377,1.094,.599Z"/><path class="cls-1" d="M60.924,76.297c-3.801,0-7.572-1.573-11.207-4.675-.379-.324-.783-.636-1.272-.984-1.914-1.362-3.798-2.099-5.6-2.19-2.822-.133-5.012,1.274-6.061,2.125-.518,.42-.805,.737-.808,.74l-.138,.139c-1.793,1.606-6.633,5.265-12.749,4.538-2.699-.325-5.108-1.24-7.165-2.719-.052-.032-.1-.064-.146-.098-.992-.732-1.657-1.429-2.191-1.989-.589-.616-.979-1.024-1.66-1.449-.976-.611-2.108-.986-3.369-1.117-.826-.085-1.57-.486-2.094-1.13-.525-.645-.767-1.455-.682-2.282,.084-.82,.49-1.562,1.142-2.089,.644-.522,1.474-.776,2.276-.687,2.207,.224,4.238,.907,6.029,2.028,1.358,.85,2.143,1.674,2.834,2.401,.449,.472,.836,.88,1.41,1.305,.035,.025,.078,.049,.12,.074,.078,.047,.155,.094,.231,.145,1.159,.767,2.503,1.247,3.996,1.426,2.661,.318,5.039-.88,6.564-1.946,.471-.329,.844-.633,1.097-.852,1.062-1.236,5.494-5.107,11.682-4.777,3.624,.182,7.189,1.749,10.593,4.657,.381,.325,.785,.638,1.268,.982,2.268,1.618,4.407,2.327,6.552,2.172,2.112-.18,3.762-1.234,4.771-2.086,.479-.404,.744-.709,.747-.712l.081-.088c.108-.11,11.122-10.677,22.374-.177,.332,.311,.692,.612,1.1,.922,4.989,3.798,9.44,1.476,11.651-.245,.452-.352,.705-.604,.708-.606,.405-.404,4.085-3.93,9.625-4.47l.104-.007c1.723-.051,3.14,1.171,3.298,2.803v.002c.163,1.705-1.091,3.229-2.793,3.398-2.743,.266-4.794,1.786-5.548,2.427-.169,.143-.284,.25-.31,.274-2.941,2.956-12.71,8.793-22.081,.05-.332-.31-.692-.612-1.104-.925-4.842-3.685-9.289-1.563-11.511,.029-.658,.471-1.039,.842-1.043,.846h0c-.834,.921-4.251,4.318-9.565,4.767-.388,.032-.773,.05-1.156,.05Zm-52.074-10.491h0Z"/><g><path class="cls-2" d="M42.441,89.33c-.89,0-1.704,.172-2.422,.424h4.751c-.681-.227-1.352-.384-2.003-.417-.11-.005-.219-.008-.327-.008Z"/><path class="cls-2" d="M76.482,89.754h4.118c-.672-.196-1.352-.299-2.038-.299-.735,0-1.43,.119-2.08,.299Z"/><path class="cls-2" d="M96.034,97.033c-4.121,0-7.971-1.642-11.442-4.881-.207-.193-.432-.383-.668-.574v6.96c0,1.532,1.241,2.774,2.774,2.774h12.435c1.532,0,2.774-1.242,2.774-2.774v-2.623c-1.747,.663-3.736,1.119-5.873,1.119Z"/><path class="cls-2" d="M37.384,91.239c-.429,.348-.674,.611-.728,.668l-.138,.139-.021,.021-.022,.019c-1.641,1.47-6.077,4.888-11.821,4.888-.57,0-1.147-.034-1.714-.102-1.053-.127-2.065-.34-3.033-.635v2.3c0,1.532,1.241,2.774,2.774,2.774h12.434c1.533,0,2.774-1.242,2.774-2.774v-7.675c-.189,.133-.364,.262-.506,.377Z"/><path class="cls-2" d="M15.73,83.5c1.465,.917,2.332,1.828,3.034,2.565,.432,.454,.774,.813,1.273,1.18l.039,.023,.005,.003c.09,.054,.18,.109,.266,.167,1.028,.681,2.227,1.107,3.563,1.267,.25,.03,.506,.045,.761,.045,2.073,0,3.924-.989,5.111-1.818,.416-.291,.745-.557,.961-.742,1.574-1.794,5.952-5.087,11.644-5.087,.263,0,.529,.007,.796,.021,3.851,.193,7.617,1.84,11.192,4.895,.36,.307,.741,.602,1.199,.929,1.893,1.35,3.658,2.007,5.396,2.007,.168,0,.335-.006,.49-.017,1.852-.158,3.312-1.095,4.21-1.853,.39-.329,.619-.583,.657-.626l.104-.112c.051-.051,5.252-5.12,12.368-5.12,4.07,0,7.906,1.653,11.401,4.915,.302,.282,.637,.563,1.022,.857,1.609,1.225,3.282,1.846,4.972,1.846,2.299,0,4.238-1.133,5.459-2.084,.361-.281,.581-.492,.622-.531h0c.296-.295,2.059-1.97,4.871-3.266v-9.93c-2.214,1.815-6.276,4.109-11.084,4.109-4.121,0-7.971-1.642-11.442-4.881-.31-.289-.646-.571-1.027-.861-1.601-1.219-3.284-1.836-5.002-1.837-2.226,0-4.122,1.024-5.321,1.883-.577,.413-.918,.74-.918,.74h0l-.008,.008c-1.03,1.126-4.615,4.578-10.184,5.048-.441,.036-.846,.054-1.238,.054-4.045,0-8.034-1.653-11.856-4.914-.355-.303-.737-.599-1.203-.929-1.756-1.25-3.462-1.925-5.068-2.006-.11-.005-.219-.008-.327-.008-2.35,0-4.177,1.197-5.057,1.91-.429,.348-.674,.611-.728,.668l-.138,.139-.021,.021-.022,.02c-1.641,1.47-6.077,4.888-11.821,4.888-.57,0-1.146-.034-1.714-.102-2.854-.343-5.412-1.312-7.601-2.88-.062-.039-.122-.08-.184-.125-.187-.138-.351-.273-.518-.409v9.35c.359,.185,.72,.367,1.064,.582Z"/><path class="cls-1" d="M60.894,96.187c-3.801,0-7.572-1.573-11.207-4.675-.379-.324-.783-.636-1.272-.984-1.914-1.362-3.798-2.099-5.6-2.19-2.822-.133-5.012,1.274-6.061,2.125-.518,.42-.805,.737-.808,.74l-.138,.139c-1.793,1.606-6.633,5.265-12.749,4.538-2.699-.325-5.108-1.24-7.165-2.719-.052-.032-.1-.064-.146-.098-.992-.732-1.657-1.429-2.191-1.989-.589-.616-.979-1.024-1.66-1.449-.976-.611-2.108-.986-3.369-1.117-.826-.085-1.57-.486-2.094-1.13-.525-.645-.767-1.455-.682-2.282,.084-.82,.49-1.562,1.142-2.089,.644-.522,1.474-.776,2.276-.687,2.207,.224,4.238,.907,6.029,2.028,1.358,.85,2.143,1.674,2.834,2.401,.449,.472,.836,.88,1.41,1.305,.035,.025,.078,.049,.12,.074,.078,.047,.155,.094,.231,.145,1.159,.767,2.503,1.247,3.996,1.426,2.661,.318,5.039-.88,6.564-1.946,.471-.329,.844-.633,1.097-.852,1.062-1.236,5.494-5.107,11.682-4.777,3.624,.182,7.189,1.749,10.593,4.657,.381,.325,.785,.638,1.268,.982,2.268,1.618,4.407,2.327,6.552,2.172,2.112-.18,3.762-1.234,4.771-2.086,.479-.404,.744-.709,.747-.712l.081-.088c.108-.11,11.122-10.677,22.374-.177,.332,.311,.692,.612,1.1,.922,4.989,3.798,9.44,1.476,11.651-.245,.452-.352,.705-.604,.708-.606,.405-.404,4.085-3.93,9.625-4.47l.104-.007c1.723-.051,3.14,1.171,3.298,2.803v.002c.163,1.705-1.091,3.229-2.793,3.398-2.743,.266-4.794,1.786-5.548,2.427-.169,.143-.284,.25-.31,.274-2.941,2.956-12.71,8.793-22.081,.05-.332-.31-.692-.612-1.104-.925-4.842-3.685-9.289-1.563-11.511,.029-.658,.471-1.039,.842-1.043,.846h0c-.834,.921-4.251,4.318-9.565,4.767-.388,.032-.773,.05-1.156,.05Zm-52.074-10.491h0Z"/></g><path class="cls-1" d="M60.894,56.697c-3.801,0-7.572-1.573-11.207-4.675-.379-.324-.783-.636-1.272-.984-1.914-1.362-3.798-2.099-5.6-2.19-2.822-.133-5.012,1.274-6.061,2.125-.518,.42-.805,.737-.808,.74l-.138,.139c-1.793,1.606-6.633,5.265-12.749,4.538-2.699-.325-5.108-1.24-7.165-2.719-.052-.032-.1-.064-.146-.098-.992-.732-1.657-1.429-2.191-1.989-.589-.616-.979-1.024-1.66-1.449-.976-.611-2.108-.986-3.369-1.117-.826-.085-1.57-.486-2.094-1.13-.525-.645-.767-1.455-.682-2.282,.084-.82,.49-1.562,1.142-2.089,.644-.522,1.474-.776,2.276-.687,2.207,.224,4.238,.907,6.029,2.028,1.358,.85,2.143,1.674,2.834,2.401,.449,.472,.836,.88,1.41,1.305,.035,.025,.078,.049,.12,.074,.078,.047,.155,.094,.231,.145,1.159,.767,2.503,1.247,3.996,1.426,2.661,.318,5.039-.88,6.564-1.946,.471-.329,.844-.633,1.097-.852,1.062-1.236,5.494-5.107,11.682-4.777,3.624,.182,7.189,1.749,10.593,4.657,.381,.325,.785,.638,1.268,.982,2.268,1.618,4.407,2.327,6.552,2.172,2.112-.18,3.762-1.234,4.771-2.086,.479-.404,.744-.709,.747-.712l.081-.088c.108-.11,11.122-10.677,22.374-.177,.332,.311,.692,.612,1.1,.922,4.989,3.798,9.44,1.476,11.651-.245,.452-.352,.705-.604,.708-.606,.405-.404,4.085-3.93,9.625-4.47l.104-.007c1.723-.051,3.14,1.171,3.298,2.803v.002c.163,1.705-1.091,3.229-2.793,3.398-2.743,.266-4.794,1.786-5.548,2.427-.169,.143-.284,.25-.31,.274-2.941,2.956-12.71,8.793-22.081,.05-.332-.31-.692-.612-1.104-.925-4.842-3.685-9.289-1.563-11.511,.029-.658,.471-1.039,.842-1.043,.846h0c-.834,.921-4.251,4.318-9.565,4.767-.388,.032-.773,.05-1.156,.05ZM8.82,46.205h0Z"/></svg>