<?xml version="1.0" encoding="UTF-8"?><svg id="Layer_1" xmlns="http://www.w3.org/2000/svg" viewBox="0 0 120 120"><defs><style>.cls-1{fill:#fff;}.cls-2{fill:#f18913;}</style></defs><path class="cls-2" d="M59.442,93.924l-11.109-.151c3.763-6.947,7.527-13.895,11.291-20.842l12.043,.051c-4.004,5.067-8.008,10.134-12.012,15.201l12.012,.213c-6.839,7.229-13.678,14.457-20.517,21.686,2.764-5.386,5.528-10.772,8.292-16.158Z"/><path class="cls-1" d="M99.739,36.056c-3.729-3.729-8.679-5.783-13.939-5.783h-.014c-1.494,.002-2.986,.176-4.45,.518-2.484-9.509-11.13-16.285-21.016-16.285h-.015c-9.856,.007-18.319,6.522-20.945,15.979-.882-.121-1.724-.203-2.596-.178-10.915,.007-19.802,8.946-19.808,19.925-.003,5.276,2.06,10.262,5.809,14.039,3.754,3.777,8.716,5.858,13.974,5.86h.001l49.022-.032c10.914-.011,19.8-8.95,19.807-19.925,.003-5.34-2.068-10.356-5.832-14.119Zm-13.978,31.707l-49.021,.032c-4.63-.002-9.005-1.837-12.315-5.171-3.312-3.334-5.135-7.734-5.131-12.392,.007-9.692,7.845-17.581,17.475-17.588h.031c1.039,0,2.082,.102,3.186,.308,.798,.201,1.583,.464,2.332,.817,.985,.463,2.873,1.534,4.459,3.478,2.402,2.944,2.798,6.296,2.821,8.035l2.337-.032c-.026-2.04-.496-5.988-3.347-9.482-1.878-2.3-4.111-3.565-5.273-4.112-.537-.254-1.089-.475-1.651-.664,2.385-8.375,9.892-14.143,18.645-14.149h.013c8.884,0,16.631,6.146,18.784,14.731-1.852,.817-4.227,2.299-6.14,4.943-2.525,3.487-2.87,7.113-2.85,8.964l2.337-.023c-.017-1.565,.274-4.628,2.406-7.572,2.196-3.035,5.118-4.261,6.664-4.719v-.004c1.402-.358,2.833-.551,4.268-.553h.011c4.636,0,8.999,1.81,12.287,5.098,3.323,3.323,5.151,7.75,5.147,12.467-.007,9.687-7.845,17.577-17.473,17.588Z"/><path d="M85.761,67.764l-49.021,.032c-4.63-.002-9.005-1.837-12.315-5.171-3.312-3.334-5.135-7.734-5.131-12.392,.007-9.692,7.845-17.581,17.475-17.588h.031c1.039,0,2.082,.102,3.186,.308,.798,.201,1.583,.464,2.332,.817,.985,.463,2.873,1.534,4.459,3.478,2.402,2.944,2.798,6.296,2.821,8.035l2.337-.032c-.026-2.04-.496-5.988-3.347-9.482-1.878-2.3-4.111-3.565-5.273-4.112-.537-.254-1.089-.475-1.651-.664,2.385-8.375,9.892-14.143,18.645-14.149h.013c8.884,0,16.631,6.146,18.784,14.731-1.852,.817-4.227,2.299-6.14,4.943-2.525,3.487-2.87,7.113-2.85,8.964l2.337-.023c-.017-1.565,.274-4.628,2.406-7.572,2.196-3.035,5.118-4.261,6.664-4.719v-.004c1.402-.358,2.833-.551,4.268-.553h.011c4.636,0,8.999,1.81,12.287,5.098,3.323,3.323,5.151,7.75,5.147,12.467-.007,9.687-7.845,17.577-17.473,17.588Z"/></svg>