<?xml version="1.0" encoding="UTF-8" standalone="no"?>
<svg width="80px" height="80px" viewBox="0 0 80 80" version="1.1" xmlns="http://www.w3.org/2000/svg" xmlns:xlink="http://www.w3.org/1999/xlink">
    <!-- Generator: Sketch 3.8.2 (29753) - http://www.bohemiancoding.com/sketch -->
    <title>halloween</title>
    <desc>Created with Sketch.</desc>
    <defs></defs>
    <g id="Page-1" stroke="none" stroke-width="1" fill="none" fill-rule="evenodd">
        <g id="halloween" fill="currentColor">
            <path d="M40.9565967,44.3219766 C41.1083214,50.761259 46.2998031,55.9184242 52.6841589,55.9184242 C59.0743531,55.9184242 64.2736934,50.7518225 64.4164441,44.3015082 C60.8613843,44.5934286 56.8310478,44.7581671 52.5601921,44.7581671 C48.3901953,44.7581671 44.4494917,44.6011175 40.9565951,44.3219748 L40.9565967,44.3219766 Z" id="Combined-Shape"></path>
            <path d="M54.5801468,59.0230025 C65.540023,59.9247864 74.306347,68.7863494 75.4736842,80 L30,80 C30.2393811,77.6960869 30.7998882,75.4912934 31.6345059,73.4343513 C32.5169204,73.7989325 33.4842133,74 34.4986187,74 C38.6406778,74 42,70.6476338 42,66.4976991 C42,66.3273898 41.9943196,66.1584089 41.9831378,65.9909352 L42.0078125,66.0156098 L42.0078125,61.6980803 C44.5632239,60.2951329 47.4076472,59.3779521 50.4258326,59.0659947 L52.5,74 L54.5801386,59.0230019 L54.5801468,59.0230025 Z" id="Combined-Shape"></path>
            <polygon id="Fill-1" points="17.6477833 80 20.3078818 80 20.3078818 47.2671259 17.6477833 47.2671259"></polygon>
            <polygon id="Fill-2" points="15.7332512 37.6438177 12.4908867 45.0227381 18.9785714 45.0227381 25.4647783 45.0227381 22.2224138 37.6438177"></polygon>
            <polygon id="Fill-3" points="26.5295074 9 24.085665 17.2386138 24.085665 9 4.00044335 9 15.2083251 35.4000087 22.7482266 35.4000087 33.9561084 9"></polygon>
            <path d="M42.6174713,34.1108022 C33.1917203,34.7353934 26.5610477,36.2213263 26.5610477,37.9550067 C26.5610477,40.2520582 38.2012612,42.1141863 52.5601921,42.1141863 C66.9191231,42.1141863 78.5593365,40.2520582 78.5593365,37.9550067 C78.5593365,36.2571286 72.1996971,34.7968712 63.0832586,34.1505943 L52.8419278,10 L42.6174713,34.1108022 L42.6174713,34.1108022 Z" id="Combined-Shape"></path>
            <path d="M37.2841366,57.7236759 C35.985324,56.6471053 34.3174337,56.000003 32.4986187,56.000003 C30.6818647,55.9983872 29.0162249,56.6438254 27.7186456,57.7186456 L25,55 L25,63.0156098 L25.0164073,62.9992025 C25.0055264,63.1645767 25,63.3314137 25,63.499541 C25,67.6476338 28.3565596,71 32.4986187,71 C36.6406778,71 40,67.6476338 40,63.4976991 C40,63.3273898 39.9943196,63.1584089 39.9831378,62.9909352 L40.0078125,63.0156098 L40.0078125,55 L37.2841366,57.7236759 L37.2841366,57.7236759 Z" id="Combined-Shape"></path>
        </g>
    </g>
</svg>