<svg width="30" height="30" viewBox="0 0 30 30" fill="none" xmlns="http://www.w3.org/2000/svg">
<g clip-path="url(#clip0_547_5709)">
<path d="M16.3186 13.6312C16.3186 13.6312 14.2448 19.2487 12.9461 20.5487C11.9661 21.5287 10.3798 21.5287 9.40105 20.5487C8.4223 19.57 8.4223 17.9837 9.40105 17.005C10.7011 15.705 16.3186 13.6312 16.3186 13.6312ZM21.9811 14.795C21.9811 14.795 20.3998 19.0825 19.4086 20.0738C18.6611 20.8213 17.4498 20.8213 16.7023 20.0738C15.9561 19.3275 15.9561 18.1163 16.7023 17.3688C17.6948 16.3775 21.9823 14.795 21.9823 14.795M15.2048 8C15.2048 8 13.6236 12.2875 12.6311 13.2788C11.8848 14.0263 10.6736 14.0263 9.92605 13.2788C9.17855 12.5325 9.17855 11.3212 9.92605 10.5737C10.9186 9.58125 15.2048 8 15.2048 8Z" fill="black"/>
</g>
<defs>
<clipPath id="clip0_547_5709">
<rect width="30" height="30" fill="white"/>
</clipPath>
</defs>
</svg>
