<svg width="30" height="30" viewBox="0 0 30 30" fill="none" xmlns="http://www.w3.org/2000/svg">
<g clip-path="url(#clip0_547_5719)">
<path d="M18.9998 19.6388C17.755 19.6388 17.1081 18.9488 16.5876 18.394C16.1225 17.8975 15.7553 17.5062 14.9996 17.5062C14.2447 17.5062 13.8768 17.8975 13.4117 18.394C12.8919 18.9488 12.2443 19.6388 11.0002 19.6388C9.75537 19.6388 9.10851 18.9488 8.58868 18.394C8.12288 17.8975 7.75638 17.5062 7 17.5062V16.3767C8.24481 16.3767 8.89167 17.0674 9.41223 17.6222C9.8773 18.1187 10.2445 18.51 11.0002 18.51C11.7551 18.51 12.1231 18.118 12.5881 17.6222C13.108 17.0674 13.7556 16.3767 14.9996 16.3767C16.2444 16.3767 16.8913 17.0674 17.4119 17.6222C17.8769 18.1187 18.2442 18.51 18.9998 18.51C19.7555 18.51 20.1227 18.118 20.5878 17.6222C21.1083 17.0674 21.7552 16.3767 23 16.3767V17.5062C22.2444 17.5062 21.8764 17.8975 21.4113 18.394C20.8915 18.9488 20.2439 19.6388 18.9998 19.6388Z" fill="black"/>
<path d="M18.9998 16.949C17.755 16.949 17.1081 16.259 16.5876 15.7042C16.1225 15.2077 15.7553 14.8164 14.9996 14.8164C14.2447 14.8164 13.8768 15.2077 13.4117 15.7042C12.8919 16.259 12.2443 16.949 11.0002 16.949C9.75537 16.949 9.10851 16.259 8.58868 15.7042C8.12288 15.2077 7.75638 14.8164 7 14.8164V13.6869C8.24481 13.6869 8.89167 14.3776 9.41223 14.9325C9.8773 15.4289 10.2445 15.8203 11.0002 15.8203C11.7551 15.8203 12.1231 15.4282 12.5881 14.9325C13.108 14.3776 13.7556 13.6869 14.9996 13.6869C16.2444 13.6869 16.8913 14.3776 17.4119 14.9325C17.8769 15.4289 18.2442 15.8203 18.9998 15.8203C19.7555 15.8203 20.1227 15.4282 20.5878 14.9325C21.1083 14.3776 21.7552 13.6869 23 13.6869V14.8164C22.2444 14.8164 21.8764 15.2077 21.4113 15.7042C20.8915 16.259 20.2439 16.949 18.9998 16.949ZM18.9998 22.2181C17.755 22.2181 17.1081 21.5274 16.5876 20.9725C16.1225 20.4761 15.7553 20.0847 14.9996 20.0847C14.2447 20.0847 13.8768 20.4768 13.4117 20.9725C12.8919 21.5274 12.2443 22.2181 11.0002 22.2181C9.75537 22.2181 9.10851 21.5274 8.58868 20.9725C8.12288 20.4761 7.75638 20.0847 7 20.0847V18.956C8.24481 18.956 8.89167 19.6459 9.41223 20.2008C9.8773 20.6973 10.2445 21.0886 11.0002 21.0886C11.7551 21.0886 12.1231 20.6973 12.5881 20.2008C13.108 19.6459 13.7556 18.956 14.9996 18.956C16.2444 18.956 16.8913 19.6459 17.4119 20.2008C17.8769 20.6973 18.2442 21.0886 18.9998 21.0886C19.7555 21.0886 20.1227 20.6973 20.5878 20.2008C21.1083 19.6459 21.7552 18.956 23 18.956V20.0847C22.2444 20.0847 21.8764 20.4768 21.4113 20.9725C20.8915 21.5274 20.2439 22.2181 18.9998 22.2181ZM17.3615 10.5366V13.2868H20.5053V10.5366H22.0764L18.9334 7L15.7903 10.5366H17.3615Z" fill="black"/>
</g>
<defs>
<clipPath id="clip0_547_5719">
<rect width="16" height="15.2181" fill="white" transform="translate(7 7)"/>
</clipPath>
</defs>
</svg>
