<svg width="20" height="20" viewBox="0 0 20 20" fill="none" xmlns="http://www.w3.org/2000/svg">
<g id="weather-symbol" clip-path="url(#clip0_233_7050)">
<path id="Vector" d="M9.99997 16.5742C10.2041 16.5742 10.4011 16.6491 10.5536 16.7848C10.7061 16.9204 10.8036 17.1073 10.8275 17.31L10.8333 17.4075V18.3333C10.8331 18.5457 10.7517 18.75 10.6059 18.9045C10.4601 19.0589 10.2608 19.1519 10.0488 19.1643C9.83677 19.1768 9.62799 19.1078 9.46511 18.9715C9.30223 18.8351 9.19756 18.6418 9.17247 18.4308L9.16664 18.3333V17.4075C9.16664 17.1865 9.25444 16.9745 9.41072 16.8183C9.567 16.662 9.77896 16.5742 9.99997 16.5742ZM15.7883 14.6192L15.8666 14.6883L16.515 15.3367C16.6644 15.4866 16.7512 15.6879 16.7577 15.8995C16.7641 16.1111 16.6898 16.3173 16.5498 16.4761C16.4097 16.6349 16.2145 16.7344 16.0037 16.7545C15.793 16.7746 15.5825 16.7137 15.415 16.5842L15.3366 16.515L14.6883 15.8667C14.5388 15.7167 14.4521 15.5155 14.4456 15.3039C14.4392 15.0922 14.5135 14.8861 14.6535 14.7273C14.7935 14.5685 14.9888 14.4689 15.1995 14.4488C15.4103 14.4288 15.6208 14.4897 15.7883 14.6192ZM5.31164 14.6883C5.45512 14.8318 5.54131 15.0228 5.55405 15.2253C5.56678 15.4278 5.50518 15.628 5.38081 15.7883L5.31164 15.8667L4.66331 16.515C4.51334 16.6645 4.31211 16.7512 4.10049 16.7577C3.88886 16.7642 3.68271 16.6898 3.52391 16.5498C3.3651 16.4098 3.26555 16.2146 3.24547 16.0038C3.22539 15.793 3.2863 15.5825 3.41581 15.415L3.48497 15.3367L4.13331 14.6883C4.28958 14.5321 4.5015 14.4444 4.72247 14.4444C4.94344 14.4444 5.15537 14.5321 5.31164 14.6883ZM9.99997 5.46334C10.5957 5.46334 11.1857 5.58069 11.7361 5.80868C12.2865 6.03667 12.7866 6.37083 13.2079 6.7921C13.6291 7.21337 13.9633 7.71349 14.1913 8.2639C14.4193 8.81432 14.5366 9.40425 14.5366 10C14.5366 10.5958 14.4193 11.1857 14.1913 11.7361C13.9633 12.2865 13.6291 12.7866 13.2079 13.2079C12.7866 13.6292 12.2865 13.9634 11.7361 14.1913C11.1857 14.4193 10.5957 14.5367 9.99997 14.5367C8.79677 14.5367 7.64285 14.0587 6.79206 13.2079C5.94127 12.3571 5.46331 11.2032 5.46331 10C5.46331 8.79681 5.94127 7.64289 6.79206 6.7921C7.64285 5.94131 8.79677 5.46334 9.99997 5.46334ZM9.99997 7.13001C9.2388 7.13001 8.5088 7.43238 7.97057 7.97061C7.43235 8.50884 7.12997 9.23884 7.12997 10C7.12997 10.7612 7.43235 11.4912 7.97057 12.0294C8.5088 12.5676 9.2388 12.87 9.99997 12.87C10.7611 12.87 11.4911 12.5676 12.0294 12.0294C12.5676 11.4912 12.87 10.7612 12.87 10C12.87 9.23884 12.5676 8.50884 12.0294 7.97061C11.4911 7.43238 10.7611 7.13001 9.99997 7.13001ZM18.3333 9.16668C18.5457 9.16691 18.75 9.24824 18.9044 9.39405C19.0589 9.53986 19.1518 9.73914 19.1643 9.95117C19.1767 10.1632 19.1077 10.372 18.9714 10.5349C18.8351 10.6977 18.6417 10.8024 18.4308 10.8275L18.3333 10.8333H17.4075C17.1951 10.8331 16.9908 10.7518 16.8363 10.606C16.6819 10.4602 16.5889 10.2609 16.5765 10.0488C16.564 9.83681 16.633 9.62803 16.7694 9.46515C16.9057 9.30227 17.0991 9.1976 17.31 9.17251L17.4083 9.16668H18.3333ZM2.59247 9.16668C2.80487 9.16691 3.00917 9.24824 3.16361 9.39405C3.31806 9.53986 3.411 9.73914 3.42345 9.95117C3.4359 10.1632 3.36691 10.372 3.23058 10.5349C3.09426 10.6977 2.90088 10.8024 2.68997 10.8275L2.59164 10.8333H1.66664C1.45424 10.8331 1.24995 10.7518 1.0955 10.606C0.941052 10.4602 0.848109 10.2609 0.835662 10.0488C0.823214 9.83681 0.892201 9.62803 1.02853 9.46515C1.16485 9.30227 1.35823 9.1976 1.56914 9.17251L1.66664 9.16668H2.59247ZM4.58414 3.41584L4.66331 3.48501L5.31164 4.13334C5.4611 4.28331 5.54787 4.48454 5.55433 4.69616C5.56079 4.90779 5.48646 5.11394 5.34643 5.27274C5.2064 5.43155 5.01118 5.5311 4.80041 5.55118C4.58964 5.57125 4.37913 5.51035 4.21164 5.38084L4.13331 5.31168L3.48497 4.66334C3.33552 4.51338 3.24874 4.31215 3.24228 4.10052C3.23582 3.8889 3.31015 3.68275 3.45018 3.52394C3.59021 3.36514 3.78543 3.26559 3.9962 3.24551C4.20697 3.22543 4.41665 3.28633 4.58414 3.41584ZM16.515 3.48501C16.6585 3.6285 16.7446 3.81942 16.7574 4.02194C16.7701 4.22446 16.7085 4.42467 16.5841 4.58501L16.515 4.66334L15.8666 5.31168C15.7167 5.46113 15.5154 5.5479 15.3038 5.55437C15.0922 5.56083 14.886 5.4865 14.7272 5.34647C14.5684 5.20644 14.4689 5.01122 14.4488 4.80045C14.4287 4.58968 14.4896 4.37917 14.6191 4.21168L14.6883 4.13334L15.3366 3.48501C15.4929 3.32878 15.7048 3.24102 15.9258 3.24102C16.1468 3.24102 16.3587 3.32878 16.515 3.48501ZM9.99997 0.833344C10.2041 0.83337 10.4011 0.908307 10.5536 1.04394C10.7061 1.17957 10.8036 1.36647 10.8275 1.56918L10.8333 1.66668V2.59251C10.8331 2.80491 10.7517 3.0092 10.6059 3.16365C10.4601 3.3181 10.2608 3.41104 10.0488 3.42349C9.83677 3.43593 9.62799 3.36695 9.46511 3.23062C9.30223 3.0943 9.19756 2.90092 9.17247 2.69001L9.16664 2.59168V1.66668C9.16664 1.44566 9.25444 1.2337 9.41072 1.07742C9.567 0.921141 9.77896 0.833344 9.99997 0.833344Z" fill="#292A8F"/>
</g>
<defs>
<clipPath id="clip0_233_7050">
<rect width="20" height="20" fill="white"/>
</clipPath>
</defs>
</svg>
