<svg width="30" height="30" viewBox="0 0 30 30" fill="none" xmlns="http://www.w3.org/2000/svg">
<g clip-path="url(#clip0_547_5707)">
<g clip-path="url(#clip1_547_5707)">
<path d="M12.8346 8L7.6139 12.6402L12.8346 17.2805V14.9607H21.1111V10.3205H12.8346V8ZM18.9991 22.1597C17.7553 22.1597 17.108 21.4696 16.5878 20.9145C16.1228 20.4183 15.7552 20.0267 14.9996 20.0267C14.2441 20.0267 13.8772 20.419 13.4115 20.9145C12.8913 21.4696 12.2447 22.1597 10.9995 22.1597C9.75566 22.1597 9.10834 21.4696 8.58816 20.9145C8.12319 20.4183 7.75557 20.0267 7 20.0267V18.8977C8.24452 18.8977 8.89184 19.5879 9.41202 20.1429C9.87699 20.6392 10.2446 21.0307 11.0002 21.0307C11.7558 21.0307 12.1226 20.6384 12.5883 20.1429C13.1071 19.5879 13.7551 18.8977 15.0004 18.8977C16.2442 18.8977 16.8915 19.5879 17.4117 20.1429C17.8766 20.6392 18.2442 21.0307 18.9998 21.0307C19.7554 21.0307 20.1223 20.6384 20.588 20.1429C21.1082 19.5879 21.7555 18.8977 23 18.8977V20.0267C22.2444 20.0267 21.8768 20.419 21.4111 20.9145C20.8917 21.4696 20.2443 22.1597 18.9991 22.1597Z" fill="black"/>
</g>
</g>
<defs>
<clipPath id="clip0_547_5707">
<rect width="30" height="30" fill="white"/>
</clipPath>
<clipPath id="clip1_547_5707">
<rect width="16" height="14.1597" fill="white" transform="translate(7 8)"/>
</clipPath>
</defs>
</svg>
