<?xml version="1.0" encoding="UTF-8" standalone="no"?>
<svg width="80px" height="80px" viewBox="0 0 80 80" version="1.1" xmlns="http://www.w3.org/2000/svg" xmlns:xlink="http://www.w3.org/1999/xlink">
    <!-- Generator: Sketch 3.8.2 (29753) - http://www.bohemiancoding.com/sketch -->
    <title>winter</title>
    <desc>Created with Sketch.</desc>
    <defs></defs>
    <g id="Page-1" stroke="none" stroke-width="1" fill="none" fill-rule="evenodd">
        <g id="winter" fill="currentColor">
            <path d="M30.8607851,50 C27.8888408,47.4130903 26.0069058,43.5765127 26.0069058,39.2879908 C26.0069058,39.0024513 26.0152674,38.7188895 26.031756,38.437544 L26.031756,38.437544 L53.7884954,40.8511735 C53.391476,44.5034729 51.6224199,47.7320685 49.015915,50 L30.8607851,50 L30.8607851,50 Z" id="Combined-Shape"></path>
            <path d="M22,52 L25.6542631,59.2216831 C18.742876,63.6662781 13.9114123,71.2281527 13,80 L67,80 C66.1200361,71.5469094 61.6037776,64.2193484 55.0932082,59.7207393 L59,52 L49,52 L40,68 L40,52 L22,52 L22,52 Z M47.9996317,65.0000008 C46.8950826,64.9990184 46,65.8949475 46,66.9998776 C46,68.1060357 46.8950826,69 47.9996317,69 C49.1041807,69 50,68.1060357 50,66.9993864 C50,65.8949475 49.1041807,65.0000008 47.9996317,65.0000008 L47.9996317,65.0000008 Z M32.9996317,65.0000008 C31.8950826,64.9990184 31,65.8949475 31,66.9998776 C31,68.1060357 31.8950826,69 32.9996317,69 C34.1041807,69 35,68.1060357 35,66.9993864 C35,65.8949475 34.1041807,65.0000008 32.9996317,65.0000008 L32.9996317,65.0000008 Z M47.9996317,73.0000008 C46.8950826,72.9990184 46,73.8949475 46,74.9998776 C46,76.1060357 46.8950826,77 47.9996317,77 C49.1041807,77 50,76.1060357 50,74.9993864 C50,73.8949475 49.1041807,73.0000008 47.9996317,73.0000008 L47.9996317,73.0000008 Z M32.9996317,73.0000008 C31.8950826,72.9990184 31,73.8949475 31,74.9998776 C31,76.1060357 31.8950826,77 32.9996317,77 C34.1041807,77 35,76.1060357 35,74.9993864 C35,73.8949475 34.1041807,73.0000008 32.9996317,73.0000008 L32.9996317,73.0000008 Z" id="Combined-Shape"></path>
            <path d="M27,20 L23.9997073,20 C22.8898926,20 22,20.895478 22,22.0001062 L22,34.9998938 C22,36.1099416 22.8952994,37 23.9997073,37 L56.0002927,37 C57.1101074,37 58,36.104522 58,34.9998938 L58,22.0001062 C58,20.8900584 57.1047006,20 56.0002927,20 L53,20 L53,17.9986759 C53,14.681938 50.3147959,12 47.0024287,12 L32.9975713,12 C29.6845286,12 27,14.6856987 27,17.9986759 L27,20 L27,20 Z" id="Combined-Shape"></path>
        </g>
    </g>
</svg>