<svg width="30" height="30" viewBox="0 0 30 30" fill="none" xmlns="http://www.w3.org/2000/svg">
<g clip-path="url(#clip0_547_5715)">
<path d="M7.89453 22.1051C7.89453 22.5414 8.24453 22.8951 8.67828 22.8951H21.3208C21.7533 22.8951 22.1045 22.5451 22.1045 22.1051C22.1045 21.6701 21.7545 21.3164 21.3208 21.3164H8.67828C8.24578 21.3164 7.89453 21.6664 7.89453 22.1051ZM19.277 13.8314C19.5695 15.2626 18.092 17.1639 17.5645 16.1664C17.3058 15.6764 17.727 14.8876 17.8745 14.4226C18.117 13.6526 18.3083 12.8364 18.277 12.0226C18.1808 9.54387 16.127 5.97637 12.902 6.00012C14.6995 8.16512 10.1633 10.1751 11.0645 14.9051C10.262 14.7676 9.67953 13.2401 9.67953 13.2401C9.67953 13.2401 7.79453 20.0651 13.4545 20.0651C12.052 19.1814 11.0233 17.8864 10.9795 16.4001C10.9795 16.4001 12.2108 17.4189 13.3008 17.3714C12.482 15.2439 13.957 13.0189 15.7945 12.2301C15.187 13.4964 14.547 15.0789 14.737 16.5051C15.0283 18.7176 17.4995 18.5839 19.0908 17.1976C19.0908 18.1401 17.7945 19.3126 16.987 20.0639C22.412 19.0376 20.4583 14.3476 19.277 13.8314Z" fill="black"/>
</g>
<defs>
<clipPath id="clip0_547_5715">
<rect width="30" height="30" fill="white"/>
</clipPath>
</defs>
</svg>
